<?xml version="1.0" encoding="UTF-8"?>
<svg width="80px" height="80px" viewBox="0 0 80 80" version="1.1" xmlns="http://www.w3.org/2000/svg" xmlns:xlink="http://www.w3.org/1999/xlink">
    <title>icon-Rounded</title>
    <g id="新官网" stroke="none" stroke-width="1" fill="none" fill-rule="evenodd">
        <g id="Press-Kit" transform="translate(-519.000000, -264.000000)">
            <g id="编组" transform="translate(152.000000, 112.000000)">
                <g id="Lists" transform="translate(0.000000, 120.000000)">
                    <g id="P-2" transform="translate(282.000000, 0.000000)">
                        <g id="icon-Rounded" transform="translate(85.000000, 32.000000)">
                            <path d="M79.1972051,13.3770406 C78.5732973,10.3197118 77.0506651,7.51670374 74.8224229,5.32561312 C72.6039107,3.14645004 69.8296006,1.61355063 66.799934,0.892789836 C62.855871,0.272765261 58.8673918,-0.0237506231 54.8746789,0.00622147618 L25.2522786,0.00622147618 C21.2669188,-0.0461538085 17.2841587,0.232236811 13.3452207,0.838505109 C10.2946086,1.51879669 7.50395809,3.05727116 5.30431167,5.2713358 C3.11987672,7.47161455 1.59269151,10.2343458 0.893617656,13.2504355 C0.270971769,17.2061425 -0.0264829661,21.2059763 0.00421775491,25.2100302 L0.00421775491,54.738049 C-0.0387457256,58.7110809 0.246584401,62.6808552 0.857312164,66.6071691 C1.48559476,69.6719758 3.0146814,72.481055 5.24986086,74.6768766 C7.46637507,76.8528561 10.2322921,78.3913676 13.254457,79.1273062 C17.2119637,79.7351589 21.2118813,80.0261286 25.2159582,79.995773 L54.7476691,79.995773 C58.7333259,80.0387151 62.7158631,79.7544088 66.6547269,79.1458157 C69.7135092,78.4868767 72.5100274,76.9454037 74.6954131,74.7131553 C76.8909744,72.5208875 78.4202913,69.7548245 79.1065899,66.7338483 C79.7282695,62.7901354 80.0253684,58.8024439 79.9956586,54.8104583 L79.9956586,25.2462348 C80.0379952,21.2752019 79.7706061,17.3069084 79.1972051,13.3770406 Z" id="base" fill="#2E79DF" fill-rule="nonzero"></path>
                            <path d="M48.4100536,35.4265958 C49.2027585,35.7161327 49.9307444,36.0944321 50.5774274,36.5594031 C51.4379765,37.17806 52.154426,37.9508593 52.6854917,38.8742879 C52.9585964,39.3491681 53.1729188,39.8464157 53.330232,40.3613712 C53.4893303,40.8801346 53.5911157,41.4167818 53.6376647,41.9664775 C53.966831,45.8313873 51.5821044,50.3257776 47.3382378,53.6644779 L47.1466448,53.81346 C46.4085744,54.3804743 45.6158495,54.9129841 44.7731007,55.4014452 L25.337053,66.6666667 C24.7667062,62.878592 25.8188014,58.9879162 28.2241493,55.9884364 C29.2639993,54.6912219 30.5568866,53.5609055 32.0811813,52.6774174 L43.4349151,46.0967417 C44.9822822,45.1998808 45.965932,43.7007765 46.2582419,42.0700911 C46.4908771,40.7734288 46.2864704,39.3939194 45.5809936,38.1672213 C45.0137227,37.1808386 44.1990732,36.426619 43.2594968,35.9373019 C42.1915582,35.3803339 40.9618669,35.1657063 39.7509736,35.341314 C39.8193773,35.3089308 39.8879995,35.2776317 39.9568404,35.2474164 C40.9872231,34.9916068 42.005197,34.8289459 42.9931379,34.7583494 C44.964984,34.6178813 46.8173899,34.8440589 48.4100536,35.4265958 Z M54.662947,13.3333333 C55.2332938,17.121408 54.1811986,21.0120838 51.7758507,24.0115636 C50.7360007,25.3087781 49.4431134,26.4390945 47.9188187,27.3225826 L36.5650849,33.9032583 C35.0177178,34.8001192 34.034068,36.2992235 33.7417581,37.9299089 C33.5091229,39.2265712 33.7135296,40.6060806 34.4190064,41.8327787 C34.9862773,42.8191614 35.8009268,43.573381 36.7405032,44.0626981 C37.8084418,44.6196661 39.0381331,44.8342937 40.2490264,44.658686 C40.1806227,44.6910692 40.1120005,44.7223683 40.0431596,44.7525836 C39.0127769,45.0083932 37.994803,45.1710541 37.0068621,45.2416506 C35.035016,45.3821187 33.1826101,45.1559411 31.5899464,44.5734042 C30.7972415,44.2838673 30.0692556,43.9055679 29.4225726,43.4405969 C28.5620235,42.82194 27.845574,42.0491407 27.3145083,41.1257121 C27.0414036,40.6508319 26.8270812,40.1535843 26.669768,39.6386288 C26.5106697,39.1198654 26.4088843,38.5832182 26.3623353,38.0335225 C26.033169,34.1686127 28.4178956,29.6742224 32.6617622,26.3355221 L32.8533552,26.18654 C33.5914256,25.6195257 34.3841505,25.0870159 35.2268993,24.5985548 L54.662947,13.3333333 Z" id="形状结合" fill="#FFFFFF"></path>
                        </g>
                    </g>
                </g>
            </g>
        </g>
    </g>
</svg>