
<svg xmlns="http://www.w3.org/2000/svg" xmlns:xlink="http://www.w3.org/1999/xlink" version="1.1" width="144" height="144"  viewBox="468 468 144 144" xml:space="preserve">


<g transform="matrix(1 0 0 1 540 540)" id="9efea956-5e3f-404f-b6dc-02b88b6d63e1"  >
<rect style="stroke: none; stroke-width: 1; stroke-dasharray: none; stroke-linecap: butt; stroke-dashoffset: 0; stroke-linejoin: miter; stroke-miterlimit: 4; fill: rgb(255,255,255); fill-rule: nonzero; opacity: 1; visibility: hidden;" vector-effect="non-scaling-stroke"  x="-540" y="-540" rx="0" ry="0" width="1080" height="1080" />
</g>
<g transform="matrix(1 0 0 1 540 540)" id="3a33935f-4b68-4a3d-aac8-ee8b5299d23d"  >
</g>
<g transform="matrix(1 0 0 1 540 540)"  >
<g style="" vector-effect="non-scaling-stroke"   >
		<g transform="matrix(1 0 0 1 16.54 -44.94)" clip-path="url(#CLIPPATH_3)"  >
<clipPath id="CLIPPATH_3" >
	<path transform="matrix(1 0 0 1 -16.54 44.94) translate(-71, -71)" id="a" d="M 0 0 L 142 0 L 142 142 L 0 142 z" stroke-linecap="round" />
</clipPath>
<path style="stroke: none; stroke-width: 1; stroke-dasharray: none; stroke-linecap: butt; stroke-dashoffset: 0; stroke-linejoin: miter; stroke-miterlimit: 4; fill: rgb(255,255,255); fill-rule: evenodd; opacity: 1;" vector-effect="non-scaling-stroke"  transform=" translate(-88.54, -28.06)" d="M 92.138 27.821 C 95.168 28.378 97.256 29.471 97.214 30.655 C 97.15899999999999 32.256 93.228 33.419000000000004 88.43599999999999 33.251000000000005 C 83.64399999999999 33.084 79.80399999999999 31.650000000000006 79.85999999999999 30.049000000000007 C 79.90099999999998 28.865000000000006 82.06099999999998 27.920000000000005 85.12199999999999 27.576000000000008 C 86.15999999999998 27.826000000000008 87.34999999999998 27.988000000000007 88.61799999999998 28.032000000000007 C 89.76833312439442 28.077043692136694 90.92032959426892 28.011071801274692 92.05799999999998 27.835000000000004 L 92.13799999999998 27.82100000000001 Z M 90.993 23.008 C 93.73899999999999 23.410999999999998 95.69699999999999 24.349999999999998 95.661 25.375 C 95.617 26.656 92.47200000000001 27.585 88.639 27.451999999999998 C 84.80499999999999 27.317999999999998 81.73299999999999 26.171999999999997 81.77799999999999 24.889999999999997 C 81.814 23.865999999999996 83.832 23.064999999999998 86.6 22.854999999999997 C 87.32216163042476 22.996304598195856 88.05452747619879 23.079239177991276 88.78999999999999 23.103 C 89.54199999999999 23.128999999999998 90.261 23.096999999999998 90.92099999999999 23.017 L 90.993 23.008 Z" stroke-linecap="round" />
</g>
		<g transform="matrix(1 0 0 1 16.87 -52.1)" clip-path="url(#CLIPPATH_4)"  >
<clipPath id="CLIPPATH_4" >
	<path transform="matrix(1 0 0 1 -16.87 52.1) translate(-71, -71)" id="a" d="M 0 0 L 142 0 L 142 142 L 0 142 z" stroke-linecap="round" />
</clipPath>
<path style="stroke: none; stroke-width: 1; stroke-dasharray: none; stroke-linecap: butt; stroke-dashoffset: 0; stroke-linejoin: miter; stroke-miterlimit: 4; fill: rgb(255,255,255); fill-rule: nonzero; opacity: 1;" vector-effect="non-scaling-stroke"  transform=" translate(-88.87, -20.9)" d="M 88.806 22.639 C 91.682 22.739 94.03999999999999 22.041999999999998 94.073 21.081 C 94.107 20.121 91.803 19.259999999999998 88.928 19.16 C 86.05199999999999 19.06 83.694 19.757 83.661 20.717 C 83.627 21.677999999999997 85.931 22.538 88.806 22.639 Z" stroke-linecap="round" />
</g>
		<g transform="matrix(1 0 0 1 0 0)" clip-path="url(#CLIPPATH_5)"  >
<clipPath id="CLIPPATH_5" >
	<path transform="matrix(1 0 0 1 0 0) translate(-71, -71)" id="a" d="M 0 0 L 142 0 L 142 142 L 0 142 z" stroke-linecap="round" />
</clipPath>
<path style="stroke: none; stroke-width: 1; stroke-dasharray: none; stroke-linecap: butt; stroke-dashoffset: 0; stroke-linejoin: miter; stroke-miterlimit: 4; fill: rgb(255,255,255); fill-rule: evenodd; opacity: 1;" vector-effect="non-scaling-stroke"  transform=" translate(-72, -73)" d="M 72 2 L 71 2 L 71 44.6 L 72 44.6 C 84.30362076540615 44.59998617398255 95.20797614616252 52.5224413451944 99.01002286748329 64.22387393560908 C 102.81206958880405 75.92530652602375 98.6470043024537 88.74414006773614 88.69318113767157 95.97604772362968 C 78.73935797288945 103.20795537952321 65.26084684559125 103.20798683379158 55.306989927283766 95.97612563566375 C 45.35313300897629 88.74426443753589 41.18800789306155 75.92545033565939 44.98999999999999 64.22400000000003 L 45.29899999999999 63.273 L 44.34799999999999 62.963 L 5.735 50.419 L 4.784000000000001 50.108999999999995 L 4.4750000000000005 51.06099999999999 C -5.02952635696218 80.31470293585556 5.383693798437753 112.36151656292115 30.268503431911732 130.44082535046152 C 55.15331306538571 148.52013413800188 88.84950598760896 148.51968579213985 113.73383450253343 130.43971479960805 C 138.61816301745787 112.35974380707627 149.03053036919357 80.3126530844348 139.52522554328155 51.05920308454646 C 130.01992071736956 21.805753084658118 102.758984975105 1.9998246765064778 72 2.000000000000007 Z M 73 43 L 73 4.007 C 94.90911006622015 4.323656228607205 115.36542360544101 15.027786773730748 128.11583071361332 32.84734046165273 C 140.86623782178563 50.66689414957471 144.39483628931703 73.4832954257815 137.623 94.32199999999997 C 125.90097622033059 130.370060280357 87.29430851858726 150.2121542939979 51.15949253301734 138.7603611961294 C 15.024676547447427 127.30856809826089 -5.105920425947232 88.85154596479677 6.074999999999989 52.632000000000026 L 42.795 64.562 C 39.46264154944424 77.06906914131919 44.41500411835416 90.31462429924873 55.135392972997586 97.56753089963773 C 65.85578182764101 104.82043750002673 79.99301765893243 104.48999914549793 90.3628310457474 96.74413820746386 C 100.73264443256237 88.99827726942976 105.06074374194422 75.53580413765262 101.14767273711169 63.19808689904369 C 97.23460173227915 50.86036966043475 85.93856916911699 42.35329761491439 73 42 Z Z Z Z Z Z Z Z Z Z" stroke-linecap="round" />
</g>
		<g transform="matrix(1 0 0 1 -33.29 -39.54)" clip-path="url(#CLIPPATH_6)"  >
<clipPath id="CLIPPATH_6" >
	<path transform="matrix(1 0 0 1 33.29 39.54) translate(-71, -71)" id="a" d="M 0 0 L 142 0 L 142 142 L 0 142 z" stroke-linecap="round" />
</clipPath>
<path style="stroke: rgb(255,255,255); stroke-width: 2; stroke-dasharray: none; stroke-linecap: butt; stroke-dashoffset: 0; stroke-linejoin: miter; stroke-miterlimit: 4; fill: none; fill-rule: nonzero; opacity: 1;" vector-effect="non-scaling-stroke"  transform=" translate(-38.71, -33.46)" d="M 5.426 51.369 C 14.797137947980929 22.52732351439615 41.67409475480963 3.0000076885557547 71.99999999999997 2.999999999999993 L 72 43.6 C 59.263143924002975 43.60004070256515 47.974861817996995 51.801516006864404 44.039 63.915 L 5.426 51.369 Z" stroke-linecap="round" />
</g>
		<g transform="matrix(1 0 0 1 -16 -47)" clip-path="url(#CLIPPATH_7)"  >
<clipPath id="CLIPPATH_7" >
	<path transform="matrix(1 0 0 1 16 47) translate(-71, -71)" id="a" d="M 0 0 L 142 0 L 142 142 L 0 142 z" stroke-linecap="round" />
</clipPath>
<path style="stroke: none; stroke-width: 1; stroke-dasharray: none; stroke-linecap: butt; stroke-dashoffset: 0; stroke-linejoin: miter; stroke-miterlimit: 4; fill: rgb(255,255,255); fill-rule: evenodd; opacity: 1;" vector-effect="non-scaling-stroke"  transform=" translate(-56, -26)" d="M 54.492 17.791 L 55.650999999999996 16.006 L 56.931 17.706 L 62.995 25.756 L 57.507999999999996 34.209 L 56.348 35.994 L 55.068 34.294 L 49.004 26.243999999999996 L 54.492 17.790999999999997 Z M 52.108 25.135 L 55.772 19.492 L 59.821 24.866 L 52.108 25.136 Z M 52.178 27.135 L 56.227 32.508 L 59.891 26.865000000000002 L 52.178 27.135 Z" stroke-linecap="round" />
</g>
</g>
</g>
<g transform="matrix(1 0 0 1 540 540)" style="" id="2f1f4739-5065-4ea6-80b9-d76771b08c2a"  >
		<text xml:space="preserve" font-family="Lato" font-size="11" font-style="normal" font-weight="400" style="stroke: none; stroke-width: 1; stroke-dasharray: none; stroke-linecap: butt; stroke-dashoffset: 0; stroke-linejoin: miter; stroke-miterlimit: 4; fill: rgb(255,255,255); fill-rule: nonzero; opacity: 1; white-space: pre;" ><tspan x="-26.09" y="3.46" >veXPOLAR</tspan></text>
</g>
</svg>