<svg width="44" height="44" viewBox="0 0 44 44" fill="none" xmlns="http://www.w3.org/2000/svg">
<g clip-path="url(#clip0_1511_6787)">
<path d="M29.9986 18.2941C30.5231 17.8929 31.0553 17.5238 31.5344 17.0952C32.1452 16.5488 32.5987 15.8714 32.964 15.1373C32.9998 15.0653 33.042 14.9964 33.1074 14.8792C34.6256 17.2544 35.333 19.8138 35.213 22.5812C35.0585 26.1417 33.6743 29.1626 31.0806 31.6619C29.6568 28.8511 28.2478 26.0695 26.833 23.2765C27.512 22.8222 28.0665 22.2669 28.4778 21.497C28.343 21.5353 28.2589 21.5574 28.1759 21.583C27.5936 21.7628 27.012 21.9451 26.4285 22.1209C26.3729 22.1377 26.265 22.1356 26.2513 22.1079C26.2118 22.0277 26.1641 21.9078 26.197 21.8425C26.568 21.1063 26.951 20.3762 27.3392 19.6489C27.3736 19.5846 27.4622 19.5419 27.5341 19.5062C28.3494 19.1022 29.1663 18.7015 29.9986 18.2941Z" fill="url(#paint0_linear_1511_6787)"/>
<path d="M22.5596 26.0763C23.8455 28.8808 25.1243 31.6691 26.423 34.5007C25.9158 34.6367 25.4272 34.7778 24.9336 34.898C24.0255 35.1192 23.0978 35.2077 22.1674 35.2142C21.1439 35.2213 20.1202 35.1384 19.1328 34.8582C18.8728 34.7844 18.6645 34.5147 18.4471 34.3187C18.4159 34.2906 18.4517 34.1629 18.4835 34.0938C19.202 32.5341 19.9243 30.9761 20.6458 29.4178C21.1652 28.2959 21.6834 27.1734 22.2067 26.0533C22.2409 25.9801 22.3145 25.9253 22.3697 25.862C22.4307 25.9281 22.4916 25.9941 22.5596 26.0763Z" fill="url(#paint1_linear_1511_6787)"/>
<path d="M17.7488 23.54C17.6168 23.9139 17.3738 24.1096 17.0128 24.2636C15.2824 25.0017 14.2025 26.3011 13.8354 28.157C13.668 29.0033 13.6981 29.8573 13.8932 30.6975C13.949 30.9375 13.9427 31.1391 13.8113 31.346C13.726 31.4801 13.6623 31.628 13.5723 31.8021C12.5512 30.4186 11.6202 29.0329 11.7183 27.2257C11.7849 25.9978 12.1772 24.8924 12.9539 23.9297C13.6909 23.0163 14.671 22.4381 15.7226 21.9856C16.4334 21.6798 17.1847 21.4682 17.9162 21.21C18.0991 21.1454 18.1821 21.203 18.2915 21.3694C18.5404 21.7481 18.5613 22.0785 18.2997 22.4675C18.0801 22.794 17.9357 23.1709 17.7488 23.54Z" fill="url(#paint2_linear_1511_6787)"/>
<path d="M21.3458 17.5564C21.418 17.7238 21.4824 17.8754 21.5494 18.0334C20.5096 18.1911 19.4857 18.3463 18.438 18.5051C18.1909 18.0219 17.9364 17.5217 17.6797 17.0227C17.2554 16.1975 16.8286 15.3737 16.405 14.5482C16.1926 14.1341 16.3478 13.8798 16.8123 13.8789C17.5546 13.8774 18.297 13.8814 19.0393 13.8774C19.4976 13.8749 19.8282 14.0426 19.995 14.4993C20.1118 14.8192 20.2681 15.1246 20.4199 15.4658C19.4899 15.7227 18.576 15.9751 17.6954 16.2184C18.2853 16.2184 18.9052 16.224 19.5249 16.2162C19.8683 16.2119 20.2119 16.1915 20.5544 16.1661C20.6928 16.1558 20.7554 16.208 20.807 16.3308C20.9775 16.7368 21.1601 17.1378 21.3458 17.5564Z" fill="url(#paint3_linear_1511_6787)"/>
<path d="M25.9793 17.4401C25.5285 17.5211 25.0953 17.5936 24.6614 17.6611C24.3003 17.7173 23.9385 17.7681 23.5768 17.8203C23.4749 17.835 23.3725 17.8462 23.2449 17.8621C23.3892 17.5231 23.5254 17.1942 23.669 16.8685C23.8091 16.5508 23.9831 16.2451 24.0903 15.9171C24.1457 15.7475 24.2601 15.7299 24.3677 15.7135C25.4972 15.5408 26.6165 15.327 27.6916 14.9271C27.9024 14.8486 28.1058 14.7501 28.3467 14.6461C28.0026 15.3113 27.6719 15.9512 27.3401 16.5905C27.3094 16.6496 27.2537 16.7005 27.2392 16.7622C27.1359 17.2014 26.786 17.2947 26.4151 17.3608C26.2759 17.3856 26.1361 17.4067 25.9793 17.4401Z" fill="url(#paint4_linear_1511_6787)"/>
<path d="M11.5376 21.7818C10.7619 22.7231 10.1769 23.7532 9.80079 24.8975C9.69176 25.2293 9.60874 25.5696 9.5158 25.8989C8.7974 24.9775 8.74779 20.6961 9.41382 18.4249C10.1494 15.9166 11.5017 13.8136 13.5015 12.0706C14.6575 14.3204 15.8013 16.5467 16.9653 18.8121C14.8656 19.293 12.9627 20.0913 11.5376 21.7818Z" fill="url(#paint5_linear_1511_6787)"/>
<path d="M20.8545 8.96536C22.199 8.85042 23.513 8.91116 24.8108 9.20011C25.3019 9.30943 25.7312 9.56156 26.131 9.86394C26.2702 9.96926 26.197 10.0784 26.1486 10.1891C25.7538 11.0926 25.3586 11.996 24.9634 12.8994C24.8072 13.2566 24.6595 13.6179 24.4894 13.9683C24.4416 14.0666 24.3416 14.174 24.2421 14.2075C23.1666 14.57 22.0864 14.9186 21.0074 15.271C20.8877 15.3101 20.8138 15.2809 20.7582 15.1543C19.9495 13.3138 19.1369 11.475 18.3219 9.63727C18.261 9.49986 18.2961 9.44268 18.4368 9.4149C19.1076 9.28243 19.7772 9.14436 20.4481 9.01226C20.5747 8.98733 20.7048 8.98045 20.8545 8.96536Z" fill="url(#paint6_linear_1511_6787)"/>
<path d="M23.5157 26.5457C23.2224 25.898 22.9342 25.267 22.634 24.61C23.6577 24.326 24.6514 24.0503 25.6642 23.7693C26.0184 24.4801 26.3743 25.2011 26.7362 25.919C27.3171 27.0716 27.9029 28.2216 28.4845 29.3738C28.6864 29.7737 28.556 29.9914 28.12 29.9915C27.2552 29.9917 26.3904 29.9896 25.5256 29.9928C25.2534 29.9938 25.0573 29.8816 24.9435 29.6348C24.4803 28.6307 24.0187 27.6258 23.5562 26.6214C23.5466 26.6007 23.5326 26.582 23.5157 26.5457Z" fill="url(#paint7_linear_1511_6787)"/>
<path d="M20.2876 28.5091C20.1327 28.8433 19.9864 29.1625 19.8382 29.4807C19.6779 29.8248 19.4241 30.0038 19.0271 29.9959C18.3164 29.9818 17.6053 29.9919 16.8944 29.9919C16.8126 29.9919 16.7309 29.9919 16.5906 29.9919C16.6526 29.6678 16.6869 29.3744 16.7663 29.0939C17.0596 28.0581 17.6699 27.2346 18.4669 26.5216C19.4527 25.6397 20.6413 25.1977 21.8824 24.8512C21.8952 24.8477 21.9112 24.8557 21.972 24.8665C21.4098 26.0828 20.8526 27.2882 20.2876 28.5091Z" fill="url(#paint8_linear_1511_6787)"/>
<path d="M22.7985 22.9292C21.5857 23.1775 20.3917 23.4204 19.1433 23.6744C19.3162 23.3308 19.4629 23.0392 19.6095 22.7476C19.757 22.4541 19.9397 22.1724 20.0425 21.864C20.1597 21.5124 19.7783 21.2915 19.7273 20.9363C21.6358 20.8359 23.5345 20.6388 25.4536 20.1411C25.3449 20.3531 25.264 20.5117 25.1823 20.6698C25.1507 20.7309 25.1162 20.7905 25.0845 20.8516C24.9436 21.1228 24.7179 21.3852 24.6877 21.6684C24.66 21.9289 24.8428 22.2118 24.9453 22.5224C24.2499 22.6536 23.5336 22.7887 22.7985 22.9292Z" fill="url(#paint9_linear_1511_6787)"/>
<path d="M29.7871 14.9504C30.2162 14.1328 30.6366 13.3298 31.0571 12.5266C31.3703 12.6963 31.4459 12.9611 31.4464 13.2645C31.4484 14.457 30.862 15.2977 29.8697 15.8919C29.6364 16.0317 29.3926 16.154 29.1135 16.2521C29.3352 15.823 29.5568 15.394 29.7871 14.9504Z" fill="url(#paint10_linear_1511_6787)"/>
<path d="M23.3322 15.9019C23.4416 15.8942 23.5314 15.8873 23.6558 15.8777C23.6044 16.0004 23.5603 16.1093 23.5134 16.217C23.2996 16.7074 23.0812 17.1958 22.8731 17.6887C22.8145 17.8277 22.7539 17.9183 22.5787 17.9126C22.4293 17.9079 22.2789 17.9582 22.1278 17.9697C22.0799 17.9733 21.9997 17.9434 21.9829 17.9067C21.7213 17.332 21.4677 16.7537 21.2048 16.1596C21.9288 16.0714 22.6208 15.987 23.3322 15.9019Z" fill="url(#paint11_linear_1511_6787)"/>
</g>
<defs>
<linearGradient id="paint0_linear_1511_6787" x1="30.706" y1="16.3692" x2="32.8739" y2="30.7897" gradientUnits="userSpaceOnUse">
<stop stop-color="#4B5E98"/>
<stop offset="1" stop-color="#403A4E"/>
</linearGradient>
<linearGradient id="paint1_linear_1511_6787" x1="22.429" y1="26.6924" x2="23.2012" y2="34.8369" gradientUnits="userSpaceOnUse">
<stop stop-color="#4B5E98"/>
<stop offset="1" stop-color="#403A4E"/>
</linearGradient>
<linearGradient id="paint2_linear_1511_6787" x1="15.0992" y1="22.1269" x2="16.2643" y2="31.3086" gradientUnits="userSpaceOnUse">
<stop stop-color="#4B5E98"/>
<stop offset="1" stop-color="#403A4E"/>
</linearGradient>
<linearGradient id="paint3_linear_1511_6787" x1="18.9305" y1="14.2883" x2="19.2199" y2="18.3337" gradientUnits="userSpaceOnUse">
<stop stop-color="#4B5E98"/>
<stop offset="1" stop-color="#403A4E"/>
</linearGradient>
<linearGradient id="paint4_linear_1511_6787" x1="25.7958" y1="14.9317" x2="25.9397" y2="17.7501" gradientUnits="userSpaceOnUse">
<stop stop-color="#4B5E98"/>
<stop offset="1" stop-color="#403A4E"/>
</linearGradient>
<linearGradient id="paint5_linear_1511_6787" x1="8.94409" y1="18.9847" x2="16.9545" y2="19.2791" gradientUnits="userSpaceOnUse">
<stop stop-color="#C004FE"/>
<stop offset="1" stop-color="#7E02F5"/>
</linearGradient>
<linearGradient id="paint6_linear_1511_6787" x1="18.2932" y1="12.0989" x2="26.1629" y2="12.718" gradientUnits="userSpaceOnUse">
<stop stop-color="#C004FE"/>
<stop offset="1" stop-color="#7E02F5"/>
</linearGradient>
<linearGradient id="paint7_linear_1511_6787" x1="22.634" y1="26.881" x2="28.5556" y2="27.2393" gradientUnits="userSpaceOnUse">
<stop stop-color="#C004FE"/>
<stop offset="1" stop-color="#7E02F5"/>
</linearGradient>
<linearGradient id="paint8_linear_1511_6787" x1="16.5906" y1="27.4233" x2="21.9485" y2="27.7782" gradientUnits="userSpaceOnUse">
<stop stop-color="#C004FE"/>
<stop offset="1" stop-color="#7E02F5"/>
</linearGradient>
<linearGradient id="paint9_linear_1511_6787" x1="19.1433" y1="21.9078" x2="25.3739" y2="22.6127" gradientUnits="userSpaceOnUse">
<stop stop-color="#C004FE"/>
<stop offset="1" stop-color="#7E02F5"/>
</linearGradient>
<linearGradient id="paint10_linear_1511_6787" x1="29.1135" y1="14.3894" x2="31.4428" y2="14.4818" gradientUnits="userSpaceOnUse">
<stop stop-color="#C004FE"/>
<stop offset="1" stop-color="#7E02F5"/>
</linearGradient>
<linearGradient id="paint11_linear_1511_6787" x1="21.2048" y1="16.9238" x2="23.6424" y2="17.1047" gradientUnits="userSpaceOnUse">
<stop stop-color="#C004FE"/>
<stop offset="1" stop-color="#7E02F5"/>
</linearGradient>
<clipPath id="clip0_1511_6787">
<rect width="44" height="44" fill="white"/>
</clipPath>
</defs>
</svg>
