<?xml version="1.0" encoding="UTF-8"?><svg id="Layer_2" xmlns="http://www.w3.org/2000/svg" xmlns:xlink="http://www.w3.org/1999/xlink" viewBox="0 0 73.61 73.61"><defs><style>.cls-1{fill:url(#linear-gradient-2);}.cls-2{fill:none;}.cls-3{fill:url(#linear-gradient);}</style><linearGradient id="linear-gradient" x1="7.29" y1="14.3" x2="49.27" y2="38.54" gradientTransform="matrix(1, 0, 0, 1, 0, 0)" gradientUnits="userSpaceOnUse"><stop offset="0" stop-color="#9c4a94"/><stop offset="1" stop-color="#402a74"/></linearGradient><linearGradient id="linear-gradient-2" x1="18.95" y1="28.83" x2="67.67" y2="56.96" xlink:href="#linear-gradient"/></defs><g id="Dex_Logos"><g id="Logo"><g><path class="cls-2" d="M21.79,58.34c.65-5.46,5.07-8.9,6.43-9.95,2.74-2.14,6.05-3.08,12.67-4.95,5.47-1.55,8.87-1.99,11.86-5.13,1.15-1.21,1.87-2.42,2.31-3.28-5.97,2.11-10.86,3.2-14.25,3.81-4.25,.76-8.46,1.75-12.71,2.51-1.59,.28-3.42,.6-5.65,1.66-1.35,.64-3.89,1.88-5.94,4.51-2.74,3.52-2.95,7.39-3.02,9.1-.22,5.49,2.22,9.53,3.25,11.05,1.52,.99,3.39,2.05,5.59,2.99,2.95,1.26,5.66,1.96,7.86,2.36-5.65-3.5-9.04-9.19-8.39-14.68Z"/><path class="cls-2" d="M10.76,60.46c-1.19-2.05-2.3-3.96-2.67-6.69-.73-5.31,1.9-9.53,2.7-10.72,1.06-1.56,3.35-4.33,9.83-6.96,9.1-3.7,11.86-1.19,25.51-4.43,1.77-.42,7.6-1.86,13.15-5.34,2.46-1.55,4.37-3.19,5.99-5.26,1.23-1.58,2.02-3.06,2.52-4.14-1.38-2.15-2.99-4.15-4.78-5.96,.16,1.04,.29,2.87-.58,4.75-.74,1.6-1.97,2.76-4.4,4.18-4.92,2.89-9.23,3.7-9.23,3.7-9.88,1.85-14.37,1.85-20.27,2.94-7.29,1.35-14.15,2.61-19.65,7.88-4.61,4.42-6.41,9.87-7.19,13.39,2.58,8.24,7.97,15.23,15.05,19.85-1.64-1.42-3.98-3.76-5.97-7.19Z"/><path class="cls-2" d="M50.33,5.77c.46,1.91-.32,3.56-.62,4.16-1.51,3.08-4.71,4.51-13.66,7.23-3.26,.99-7.41,2.2-12.28,3.45,9.55,.15,17.22-.89,22.63-1.94,6.04-1.17,9.95-2.5,11.68-5.87,1.01-1.97,.96-4.04,.75-5.5-4.09-3.06-8.84-5.29-14-6.44,.6,.18,4.68,1.48,5.5,4.89Z"/><path class="cls-3" d="M8.87,34.42c5.5-5.27,12.36-6.54,19.65-7.88,5.91-1.09,10.39-1.09,20.27-2.94,0,0,4.31-.81,9.23-3.7,2.43-1.42,3.66-2.58,4.4-4.18,.87-1.88,.74-3.71,.58-4.75-1.3-1.31-2.69-2.53-4.17-3.64,.21,1.45,.26,3.52-.75,5.5-1.73,3.37-5.64,4.7-11.68,5.87-5.42,1.05-13.08,2.09-22.63,1.94,4.87-1.26,9.02-2.46,12.28-3.46,8.95-2.72,12.15-4.16,13.66-7.23,.3-.6,1.08-2.26,.62-4.16-.82-3.41-4.9-4.71-5.5-4.89-2.58-.57-5.27-.88-8.03-.88C16.48,0,0,16.48,0,36.8c0,3.83,.59,7.52,1.68,11,.78-3.51,2.58-8.97,7.19-13.39Z"/><path class="cls-1" d="M67.78,16.92c-.5,1.08-1.29,2.56-2.52,4.14-1.62,2.08-3.53,3.71-5.99,5.26-5.55,3.49-11.37,4.92-13.15,5.34-13.65,3.24-16.41,.73-25.51,4.43-6.48,2.63-8.77,5.4-9.83,6.96-.8,1.19-3.43,5.41-2.7,10.72,.37,2.73,1.48,4.64,2.67,6.69,1.99,3.43,4.33,5.77,5.97,7.19h0c-.52-.75-1.39-2.14-2.1-4.03-.34-.91-.54-1.64-.63-2-.1-.39-.62-2.53-.53-5.02,.06-1.48,.2-5.47,3.02-9.1,2.05-2.63,4.59-3.87,5.94-4.51,2.23-1.06,4.06-1.38,5.65-1.66,4.25-.76,8.46-1.75,12.71-2.51,3.39-.61,8.28-1.7,14.25-3.81-.43,.86-1.15,2.07-2.31,3.28-2.99,3.13-6.39,3.58-11.86,5.13-6.62,1.88-9.93,2.82-12.67,4.95-1.34,1.04-5.65,4.4-6.43,9.95-1.13,8.07,6.17,13.94,6.65,14.32,2.69,.62,5.48,.95,8.36,.95,20.33,0,36.8-16.48,36.8-36.8,0-7.33-2.14-14.15-5.83-19.89Z"/></g></g></g></svg>