<svg width="24" height="24" viewBox="0 0 24 24" fill="none" xmlns="http://www.w3.org/2000/svg">
<path d="M3.4748 10.6453L11.9414 15.5372C12.0844 15.6197 12.2467 15.6632 12.4118 15.6632C12.5769 15.6632 12.7392 15.6197 12.8822 15.5372L21.3488 10.6453C21.4914 10.5626 21.6097 10.4439 21.6919 10.3011C21.7742 10.1583 21.8175 9.99641 21.8175 9.8316C21.8175 9.66679 21.7742 9.50488 21.6919 9.36207C21.6097 9.21926 21.4914 9.10056 21.3488 9.01787L12.8822 4.12603C12.7392 4.04347 12.5769 4 12.4118 4C12.2467 4 12.0844 4.04347 11.9414 4.12603L3.4748 9.01787C3.33224 9.10056 3.21391 9.21926 3.13165 9.36207C3.04939 9.50488 3.0061 9.66679 3.0061 9.8316C3.0061 9.99641 3.04939 10.1583 3.13165 10.3011C3.21391 10.4439 3.33224 10.5626 3.4748 10.6453ZM12.4118 6.02632L18.997 9.78927L12.4118 13.5993L5.82664 9.8269L12.4118 6.02632ZM20.4081 13.3547L12.4118 17.9737L4.41554 13.3547C4.30873 13.2921 4.19061 13.2512 4.06797 13.2343C3.94533 13.2175 3.82056 13.225 3.70083 13.2565C3.5811 13.2879 3.46875 13.3427 3.37024 13.4177C3.27172 13.4926 3.18897 13.5863 3.12673 13.6933C3.06453 13.8007 3.02418 13.9193 3.00802 14.0423C2.99185 14.1654 3.00019 14.2904 3.03254 14.4102C3.06489 14.53 3.12062 14.6422 3.19653 14.7403C3.27243 14.8385 3.367 14.9207 3.4748 14.9821L11.9414 19.874C12.0844 19.9565 12.2467 20 12.4118 20C12.5769 20 12.7392 19.9565 12.8822 19.874L21.3488 14.9821C21.4566 14.9207 21.5512 14.8385 21.6271 14.7403C21.703 14.6422 21.7587 14.53 21.7911 14.4102C21.8234 14.2904 21.8317 14.1654 21.8156 14.0423C21.7994 13.9193 21.7591 13.8007 21.6969 13.6933C21.6346 13.5863 21.5519 13.4926 21.4534 13.4177C21.3548 13.3427 21.2425 13.2879 21.1228 13.2565C21.003 13.225 20.8783 13.2175 20.7556 13.2343C20.633 13.2512 20.5149 13.2921 20.4081 13.3547Z" fill="#F5E1FF" fill-opacity="0.7"/>
</svg>
