<svg width="10" height="10" viewBox="0 0 10 10" fill="none" xmlns="http://www.w3.org/2000/svg">
<path d="M4.645 6.645C4.6235 6.66876 4.60346 6.6938 4.585 6.72C4.56608 6.74787 4.55095 6.77814 4.54 6.81C4.52558 6.83834 4.51547 6.86867 4.51 6.9C4.50755 6.93329 4.50755 6.96671 4.51 7C4.50831 7.06559 4.52201 7.13066 4.55 7.19C4.57246 7.25205 4.60828 7.3084 4.65494 7.35506C4.7016 7.40172 4.75795 7.43754 4.82 7.46C4.87985 7.48645 4.94457 7.50011 5.01 7.50011C5.07544 7.50011 5.14015 7.48645 5.2 7.46C5.26205 7.43754 5.3184 7.40172 5.36506 7.35506C5.41172 7.3084 5.44754 7.25205 5.47 7.19C5.4922 7.1292 5.50239 7.06468 5.5 7C5.50038 6.93419 5.48777 6.86896 5.46289 6.80804C5.438 6.74713 5.40134 6.69172 5.355 6.645C5.30852 6.59813 5.25322 6.56094 5.19229 6.53555C5.13136 6.51017 5.06601 6.4971 5 6.4971C4.934 6.4971 4.86864 6.51017 4.80771 6.53555C4.74678 6.56094 4.69148 6.59813 4.645 6.645ZM5 0C4.01109 0 3.0444 0.293245 2.22215 0.842652C1.3999 1.39206 0.759043 2.17295 0.380604 3.08658C0.00216639 4.00021 -0.0968502 5.00554 0.0960758 5.97545C0.289002 6.94535 0.765206 7.83627 1.46447 8.53553C2.16373 9.23479 3.05464 9.711 4.02455 9.90392C4.99445 10.0969 5.99979 9.99783 6.91342 9.6194C7.82705 9.24096 8.60794 8.60009 9.15735 7.77785C9.70675 6.9556 10 5.9889 10 5C10 4.34339 9.87067 3.69321 9.6194 3.08658C9.36812 2.47995 8.99983 1.92876 8.53553 1.46447C8.07124 1.00017 7.52005 0.631876 6.91342 0.380602C6.30679 0.129329 5.65661 0 5 0ZM5 9C4.20888 9 3.43552 8.7654 2.77772 8.32588C2.11992 7.88635 1.60723 7.26164 1.30448 6.53073C1.00173 5.79983 0.92252 4.99556 1.07686 4.21964C1.2312 3.44371 1.61216 2.73098 2.17157 2.17157C2.73098 1.61216 3.44372 1.2312 4.21964 1.07686C4.99556 0.922518 5.79983 1.00173 6.53073 1.30448C7.26164 1.60723 7.88635 2.11992 8.32588 2.77772C8.7654 3.43551 9 4.20887 9 5C9 6.06086 8.57857 7.07828 7.82843 7.82843C7.07828 8.57857 6.06087 9 5 9ZM5 2.5C4.73653 2.49983 4.47767 2.56906 4.24946 2.70072C4.02124 2.83238 3.83173 3.02183 3.7 3.25C3.66382 3.30691 3.63953 3.37055 3.62859 3.43709C3.61764 3.50363 3.62027 3.57169 3.63632 3.63719C3.65236 3.70269 3.68149 3.76427 3.72194 3.81822C3.7624 3.87217 3.81335 3.91737 3.87174 3.95112C3.93012 3.98487 3.99473 4.00646 4.06167 4.01459C4.12861 4.02272 4.19651 4.01723 4.26127 3.99844C4.32603 3.97965 4.38633 3.94795 4.43852 3.90526C4.49072 3.86256 4.53374 3.80975 4.565 3.75C4.60905 3.6737 4.67249 3.61039 4.74887 3.56649C4.82526 3.52259 4.9119 3.49965 5 3.5C5.13261 3.5 5.25979 3.55268 5.35355 3.64645C5.44732 3.74021 5.5 3.86739 5.5 4C5.5 4.13261 5.44732 4.25978 5.35355 4.35355C5.25979 4.44732 5.13261 4.5 5 4.5C4.86739 4.5 4.74022 4.55268 4.64645 4.64645C4.55268 4.74021 4.5 4.86739 4.5 5V5.5C4.5 5.63261 4.55268 5.75978 4.64645 5.85355C4.74022 5.94732 4.86739 6 5 6C5.13261 6 5.25979 5.94732 5.35355 5.85355C5.44732 5.75978 5.5 5.63261 5.5 5.5V5.41C5.83069 5.29001 6.10868 5.05761 6.28539 4.75343C6.46209 4.44925 6.52627 4.09264 6.4667 3.74594C6.40713 3.39924 6.2276 3.08451 5.9595 2.85676C5.69139 2.62901 5.35177 2.50273 5 2.5Z" fill="#F5E1FF" fill-opacity="0.7"/>
</svg>
