<?xml version="1.0" encoding="UTF-8" standalone="no"?>
<!DOCTYPE svg PUBLIC "-//W3C//DTD SVG 1.1//EN" "http://www.w3.org/Graphics/SVG/1.1/DTD/svg11.dtd">
<svg width="100%" height="100%" viewBox="0 0 50 50" version="1.1" xmlns="http://www.w3.org/2000/svg" xmlns:xlink="http://www.w3.org/1999/xlink" xml:space="preserve" xmlns:serif="http://www.serif.com/" style="fill-rule:evenodd;clip-rule:evenodd;stroke-linejoin:round;stroke-miterlimit:2;">
    <g transform="matrix(2.10514,0,0,2.10526,2.89475,-5.52631)">
        <path d="M10.5,6.451C11.299,6.448 12.033,6.902 12.388,7.618L18.325,19.493C18.472,19.787 18.549,20.111 18.549,20.439C18.549,21.597 17.596,22.549 16.439,22.549C16.438,22.549 16.438,22.549 16.437,22.549C16.437,22.549 4.563,22.549 4.563,22.549C3.405,22.549 2.452,21.596 2.452,20.438C2.452,20.11 2.528,19.786 2.675,19.493L8.612,7.618C8.967,6.902 9.701,6.448 10.5,6.45L10.5,6.451ZM10.5,5C9.153,5 7.916,5.764 7.314,6.969L1.376,18.844C1.129,19.339 1,19.884 1,20.437C1,22.392 2.608,24 4.563,24L16.437,24C16.438,24 16.439,24 16.44,24C18.394,24 20.001,22.393 20.001,20.439C20.001,19.885 19.872,19.339 19.624,18.844L13.686,6.969C13.084,5.764 11.847,5 10.5,5Z" style="fill:rgb(112,212,75);fill-rule:nonzero;"/>
    </g>
</svg>
