<svg width="5" height="6" viewBox="0 0 5 6" fill="none" xmlns="http://www.w3.org/2000/svg">
<path d="M2.18199 5.5C2.11003 5.5 2.04383 5.46873 1.98912 5.41189L0.0777292 3.52469C0.0230198 3.465 -1.90735e-06 3.40532 -1.90735e-06 3.33995C-1.90735e-06 3.19784 0.10361 3.08983 0.247547 3.08983C0.313753 3.08983 0.382847 3.11542 0.42892 3.1609L1.08523 3.7947L1.96899 4.75535L1.92291 4.0647L1.92291 0.472206C1.92291 0.324416 2.0323 0.222087 2.18199 0.222087C2.33167 0.222087 2.4382 0.324416 2.4382 0.472206V4.0647L2.39502 4.75251L3.27875 3.7947L3.9322 3.1609C3.98114 3.11256 4.04735 3.08983 4.11643 3.08983C4.25749 3.08983 4.364 3.19784 4.364 3.33995C4.364 3.40532 4.33809 3.46785 4.27764 3.53038L2.37486 5.41189C2.31729 5.46873 2.25108 5.5 2.18199 5.5Z" fill="#BE95C0"/>
</svg>
