<svg width="5" height="6" viewBox="0 0 5 6" fill="none" xmlns="http://www.w3.org/2000/svg">
<path d="M2.182 5.5C2.11005 5.5 2.04384 5.46873 1.98913 5.41189L0.0777445 3.52469C0.023035 3.465 1.33514e-05 3.40532 1.33514e-05 3.33995C1.33514e-05 3.19784 0.103625 3.08983 0.247562 3.08983C0.313768 3.08983 0.382863 3.11542 0.428936 3.1609L1.08525 3.7947L1.969 4.75535L1.92293 4.0647L1.92293 0.472206C1.92293 0.324416 2.03232 0.222087 2.182 0.222087C2.33169 0.222087 2.43822 0.324416 2.43822 0.472206V4.0647L2.39503 4.75251L3.27877 3.7947L3.93222 3.1609C3.98116 3.11256 4.04736 3.08983 4.11645 3.08983C4.2575 3.08983 4.36401 3.19784 4.36401 3.33995C4.36401 3.40532 4.33811 3.46785 4.27765 3.53038L2.37487 5.41189C2.3173 5.46873 2.2511 5.5 2.182 5.5Z" fill="url(#paint0_linear_1310_11353)"/>
<defs>
<linearGradient id="paint0_linear_1310_11353" x1="4.36401" y1="5.14951" x2="3.81899" y2="-0.16925" gradientUnits="userSpaceOnUse">
<stop stop-color="#9747FF"/>
<stop offset="1" stop-color="#3B44BD"/>
</linearGradient>
</defs>
</svg>
