<svg width="5" height="6" viewBox="0 0 5 6" fill="none" xmlns="http://www.w3.org/2000/svg">
<path d="M2.18176 0.5C2.10981 0.5 2.0436 0.531266 1.98889 0.588109L0.0775003 2.47531C0.0227907 2.535 -0.000230789 2.59468 -0.000230789 2.66005C-0.000230789 2.80216 0.103381 2.91017 0.247318 2.91017C0.313524 2.91017 0.382619 2.88458 0.428691 2.8391L1.085 2.2053L1.96876 1.24465L1.92268 1.9353L1.92268 5.52779C1.92268 5.67558 2.03207 5.77791 2.18176 5.77791C2.33144 5.77791 2.43797 5.67558 2.43797 5.52779V1.9353L2.39479 1.24749L3.27853 2.2053L3.93197 2.8391C3.98091 2.88744 4.04712 2.91017 4.11621 2.91017C4.25726 2.91017 4.36377 2.80216 4.36377 2.66005C4.36377 2.59468 4.33786 2.53215 4.27741 2.46962L2.37463 0.588109C2.31706 0.531266 2.25085 0.5 2.18176 0.5Z" fill="url(#paint0_linear_1310_11356)"/>
<defs>
<linearGradient id="paint0_linear_1310_11356" x1="4.36377" y1="0.850486" x2="3.81875" y2="6.16925" gradientUnits="userSpaceOnUse">
<stop stop-color="#9747FF"/>
<stop offset="1" stop-color="#3B44BD"/>
</linearGradient>
</defs>
</svg>
