<svg width="5" height="6" viewBox="0 0 5 6" fill="none" xmlns="http://www.w3.org/2000/svg">
<path d="M2.18199 0.5C2.11003 0.5 2.04383 0.531266 1.98912 0.588109L0.0777292 2.47531C0.0230198 2.535 -1.90735e-06 2.59468 -1.90735e-06 2.66005C-1.90735e-06 2.80216 0.10361 2.91017 0.247547 2.91017C0.313753 2.91017 0.382847 2.88458 0.42892 2.8391L1.08523 2.2053L1.96899 1.24465L1.92291 1.9353L1.92291 5.52779C1.92291 5.67558 2.0323 5.77791 2.18199 5.77791C2.33167 5.77791 2.4382 5.67558 2.4382 5.52779V1.9353L2.39502 1.24749L3.27875 2.2053L3.9322 2.8391C3.98114 2.88744 4.04735 2.91017 4.11643 2.91017C4.25749 2.91017 4.364 2.80216 4.364 2.66005C4.364 2.59468 4.33809 2.53215 4.27764 2.46962L2.37486 0.588109C2.31729 0.531266 2.25108 0.5 2.18199 0.5Z" fill="#BE95C0"/>
</svg>
