<svg width="39" height="41" viewBox="0 0 39 41" fill="none" xmlns="http://www.w3.org/2000/svg">
<path d="M34 18C34 26.2843 27.2843 33 19 33C10.7157 33 4 26.2843 4 18C4 9.71573 10.7157 3 19 3C27.2843 3 34 9.71573 34 18Z" fill="#231928" stroke="#2E2433" stroke-width="2"/>
<g filter="url(#filter0_d_67_1767)">
<path d="M19.364 23.5559C19.2201 23.5559 19.0877 23.4934 18.9782 23.3797L15.1555 19.6053C15.046 19.4859 15 19.3665 15 19.2358C15 18.9516 15.2072 18.7356 15.4951 18.7356C15.6275 18.7356 15.7657 18.7867 15.8578 18.8777L17.1705 20.1453L18.938 22.0666L18.8458 20.6853V13.5003C18.8458 13.2047 19.0646 13.0001 19.364 13.0001C19.6633 13.0001 19.8764 13.2047 19.8764 13.5003V20.6853L19.79 22.0609L21.5575 20.1453L22.8644 18.8777C22.9623 18.781 23.0947 18.7356 23.2329 18.7356C23.515 18.7356 23.728 18.9516 23.728 19.2358C23.728 19.3665 23.6762 19.4916 23.5553 19.6167L19.7497 23.3797C19.6346 23.4934 19.5022 23.5559 19.364 23.5559Z" fill="#F5F5F5"/>
</g>
<defs>
<filter id="filter0_d_67_1767" x="0" y="0" width="38.728" height="40.5559" filterUnits="userSpaceOnUse" color-interpolation-filters="sRGB">
<feFlood flood-opacity="0" result="BackgroundImageFix"/>
<feColorMatrix in="SourceAlpha" type="matrix" values="0 0 0 0 0 0 0 0 0 0 0 0 0 0 0 0 0 0 127 0" result="hardAlpha"/>
<feOffset dy="2"/>
<feGaussianBlur stdDeviation="7.5"/>
<feComposite in2="hardAlpha" operator="out"/>
<feColorMatrix type="matrix" values="0 0 0 0 0.317647 0 0 0 0 0.188235 0 0 0 0 0.498039 0 0 0 1 0"/>
<feBlend mode="normal" in2="BackgroundImageFix" result="effect1_dropShadow_67_1767"/>
<feBlend mode="normal" in="SourceGraphic" in2="effect1_dropShadow_67_1767" result="shape"/>
</filter>
</defs>
</svg>
