<?xml version="1.0" encoding="UTF-8"?><svg id="Layer_2" xmlns="http://www.w3.org/2000/svg" viewBox="0 0 32 32"><defs><style>.cls-1{fill:#fdfdfd;stroke:#fff;stroke-miterlimit:10;stroke-width:.5px;}.cls-2{fill:rgba(22,13,34,.8);}.cls-3{fill:none;stroke:rgba(215,178,255,.5);}</style></defs><g id="Layer_1-2"><path class="cls-2" d="M32,16c0,8.84-7.16,16-16,16S0,24.84,0,16,7.16,0,16,0s16,7.16,16,16Z"/><path class="cls-3" d="M31.5,16c0,8.56-6.94,15.5-15.5,15.5S.5,24.56,.5,16,7.44,.5,16,.5s15.5,6.94,15.5,15.5Z"/><g><path class="cls-1" d="M12.36,23.41c-.14,0-.28-.06-.39-.18l-3.82-3.77c-.11-.12-.16-.24-.16-.37,0-.28,.21-.5,.5-.5,.13,0,.27,.05,.36,.14l1.31,1.27,1.77,1.92-.09-1.38v-7.18c0-.3,.22-.5,.52-.5s.51,.2,.51,.5v7.18l-.09,1.38,1.77-1.92,1.31-1.27c.1-.1,.23-.14,.37-.14,.28,0,.5,.22,.5,.5,0,.13-.05,.26-.17,.38l-3.81,3.76c-.12,.11-.25,.18-.39,.18Z"/><path class="cls-1" d="M19.64,8c-.14,0-.28,.06-.39,.18l-3.82,3.77c-.11,.12-.16,.24-.16,.37,0,.28,.21,.5,.5,.5,.13,0,.27-.05,.36-.14l1.31-1.27,1.77-1.92-.09,1.38v7.18c0,.3,.22,.5,.52,.5s.51-.2,.51-.5v-7.18l-.09-1.38,1.77,1.92,1.31,1.27c.1,.1,.23,.14,.37,.14,.28,0,.5-.22,.5-.5,0-.13-.05-.26-.17-.38l-3.81-3.76c-.12-.11-.25-.18-.39-.18Z"/></g></g></svg>