<svg width="14" height="14" viewBox="0 0 14 14" fill="none" xmlns="http://www.w3.org/2000/svg">
<path d="M13.475 11.025C14.175 11.725 14.175 12.775 13.475 13.475C12.775 14.175 11.725 14.175 11.025 13.475L7 9.45L2.975 13.475C2.275 14.175 1.225 14.175 0.525 13.475C-0.175 12.775 -0.175 11.725 0.525 11.025L4.55 7L0.525 2.975C-0.175 2.275 -0.175 1.225 0.525 0.525C1.225 -0.175 2.275 -0.175 2.975 0.525L7 4.55L11.025 0.525C11.725 -0.175 12.775 -0.175 13.475 0.525C14.175 1.225 14.175 2.275 13.475 2.975L9.45 7L13.475 11.025Z" fill="white"/>
</svg>
