<?xml version="1.0" encoding="UTF-8"?>
<svg id="b" data-name="Layer 2" xmlns="http://www.w3.org/2000/svg" width="76.6789" height="76.743" xmlns:xlink="http://www.w3.org/1999/xlink" viewBox="0 0 76.6789 76.743">
  <defs>
    <style>
      .p {
        fill: url(#j);
      }

      .q {
        fill: url(#m);
      }

      .r {
        fill: url(#h);
      }

      .s {
        fill: url(#i);
      }

      .t {
        fill: url(#l);
      }

      .u {
        fill: url(#f);
      }

      .v {
        fill: url(#g);
      }

      .w {
        fill: url(#n);
      }

      .x {
        fill: url(#e);
      }

      .y {
        fill: url(#o);
      }

      .z {
        fill: url(#d);
      }

      .aa {
        fill: url(#k);
      }
    </style>
    <linearGradient id="d" x1="61.31082" y1="-520.62389" x2="67.63578" y2="-562.69639" gradientTransform="translate(0 -498.53547) scale(1 -1)" gradientUnits="userSpaceOnUse">
      <stop offset="0" stop-color="#4d5f98"/>
      <stop offset="1" stop-color="#413b4f"/>
    </linearGradient>
    <linearGradient id="e" x1="37.23209" y1="-550.61463" x2="39.48502" y2="-574.3766" xlink:href="#d"/>
    <linearGradient id="f" x1="16.97156" y1="-537.21959" x2="20.37079" y2="-564.00764" xlink:href="#d"/>
    <linearGradient id="g" x1="28.7518" y1="-514.25242" x2="29.59614" y2="-526.05507" xlink:href="#d"/>
    <linearGradient id="h" x1="48.96919" y1="-516.11213" x2="49.38902" y2="-524.33494" xlink:href="#d"/>
    <linearGradient id="i" x1=".01008" y1="-527.65244" x2="23.38083" y2="-528.51137" gradientTransform="translate(0 -498.53547) scale(1 -1)" gradientUnits="userSpaceOnUse">
      <stop offset="0" stop-color="#9151a0"/>
      <stop offset="1" stop-color="#6b50a1"/>
    </linearGradient>
    <linearGradient id="j" x1="27.33887" y1="-507.04397" x2="50.2991" y2="-508.85023" xlink:href="#i"/>
    <linearGradient id="k" x1="39.97229" y1="-550.44692" x2="57.24884" y2="-551.49228" xlink:href="#i"/>
    <linearGradient id="l" x1="22.34323" y1="-552.03079" x2="37.97517" y2="-553.06623" xlink:href="#i"/>
    <linearGradient id="m" x1="29.87302" y1="-535.42678" x2="48.0511" y2="-537.48336" xlink:href="#i"/>
    <linearGradient id="n" x1="58.84967" y1="-514.40747" x2="65.64552" y2="-514.67705" xlink:href="#i"/>
    <linearGradient id="o" x1="35.79804" y1="-521.55242" x2="42.90986" y2="-522.08021" xlink:href="#i"/>
  </defs>
  <g id="c" data-name="XPOLAR">
    <g>
      <path class="z" d="m61.42753,27.37659c1.53025-1.17052,3.08297-2.24739,4.48077-3.49785,1.78203-1.59415,3.10515-3.57049,4.17093-5.71227.10445-.21006.22757-.41108.41837-.75302,4.42942,6.92976,6.4933,14.39693,6.1432,22.47095-.45077,10.38793-4.48923,19.20155-12.05648,26.49338-4.15401-8.20064-8.26483-16.31609-12.39258-24.4648,1.98101-1.32544,3.59879-2.94556,4.79878-5.19178-.39329.11174-.63865.17622-.88081.25091-1.69889.52458-3.39574,1.05645-5.09812,1.56935-.16221.04901-.47702.04289-.51698-.03792-.11525-.23399-.25441-.5838-.15842-.77432,1.08241-2.1479,2.19983-4.278,3.33242-6.39994.10037-.18759.35886-.31217.56863-.41633,2.37868-1.17869,4.76202-2.34775,7.1903-3.53636Z"/>
      <path class="x" d="m39.7239,50.08153c3.75168,8.18227,7.48263,16.31726,11.27165,24.5786-1.47978.39678-2.90529.80845-4.3454,1.15913-2.64943.64537-5.35604.90356-8.07052.92253-2.98611.02071-5.97281-.22114-8.85359-1.03864-.75856-.21531-1.36629-1.00217-2.00056-1.57402-.09103-.08198.01342-.45455.1062-.65615,2.09626-4.5505,4.2036-9.09604,6.30861-13.64245,1.51537-3.2732,3.02725-6.54814,4.554-9.81609.09978-.21357.31452-.37345.47556-.55813.17797.19285.35565.38541.55405.62523Z"/>
      <path class="u" d="m25.68815,42.68176c-.38512,1.09087-1.09408,1.66183-2.14732,2.11113-5.04853,2.15344-8.19918,5.94451-9.27022,11.35918-.4884,2.46912-.40058,4.96071.16864,7.41203.1628.70021.14442,1.28839-.23895,1.89203-.24887.39124-.43472.82275-.69729,1.33069-2.97911-4.03643-5.69534-8.07927-5.40913-13.35186.19431-3.58246,1.33886-6.80751,3.60492-9.61624,2.15023-2.66489,5.00972-4.35181,8.07781-5.67201,2.07379-.89218,4.26575-1.50954,6.39994-2.26285.53362-.18847.77578-.02042,1.09495.46506.72618,1.10488.78716,2.06884.02392,3.20376-.6407.95258-1.06199,2.0522-1.60728,3.12907Z"/>
      <path class="v" d="m36.18257,25.22432c.21064.4884.39854.9307.59401,1.39167-3.03367.4601-6.02094.9129-9.07766,1.37621-.72092-1.40976-1.46344-2.86912-2.21237-4.32498-1.23792-2.40756-2.48313-4.81103-3.719-7.21947-.61969-1.20816-.16689-1.95009,1.18831-1.95272,2.1657-.00437,4.33169.0073,6.49738-.00437,1.33711-.0073,2.30165.48198,2.7883,1.81442.34076.93332.79678,1.82434,1.23967,2.81981-2.71332.74952-5.37967,1.48591-7.94886,2.19574,1.72106,0,3.52965.01634,5.33765-.00642,1.00188-.01254,2.00436-.07206,3.00361-.14617.40379-.03005.58643.12225.73697.48052.49745,1.18452,1.03019,2.35446,1.57198,3.57575Z"/>
      <path class="r" d="m49.70103,24.885c-1.31523.23632-2.57911.44784-3.84504.64478-1.05352.16397-2.1091.31218-3.16437.46447-.2973.04289-.59605.07557-.96833.12196.421-.98905.81837-1.94863,1.23733-2.89888.40874-.9269.9164-1.8188,1.22916-2.77575.16163-.49481.4954-.54616.80933-.59401,3.29537-.50386,6.56098-1.12763,9.69764-2.29436.61501-.22903,1.20845-.51641,1.91129-.81983-1.00393,1.94075-1.96876,3.80769-2.93681,5.67288-.08957.17242-.25207.32093-.29438.50094-.30138,1.28139-1.32224,1.5536-2.40435,1.74645-.40612.07235-.81399.13392-1.27147.23136Z"/>
      <path class="s" d="m7.56668,37.55212c-2.26314,2.74629-3.96991,5.75166-5.06723,9.0902-.3181.96804-.56032,1.96088-.83147,2.92163-2.09597-2.68822-2.24071-15.17942-.29753-21.80575,2.14609-7.31809,6.09149-13.45369,11.926-18.53898,3.37269,6.5639,6.70978,13.05924,10.1058,19.66865-6.12598,1.40305-11.67778,3.73213-15.83558,8.66424Z"/>
      <path class="p" d="m34.74918.15954c3.92264-.33534,7.7563-.15813,11.5427.6849,1.43281.31895,2.68531,1.05455,3.85175,1.93676.40612.30728.19256.6257.05135.94867-1.15185,2.636-2.30486,5.27172-3.45788,7.90743-.45572,1.04215-.88664,2.09626-1.38291,3.11857-.13946.28679-.43121.60014-.72151.69788-3.13782,1.05761-6.28936,2.07467-9.43739,3.10281-.34923.11408-.56484.02888-.72706-.34048-2.35942-5.36975-4.73022-10.73453-7.10802-16.0962-.17768-.4009-.07527-.56772.33523-.64878,1.95709-.38649,3.91068-.78931,5.86806-1.17472.36936-.07273.74894-.09281,1.18569-.13684Z"/>
      <path class="aa" d="m42.51336,51.45103c-.85571-1.88969-1.69655-3.73067-2.5724-5.6475,2.98669-.82858,5.88586-1.63295,8.84075-2.45278,1.0334,2.07379,2.07175,4.17734,3.12761,6.27185,1.6948,3.36276,3.4039,6.71794,5.10075,10.07954.58905,1.16673.2086,1.80188-1.06345,1.80217-2.5231.00058-5.04619-.00555-7.56929.00379-.79416.00292-1.36629-.32443-1.6983-1.04448-1.35141-2.92951-2.69815-5.86136-4.04752-8.79174-.02801-.06039-.06885-.11495-.11816-.22086Z"/>
      <path class="t" d="m33.09522,57.17934c-.45193.97504-.87876,1.90633-1.31115,2.83469-.46768,1.00393-1.20815,1.52617-2.36642,1.50312-2.0735-.04113-4.14817-.01167-6.22225-.01167h-.88635c.18089-.94557.28096-1.80159.51262-2.61995.85572-3.022,2.6363-5.4246,4.96158-7.50481,2.87612-2.57299,6.34392-3.86254,9.96489-4.87347.03735-.01021.08402.01313.26141.04464-1.64025,3.54861-3.2659,7.06542-4.91432,10.62746Z"/>
      <path class="q" d="m40.4209,40.89972c-3.53841.72443-7.02195,1.4331-10.66422,2.17416.50445-1.00247.93245-1.85323,1.36017-2.70398.43034-.8563.96337-1.67818,1.26329-2.57795.34194-1.02581-.77082-1.6703-.91961-2.70661,5.56814-.29292,11.10769-.86797,16.70675-2.32004-.31714.61852-.55317,1.08124-.79153,1.54251-.0922.17826-.19285.35215-.28534.53041-.41108.79124-1.06957,1.5568-1.15768,2.38305-.08082.76002.45251,1.5854.75156,2.49159-2.02886.38278-4.1187.77694-6.26339,1.18686Z"/>
      <path class="w" d="m60.81047,17.62119c1.25192-2.38539,2.47846-4.72818,3.70529-7.07155.91378.49511,1.13434,1.26767,1.1358,2.15286.00584,3.47918-1.70502,5.93196-4.6001,7.66557-.68066.40787-1.39196.76469-2.20625,1.0509.64682-1.25192,1.29335-2.50355,1.96526-3.79777Z"/>
      <path class="y" d="m41.97799,20.39723c.31918-.02247.58118-.0426.94412-.07061-.14996.35799-.27862.67571-.41546.98992-.62377,1.43077-1.26096,2.8557-1.8681,4.29376-.17097.40554-.34777.66987-.85893.65324-.43588-.01371-.87468.13304-1.31552.16659-.13975.01051-.37374-.07673-.42275-.1838-.76323-1.67671-1.50313-3.36393-2.27015-5.09725,2.11231-.25733,4.13125-.50357,6.20679-.75185Z"/>
    </g>
  </g>
</svg>