<svg width="19" height="16" viewBox="0 0 19 16" fill="none" xmlns="http://www.w3.org/2000/svg">
<path d="M19 8.00053C19 8.26433 18.8874 8.50707 18.6828 8.70765L11.8891 15.7155C11.6742 15.9161 11.4593 16.0005 11.224 16.0005C10.7124 16.0005 10.3236 15.6206 10.3236 15.0929C10.3236 14.8501 10.4157 14.5968 10.5795 14.4279L12.8611 12.0216L16.3193 8.78147L13.8331 8.95039L0.900402 8.95039C0.368376 8.95039 0 8.54933 0 8.00053C0 7.45173 0.368376 7.06115 0.900402 7.06115L13.8331 7.06115L16.3091 7.21948L12.8611 3.97938L10.5795 1.58361C10.4054 1.40419 10.3236 1.16144 10.3236 0.908148C10.3236 0.390992 10.7124 0.000488281 11.224 0.000488281C11.4593 0.000488281 11.6844 0.0954747 11.9095 0.317113L18.6828 7.2934C18.8874 7.50447 19 7.7472 19 8.00053Z" fill="#F5E1FF" fill-opacity="0.7"/>
</svg>
