<?xml version="1.0" encoding="UTF-8"?>
<svg id="b" data-name="Layer 2" xmlns="http://www.w3.org/2000/svg" width="80" height="80" viewBox="0 0 83.9825 83.9825">
  <defs>
    <style>
      .e {
        fill: #fff;
      }

      .f {
        fill: none;
      }

      .g {
        fill: #ee1e38;
      }
    </style>
  </defs>
  <g id="c" data-name="Binaris">
    <g id="d" data-name="BBond">
      <g>
        <path class="f"
          d="M24.86541,66.56092c.88348-6.33382,5.80605-10.16874,7.3325-11.35791,3.13105-2.43923,6.90753-3.51006,14.46048-5.65174,6.24316-1.77027,10.11708-2.27567,13.53369-5.85082,1.31625-1.37734,2.13783-2.76366,2.63311-3.74179-6.80985,2.40609-12.39185,3.64988-16.26064,4.34234-4.85134,.8683-9.65399,1.99522-14.50522,2.86408-1.8146,.32499-3.90506,.68596-6.45192,1.89401-1.53734,.7292-4.43421,2.14184-6.77525,5.14304-3.13092,4.01377-3.3706,8.4368-3.44923,10.37848-.25377,6.26681,2.52759,10.8752,3.70877,12.61101,4.02903,2.62645,8.53555,4.58148,13.36264,5.7025-.54686-.42658-8.8725-7.13117-7.58893-16.3332Z" />
        <path class="f"
          d="M12.27247,68.98452c-1.35657-2.33847-2.62227-4.52032-3.04887-7.63757-.8289-6.05687,2.16307-10.87364,3.07966-12.22627,1.20668-1.7807,3.82103-4.94294,11.20999-7.94554,10.38198-4.21887,13.53416-1.35421,29.10285-5.05065,2.0241-.48056,8.66703-2.11885,14.99798-6.09774,2.81181-1.76716,4.98801-3.63523,6.83685-6.00535,1.40226-1.79763,2.30834-3.48937,2.87829-4.72064-1.57933-2.45452-3.40848-4.7326-5.44966-6.80107,.18665,1.18838,.32623,3.27965-.66227,5.42396-.84222,1.82698-2.25299,3.14929-5.01987,4.77348-5.61706,3.29731-10.53242,4.21914-10.53246,4.21914-11.27038,2.11366-16.38996,2.112-23.1283,3.35685-8.31244,1.53563-16.1462,2.98284-22.41996,8.99261-5.26024,5.0389-7.31503,11.26511-8.20444,15.27186,2.9395,9.3971,9.0885,17.37568,17.16818,22.64643-1.87066-1.6165-4.53673-4.28426-6.80797-8.1995Z" />
        <path class="f"
          d="M57.42071,6.58407c.52152,2.17527-.37026,4.05926-.70866,4.74909-1.72286,3.51211-5.37225,5.14544-15.58311,8.2535-3.72117,1.13269-8.45707,2.50485-14.01248,3.94197,10.8955,.17103,19.64337-1.01063,25.82301-2.20966,6.89514-1.33786,11.35583-2.84774,13.32725-6.69826,1.15233-2.25069,1.09386-4.61147,.8513-6.27121-4.6678-3.49255-10.0861-6.03532-15.96984-7.34456,.68645,.20048,5.33984,1.68878,6.27253,5.57913Z" />
        <path class="g"
          d="M10.1167,39.26573c6.27376-6.00977,14.10752-7.45698,22.41996-8.99261,6.73834-1.24485,11.85791-1.24319,23.1283-3.35685,.00003,0,4.9154-.92183,10.53246-4.21914,2.76688-1.6242,4.17765-2.9465,5.01987-4.77348,.9885-2.14431,.84892-4.23559,.66227-5.42396-1.47937-1.49914-3.07193-2.88597-4.76154-4.15017,.24256,1.65974,.30102,4.02052-.8513,6.27121-1.97142,3.85052-6.43211,5.36041-13.32725,6.69826-6.17964,1.19903-14.92751,2.38069-25.82301,2.20966,5.55541-1.43713,10.29131-2.80929,14.01248-3.94197,10.21086-3.10806,13.86026-4.74139,15.58311-8.2535,.33839-.68983,1.23018-2.57382,.70866-4.74909-.93269-3.89034-5.58608-5.37864-6.27253-5.57913-2.94786-.65596-6.01138-1.00494-9.15693-1.00494C18.80012,0,0,18.80012,0,41.99125c0,4.37111,.67278,8.58395,1.91226,12.54634,.88942-4.00675,2.9442-10.23296,8.20444-15.27186Z" />
        <path class="g"
          d="M77.32922,19.30075c-.56995,1.23126-1.47603,2.92301-2.87829,4.72064-1.84884,2.37012-4.02504,4.23819-6.83685,6.00535-6.33096,3.97889-12.97389,5.61717-14.99798,6.09774-15.56868,3.69644-18.72087,.83178-29.10285,5.05065-7.38895,3.0026-10.00331,6.16485-11.20999,7.94554-.91659,1.35262-3.90856,6.1694-3.07966,12.22627,.4266,3.11725,1.6923,5.2991,3.04887,7.63757,2.27124,3.91525,4.93731,6.58301,6.80797,8.1995,.00379,.00247,.00746,.00513,.01127,.0076-1.18119-1.73581-3.96255-6.3442-3.70877-12.61101,.07863-1.94168,.31831-6.36471,3.44923-10.37848,2.34104-3.0012,5.23791-4.41384,6.77525-5.14304,2.54685-1.20805,4.63732-1.56901,6.45192-1.89401,4.85124-.86886,9.65389-1.99578,14.50522-2.86408,3.86879-.69245,9.4508-1.93625,16.26064-4.34234-.49528,.97813-1.31686,2.36445-2.63311,3.74179-3.41661,3.57514-7.29053,4.08054-13.53369,5.85082-7.55295,2.14167-11.32942,3.21251-14.46048,5.65174-1.52645,1.18917-6.44902,5.02409-7.3325,11.35791-1.28357,9.20203,7.04207,15.90662,7.58893,16.3332,3.06399,.71158,6.2564,1.08838,9.5369,1.08838,23.19113,0,41.99125-18.80012,41.99125-41.99125,0-8.35903-2.4431-16.14715-6.65328-22.6905Z" />
      </g>
      <g>
        <g>
          <path class="e"
            d="M29.65489,28.72609l-5.09204-2.99756-5.06738,2.99756v4.75757c1.64136-.62286,3.33398-1.12885,5.06738-1.56348v-.19653l5.09204-2.99756Z" />
          <path class="e"
            d="M36.92539,28.72609l1.19238,.70538c2.54822-.3186,5.19336-.59497,8.41089-1.03278l-4.53589-2.67017-5.06738,2.99756Z" />
        </g>
        <g>
          <path class="e"
            d="M33.29173,57.32399l-2.15161-1.26611c-1.01538,.85968-2.37915,2.16083-3.59314,3.89185l5.74475,3.36938v-5.99512Z" />
          <path class="e"
            d="M24.58347,49.56593l-.02063-7.60217-1.21509-.71838c-1.46631,.60236-2.7373,1.21002-3.84912,1.81189v10.36554c1.74084-1.94708,3.66089-3.12384,5.08484-3.85687Z" />
          <path class="e"
            d="M33.09531,46.96767l-4.87085-2.88141v3.95013c1.41968-.44238,2.68335-.66504,3.83484-.87128,.34607-.06201,.69043-.13306,1.03601-.19745Z" />
        </g>
        <polygon class="e"
          points="59.41953 31.72368 59.41953 37.69088 64.51166 34.69331 64.51166 28.72612 59.41953 25.72855 54.35222 28.72612 59.41953 31.72368" />
        <polygon class="e"
          points="36.92539 59.4713 36.92539 65.43851 41.9927 68.43607 47.08483 65.4385 47.08483 59.4713 41.9927 62.46887 36.92539 59.4713" />
        <polygon class="e"
          points="59.44745 41.9638 59.41952 52.20392 50.72163 57.32088 50.72163 63.31601 64.51476 55.22631 64.51476 38.96624 59.44745 41.9638" />
        <polygon class="e"
          points="55.78583 44.0863 50.71852 47.08386 50.71852 53.05106 55.78583 50.08142 55.78583 44.0863" />
        <g>
          <path class="f"
            d="M39.10459,23.16951c1.74304-.13312,3.40088-.29559,4.97144-.47937l-2.08325-1.22833-2.88818,1.7077Z" />
          <path class="f"
            d="M27.11643,23.52864c.41418,.00653,.81946,.00739,1.22742,.01007l1.01587-.59894c-.73315,.19489-1.47864,.39105-2.24329,.58887Z" />
          <path class="e"
            d="M50.71861,26.60671l5.06714-2.99756-3.63757-2.14087c-2.35217,.43982-5.05017,.86829-8.07214,1.22186l6.64258,3.91656Z" />
          <path class="e"
            d="M29.35972,22.93977c4.59302-1.22101,8.5603-2.37628,11.76917-3.35309,1.91345-.58246,3.59656-1.1131,5.07971-1.61401l-4.21582-2.48114-12.63306,7.44824Z" />
          <path class="e"
            d="M28.34385,23.53871l-.11938,.07043,5.06726,2.99756,5.81287-3.43719c-3.2915,.2514-6.88477,.39447-10.76074,.3692Z" />
        </g>
        <polygon class="e"
          points="55.78583 33.84618 55.78583 33.84617 55.80755 33.84617 50.71542 30.84861 41.98959 35.9935 33.31652 30.84861 28.22749 33.84618 28.22749 39.8413 36.95331 44.96136 36.95331 55.22631 42.02063 58.19594 47.08794 55.22631 47.08794 44.96136 55.81376 39.8413 55.78583 33.84618" />
      </g>
    </g>
  </g>
</svg>