<?xml version="1.0" encoding="UTF-8"?>
<svg id="b" data-name="Layer 2" xmlns="http://www.w3.org/2000/svg" width="80" height="80"
  viewBox="0 0 77.79926 77.79926">
  <defs>
    <style>
      .e {
        fill: #8696cb;
      }

      .f {
        fill: #c3c9e4;
      }

      .g {
        fill: #221536;
      }

      .h {
        fill: #ee1e38;
      }

      .i {
        fill: #fefefe;
      }
    </style>
  </defs>
  <g id="c" data-name="Ethernal">
    <g id="d" data-name="Ebond">
      <g>
        <g>
          <path class="h"
            d="M30.26953,20.41772l8.90045-14.76807,6.09619,10.1153c4.20288-1.60626,6.17078-3.02454,7.27039-5.26617,.31348-.63904,1.13965-2.38434,.65649-4.39948-.86401-3.60388-5.1748-4.9826-5.81073-5.16833-2.73077-.60767-5.56873-.93097-8.48273-.93097C17.41595,0,0,17.41595,0,38.89966c0,4.04926,.62323,7.9519,1.77148,11.62256,.82391-3.71173,2.72742-9.47955,7.60034-14.14746,4.51819-4.328,9.91162-6.09918,15.70599-7.34271l4.36993-7.25079,.82178-1.36353Z" />
          <path class="h"
            d="M66.58734,11.57941c-1.37042-1.38879-2.8457-2.67352-4.41095-3.8446,.22473,1.53754,.27887,3.72449-.78864,5.80945-1.82623,3.56702-5.9585,4.96576-12.34601,6.20514-.3927,.07617-.82233,.15112-1.23773,.22662l3.065,5.08563c.23462-.04309,.45697-.08197,.69757-.12708,0,0,4.55353-.85394,9.75702-3.90851,2.56317-1.50464,3.87006-2.72955,4.65027-4.42206,.91571-1.98639,.78638-3.92371,.61346-5.0246Z" />
        </g>
        <g>
          <polygon class="f" points="59.59302 43.38721 39.16998 55.44574 39.16998 72.14966 59.59302 43.38721" />
          <polygon class="i"
            points="39.16998 55.44574 30.75616 50.47498 22.91608 45.84314 18.75897 43.38721 21.19922 46.82593 26.48871 54.27972 39.16998 72.14966 39.16998 55.44574" />
        </g>
        <g>
          <path class="e"
            d="M22.91608,45.84314c.29425-.14899,.5719-.28503,.80597-.39606,1.13354-.53766,2.16736-.89136,3.12427-1.15015l-8.08215-4.77734c-4.57666,2.33313-6.4325,4.6059-7.36676,5.98456-.84906,1.25305-3.62079,5.71515-2.85291,11.32611,.3952,2.88776,1.56769,4.90894,2.8244,7.07526,2.104,3.62695,4.57379,6.09833,6.3067,7.59576,.00354,.00232,.00696,.00476,.01044,.00708-1.09418-1.60803-3.67078-5.87714-3.43567-11.68256,.07281-1.79871,.29486-5.89606,3.19525-9.61432,1.19562-1.53278,2.5423-2.60681,3.7536-3.38556l-2.44025-3.43872,4.1571,2.45593Z" />
          <polygon class="e"
            points="30.26953 20.41772 29.44775 21.78125 25.07782 29.03204 18.75897 39.51654 18.87396 39.46429 18.87354 39.46448 21.7431 38.16016 21.74231 38.16046 39.16998 30.23895 39.16998 26.80408 39.16998 21.19873 39.16998 17.81531 39.16998 5.64966 30.26953 20.41772" />
        </g>
        <g>
          <path class="e"
            d="M58.14008,37.1264l1.44043,2.39014-20.41052,12.06482-4.89221-2.89172c-1.35168,.53455-2.48755,1.10199-3.52161,1.78534l8.41382,4.97076,20.42303-12.05853-20.42303,28.76245-12.68127-17.86993c-1.51898,1.79138-3.01788,4.25378-3.45404,7.38062-1.18903,8.52454,6.52362,14.73547,7.03021,15.13068,2.83838,.65918,5.79578,1.00824,8.83472,1.00824,21.4837,0,38.89966-17.41595,38.89966-38.8996,0-7.74359-2.26324-14.95831-6.16345-21.0199-.52802,1.14056-1.36737,2.70776-2.66638,4.37305-1.71271,2.19562-3.7287,3.92615-6.3335,5.56323-2.6922,1.69202-5.44043,2.92273-7.81262,3.80695l3.27197,5.42914,.0448,.07428Z" />
          <path class="f"
            d="M58.09528,37.05212l-3.27197-5.42914-3.95428-6.56134-3.065-5.08563-2.53784-4.21106-6.09619-10.1153V30.23895l7.92175,3.60083,8.75092,3.97772,1.49408,.67914,2.24377,1.0199-1.44043-2.39014" />
        </g>
        <polygon class="g"
          points="59.58051 39.51654 57.33673 38.49664 55.84265 37.8175 47.09174 33.83978 39.16998 30.23895 21.7431 38.16016 18.87354 39.46448 18.75897 39.51654 18.76416 39.51959 26.84631 44.29694 34.27777 48.68964 39.16998 51.58136 59.58051 39.51654" />
      </g>
    </g>
  </g>
</svg>