<svg width="80" height="80" viewBox="0 0 80 80" fill="none" xmlns="http://www.w3.org/2000/svg">
<path d="M31.122 21.0001L40.2756 5.81051L46.5493 16.218C50.869 14.5623 52.8951 13.1122 54.0264 10.7983C54.3453 10.1401 55.1989 8.35069 54.7052 6.2733C53.8207 2.57102 49.388 1.15182 48.7297 0.956421C45.922 0.329091 43.0011 0 40.0082 0C17.9162 0 0 17.9149 0 40.0051C0 44.1702 0.637661 48.181 1.82042 51.9552C2.66378 48.1399 4.62819 42.2059 9.63692 37.4033C14.2857 32.9502 19.8292 31.13 25.7945 29.8547L30.2889 22.3988L31.1323 21.0001H31.122Z" fill="white"/>
<path d="M68.478 11.9088C67.0689 10.4793 65.5466 9.1628 63.9421 7.95947C64.1683 9.54334 64.2301 11.7854 63.1295 13.935C61.2472 17.6066 56.9993 19.0465 50.4268 20.3218C50.0256 20.4041 49.5834 20.4761 49.1514 20.5584L52.309 25.7934C52.5456 25.7522 52.7822 25.7111 53.029 25.6597C53.029 25.6597 57.709 24.7854 63.0678 21.6383C65.7009 20.0956 67.0483 18.8305 67.8506 17.0924C68.7969 15.0457 68.6632 13.0607 68.478 11.9294V11.9088Z" fill="white"/>
<path d="M61.2747 44.6226L40.2715 57.0261V74.2017L61.2747 44.6226Z" fill="#C3C9E4"/>
<path d="M40.2761 57.0261L31.6259 51.9145L23.562 47.1423L19.2832 44.6226L21.7929 48.1605L27.234 55.8227L40.2761 74.2017V57.0261Z" fill="#FEFEFE"/>
<path d="M23.5585 47.1431C23.8567 46.9889 24.1447 46.8449 24.3916 46.7318C25.5537 46.1764 26.6234 45.8165 27.6004 45.5491L19.2903 40.6333C14.5798 43.0295 12.6771 45.3743 11.7103 46.7832C10.8361 48.0687 7.98718 52.6657 8.77912 58.4351C9.19051 61.4072 10.3938 63.4846 11.6795 65.7162C13.8393 69.4493 16.3796 71.9895 18.1692 73.5321H18.1795C17.0584 71.8867 14.4049 67.4953 14.6415 61.5203C14.7135 59.6692 14.9398 55.4527 17.9327 51.6373C19.1668 50.0638 20.545 48.9531 21.7895 48.151L19.28 44.6132L23.5585 47.1431Z" fill="#8696CB"/>
<path d="M31.1191 21.0011L30.2758 22.3998L25.7813 29.8557L19.2812 40.6438L19.3944 40.582L22.3461 39.2451L40.2727 31.1001V27.5624V21.8033V18.3273V5.81152L31.1191 21.0011Z" fill="#8696CB"/>
<path d="M73.6644 18.3882C73.1193 19.5606 72.2554 21.1752 70.9184 22.8824C69.1597 25.1449 67.0821 26.924 64.408 28.6003C61.6414 30.3383 58.8131 31.6033 56.3756 32.5186L59.7387 38.1028C59.7387 38.1028 59.8107 38.0823 59.8416 38.0617C59.821 38.0925 59.8004 38.144 59.7799 38.1748L61.2609 40.6327L40.2694 53.0353L35.2402 50.0632C33.8517 50.6083 32.6792 51.1945 31.6199 51.9041L40.2694 57.0153L61.2712 44.6127L40.2694 74.1897L27.2282 55.812C25.6649 57.6529 24.1222 60.1828 23.68 63.4017C22.4561 72.1637 30.3857 78.5604 30.9102 78.9615C33.8311 79.6403 36.8754 80.0002 39.9918 80.0002C62.0837 80.0002 79.9999 62.0853 79.9999 39.9951C79.9999 32.0352 77.6755 24.6101 73.6644 18.3779V18.3882Z" fill="#8696CB"/>
<path d="M59.7809 38.1854C59.7809 38.1854 59.8221 38.1031 59.8426 38.0722C59.8015 38.0825 59.7706 38.0928 59.7398 38.1134L56.3766 32.5291L52.3141 25.7827L49.1566 20.5481L46.5443 16.2185L40.2705 5.81104V31.0996L48.4161 34.8019L57.4154 38.895L58.9478 39.5943L61.2516 40.6433L59.7706 38.1854H59.7809Z" fill="#C3C9E4"/>
<path d="M61.2661 40.6447L58.9622 39.5957L57.4195 38.8964L48.4202 34.8033L40.2746 31.1011L22.3481 39.2461L19.3963 40.583L19.2832 40.6447L27.6037 45.5605L35.2453 50.0752L40.2746 53.0473L61.2661 40.6447Z" fill="#221536"/>
</svg>
