<svg width="1279" height="213" viewBox="0 0 1279 213" fill="none" xmlns="http://www.w3.org/2000/svg">
<path d="M317.424 96.7717L326.614 126.187M317.424 96.7717L315.426 154.419M317.424 96.7717L355.549 123.908M317.424 96.7717L338.517 126.385M326.614 126.187L338.193 158.881M326.614 126.187L338.517 126.385M326.614 126.187L315.426 154.419M338.193 158.881L338.517 126.385M338.193 158.881L315.426 154.419M338.193 158.881L360.298 183.01M338.517 126.385L355.549 123.908M338.517 126.385L360.298 183.01M315.426 154.419L360.298 183.01M355.549 123.908L360.298 183.01" stroke="url(#paint0_linear_585_2891)" stroke-width="0.216832"/>
<circle cx="326.668" cy="126.386" r="0.964514" transform="rotate(-15.1731 326.668 126.386)" fill="url(#paint1_linear_585_2891)"/>
<circle cx="338.536" cy="126.452" r="0.964514" transform="rotate(-15.1731 338.536 126.452)" fill="url(#paint2_linear_585_2891)"/>
<circle cx="338.139" cy="158.682" r="0.964514" transform="rotate(-15.1731 338.139 158.682)" fill="url(#paint3_linear_585_2891)"/>
<path d="M9.90796 47.6885L15.4525 65.4342M9.90796 47.6885L8.70264 82.466M9.90796 47.6885L32.9078 64.0594M9.90796 47.6885L22.6334 65.5539M15.4525 65.4342L22.4377 85.1577M15.4525 65.4342L22.6334 65.5539M15.4525 65.4342L8.70264 82.466M22.4377 85.1577L22.6334 65.5539M22.4377 85.1577L8.70264 82.466M22.4377 85.1577L35.773 99.714M22.6334 65.5539L32.9078 64.0594M22.6334 65.5539L35.773 99.714M8.70264 82.466L35.773 99.714M32.9078 64.0594L35.773 99.714" stroke="url(#paint4_linear_585_2891)" stroke-width="0.130809"/>
<circle cx="15.4851" cy="65.5546" r="0.581869" transform="rotate(-15.1731 15.4851 65.5546)" fill="url(#paint5_linear_585_2891)"/>
<circle cx="22.6443" cy="65.5941" r="0.581869" transform="rotate(-15.1731 22.6443 65.5941)" fill="url(#paint6_linear_585_2891)"/>
<circle cx="22.4051" cy="85.0372" r="0.581869" transform="rotate(-15.1731 22.4051 85.0372)" fill="url(#paint7_linear_585_2891)"/>
<path d="M917.719 111.98L908.732 137.431M917.719 111.98L884 149.654M917.719 111.98L933.392 147.497M917.719 111.98L972.791 127.51M908.732 137.431L884 149.654M908.732 137.431L933.392 147.497M884 149.654L933.392 147.497M884 149.654L911.536 168.131M884 149.654L913.405 194.445M933.392 147.497L972.791 127.51M933.392 147.497L911.536 168.131M933.392 147.497L953.379 167.196M972.791 127.51L953.379 167.196M972.791 127.51L983 164.967M911.536 168.131L913.405 194.445M953.379 167.196L983 164.967M953.379 167.196L944.464 191.425M953.379 167.196L913.405 194.445M983 164.967L944.464 191.425M983 164.967L961.575 203M944.464 191.425L961.575 203M944.464 191.425L913.405 194.445M961.575 203L913.405 194.445" stroke="url(#paint8_linear_585_2891)" stroke-width="0.215686"/>
<circle cx="953.163" cy="167.196" r="1.29412" fill="url(#paint9_linear_585_2891)"/>
<circle cx="944.536" cy="191.353" r="1.29412" fill="url(#paint10_linear_585_2891)"/>
<circle cx="911.752" cy="168.203" r="1.29412" fill="url(#paint11_linear_585_2891)"/>
<circle cx="933.176" cy="147.497" r="1.29412" fill="url(#paint12_linear_585_2891)"/>
<circle cx="908.588" cy="137.575" r="1.29412" fill="url(#paint13_linear_585_2891)"/>
<path d="M1245.69 105L1241.24 117.597M1245.69 105L1229 123.646M1245.69 105L1253.45 122.579M1245.69 105L1272.95 112.686M1241.24 117.597L1229 123.646M1241.24 117.597L1253.45 122.579M1229 123.646L1253.45 122.579M1229 123.646L1242.63 132.792M1229 123.646L1243.55 145.816M1253.45 122.579L1272.95 112.686M1253.45 122.579L1242.63 132.792M1253.45 122.579L1263.34 132.329M1272.95 112.686L1263.34 132.329M1272.95 112.686L1278 131.226M1242.63 132.792L1243.55 145.816M1263.34 132.329L1278 131.226M1263.34 132.329L1258.93 144.321M1263.34 132.329L1243.55 145.816M1278 131.226L1258.93 144.321M1278 131.226L1267.4 150.05M1258.93 144.321L1267.4 150.05M1258.93 144.321L1243.55 145.816M1267.4 150.05L1243.55 145.816" stroke="url(#paint14_linear_585_2891)" stroke-width="0.106754"/>
<circle cx="1263.23" cy="132.329" r="0.640523" fill="url(#paint15_linear_585_2891)"/>
<circle cx="1258.96" cy="144.286" r="0.640523" fill="url(#paint16_linear_585_2891)"/>
<circle cx="1242.74" cy="132.827" r="0.640523" fill="url(#paint17_linear_585_2891)"/>
<circle cx="1253.34" cy="122.579" r="0.640523" fill="url(#paint18_linear_585_2891)"/>
<circle cx="1241.17" cy="117.668" r="0.640523" fill="url(#paint19_linear_585_2891)"/>
<path d="M984.463 7L972.201 23.3843M984.463 7L961.965 20.0306M984.463 7L994.07 17.2009M972.201 23.3843L961.965 20.0306M972.201 23.3843L984.183 32.5371M972.201 23.3843L975.135 36.9738M961.965 20.0306L954 31.4891M961.965 20.0306L962.384 28.4498M994.07 17.2009L984.183 32.5371M994.07 17.2009L1001.06 32.2227M984.183 32.5371L1001.06 32.2227M984.183 32.5371L978.419 55M984.183 32.5371L975.135 36.9738M1001.06 32.2227L990.786 49.0262L978.419 55M978.419 55L975.135 36.9738M978.419 55L956.376 51.4017M975.135 36.9738L962.384 28.4498M975.135 36.9738L954 31.4891M975.135 36.9738L956.376 51.4017M954 31.4891L962.384 28.4498M954 31.4891L956.376 51.4017" stroke="url(#paint20_linear_585_2891)" stroke-width="0.104803"/>
<circle cx="984.148" cy="32.5722" r="0.628821" fill="url(#paint21_linear_585_2891)"/>
<circle cx="974.996" cy="37.0436" r="0.628821" fill="url(#paint22_linear_585_2891)"/>
<circle cx="972.131" cy="23.4892" r="0.628821" fill="url(#paint23_linear_585_2891)"/>
<circle cx="962.349" cy="28.4499" r="0.628821" fill="url(#paint24_linear_585_2891)"/>
<path d="M219.6 153L209.698 166.231M219.6 153L201.432 163.523M219.6 153L227.358 161.238M209.698 166.231L201.432 163.523M209.698 166.231L219.374 173.622M209.698 166.231L212.068 177.205M201.432 163.523L195 172.776M201.432 163.523L201.771 170.321M227.358 161.238L219.374 173.622M227.358 161.238L233 173.368M219.374 173.622L233 173.368M219.374 173.622L214.719 191.762M219.374 173.622L212.068 177.205M233 173.368L224.706 186.938L214.719 191.762M214.719 191.762L212.068 177.205M214.719 191.762L196.918 188.856M212.068 177.205L201.771 170.321M212.068 177.205L195 172.776M212.068 177.205L196.918 188.856M195 172.776L201.771 170.321M195 172.776L196.918 188.856" stroke="url(#paint25_linear_585_2891)" stroke-width="0.0846325"/>
<circle cx="219.346" cy="173.65" r="0.507795" fill="url(#paint26_linear_585_2891)"/>
<circle cx="211.955" cy="177.261" r="0.507795" fill="url(#paint27_linear_585_2891)"/>
<circle cx="209.641" cy="166.315" r="0.507795" fill="url(#paint28_linear_585_2891)"/>
<circle cx="201.742" cy="170.321" r="0.507795" fill="url(#paint29_linear_585_2891)"/>
<path d="M1109.65 15L1147.52 34.4932M1109.65 15L1121.58 30.9724M1109.65 15L1110.59 51.6679M1109.65 15L1085 95.1198M1147.52 34.4932L1121.58 30.9724M1147.52 34.4932L1110.59 51.6679M1147.52 34.4932L1138.76 55.017M1147.52 34.4932L1202.22 63.1749M1121.58 30.9724L1110.59 51.6679M1110.59 51.6679L1132.66 68.7567M1110.59 51.6679L1085 95.1198M1138.76 55.017L1132.66 68.7567M1138.76 55.017L1202.22 63.1749M1132.66 68.7567L1085 95.1198M1132.66 68.7567L1202.22 63.1749M1085 95.1198L1202.22 63.1749" stroke="url(#paint30_linear_585_2891)" stroke-width="0.25762"/>
<circle cx="1138.93" cy="55.0172" r="1.54572" fill="url(#paint31_linear_585_2891)"/>
<circle cx="1132.57" cy="68.7567" r="1.54572" fill="url(#paint32_linear_585_2891)"/>
<circle cx="1110.76" cy="51.5823" r="1.54572" fill="url(#paint33_linear_585_2891)"/>
<circle cx="1121.58" cy="31.1441" r="1.54572" fill="url(#paint34_linear_585_2891)"/>
<path d="M1113.15 169L1125.68 175.447M1113.15 169L1117.1 174.283M1113.15 169L1113.46 181.128M1113.15 169L1105 195.5M1125.68 175.447L1117.1 174.283M1125.68 175.447L1113.46 181.128M1125.68 175.447L1122.78 182.236M1125.68 175.447L1143.77 184.934M1117.1 174.283L1113.46 181.128M1113.46 181.128L1120.76 186.78M1113.46 181.128L1105 195.5M1122.78 182.236L1120.76 186.78M1122.78 182.236L1143.77 184.934M1120.76 186.78L1105 195.5M1120.76 186.78L1143.77 184.934M1105 195.5L1143.77 184.934" stroke="url(#paint35_linear_585_2891)" stroke-width="0.085209"/>
<circle cx="1122.84" cy="182.236" r="0.511254" fill="url(#paint36_linear_585_2891)"/>
<circle cx="1120.74" cy="186.78" r="0.511254" fill="url(#paint37_linear_585_2891)"/>
<circle cx="1113.52" cy="181.1" r="0.511254" fill="url(#paint38_linear_585_2891)"/>
<circle cx="1117.1" cy="174.34" r="0.511254" fill="url(#paint39_linear_585_2891)"/>
<path d="M35.2267 163L58.6238 175.043M35.2267 163L42.6013 172.868M35.2267 163L35.8103 185.654M35.2267 163L20 212.5M58.6238 175.043L42.6013 172.868M58.6238 175.043L35.8103 185.654M58.6238 175.043L53.2122 187.723M58.6238 175.043L92.4196 192.764M42.6013 172.868L35.8103 185.654M35.8103 185.654L49.4453 196.212M35.8103 185.654L20 212.5M53.2122 187.723L49.4453 196.212M53.2122 187.723L92.4196 192.764M49.4453 196.212L20 212.5M49.4453 196.212L92.4196 192.764M20 212.5L92.4196 192.764" stroke="url(#paint40_linear_585_2891)" stroke-width="0.159164"/>
<circle cx="53.3183" cy="187.724" r="0.954984" fill="url(#paint41_linear_585_2891)"/>
<circle cx="49.3923" cy="196.212" r="0.954984" fill="url(#paint42_linear_585_2891)"/>
<circle cx="35.9164" cy="185.601" r="0.954984" fill="url(#paint43_linear_585_2891)"/>
<circle cx="42.6013" cy="172.974" r="0.954984" fill="url(#paint44_linear_585_2891)"/>
<path d="M166.035 1L177.331 51.3333M166.035 1L183.018 28.5872M166.035 1L154.662 33.3516M166.035 1L125 36.4254M166.035 1L207.992 30.8157M177.331 51.3333L183.018 28.5872M177.331 51.3333L154.662 33.3516M177.331 51.3333L144.288 60.862M177.331 51.3333L163.269 85.2986M177.331 51.3333L192.393 77.5373M183.018 28.5872L192.393 77.5373M183.018 28.5872L207.992 30.8157M154.662 33.3516L125 36.4254M125 36.4254L144.288 60.862M125 36.4254L130.763 86.605M144.288 60.862L163.269 85.2986M130.763 86.605L163.269 85.2986M130.763 86.605L177.331 107.199M163.269 85.2986L177.331 107.199M177.331 107.199L192.393 77.5373M177.331 107.199L219.826 68.4696M192.393 77.5373L219.826 68.4696M192.393 77.5373L207.992 30.8157M219.826 68.4696L207.992 30.8157" stroke="url(#paint45_linear_585_2891)" stroke-width="0.230534"/>
<circle cx="192.47" cy="77.2299" r="1.3832" fill="url(#paint46_linear_585_2891)"/>
<circle cx="163.115" cy="85.0683" r="1.3832" fill="url(#paint47_linear_585_2891)"/>
<circle cx="144.519" cy="60.7853" r="1.3832" fill="url(#paint48_linear_585_2891)"/>
<circle cx="177.254" cy="51.2565" r="1.3832" fill="url(#paint49_linear_585_2891)"/>
<circle cx="182.941" cy="28.5106" r="1.3832" fill="url(#paint50_linear_585_2891)"/>
<circle cx="154.816" cy="33.2748" r="1.3832" fill="url(#paint51_linear_585_2891)"/>
<defs>
<linearGradient id="paint0_linear_585_2891" x1="323.541" y1="95.1127" x2="348.263" y2="186.274" gradientUnits="userSpaceOnUse">
<stop stop-color="#FBAAFF"/>
<stop offset="0.515625" stop-color="#9747FF"/>
<stop offset="1" stop-color="#F89C35"/>
</linearGradient>
<linearGradient id="paint1_linear_585_2891" x1="326.668" y1="125.422" x2="326.668" y2="127.351" gradientUnits="userSpaceOnUse">
<stop stop-color="#FBAAFF"/>
<stop offset="0.515625" stop-color="#9747FF"/>
<stop offset="1" stop-color="#F89C35"/>
</linearGradient>
<linearGradient id="paint2_linear_585_2891" x1="338.536" y1="125.487" x2="338.536" y2="127.416" gradientUnits="userSpaceOnUse">
<stop stop-color="#FBAAFF"/>
<stop offset="0.515625" stop-color="#9747FF"/>
<stop offset="1" stop-color="#F89C35"/>
</linearGradient>
<linearGradient id="paint3_linear_585_2891" x1="338.139" y1="157.717" x2="338.139" y2="159.646" gradientUnits="userSpaceOnUse">
<stop stop-color="#FBAAFF"/>
<stop offset="0.515625" stop-color="#9747FF"/>
<stop offset="1" stop-color="#F89C35"/>
</linearGradient>
<linearGradient id="paint4_linear_585_2891" x1="13.5984" y1="46.6877" x2="28.5125" y2="101.683" gradientUnits="userSpaceOnUse">
<stop stop-color="#FBAAFF"/>
<stop offset="0.515625" stop-color="#9747FF"/>
<stop offset="1" stop-color="#F89C35"/>
</linearGradient>
<linearGradient id="paint5_linear_585_2891" x1="15.4851" y1="64.9727" x2="15.4851" y2="66.1364" gradientUnits="userSpaceOnUse">
<stop stop-color="#FBAAFF"/>
<stop offset="0.515625" stop-color="#9747FF"/>
<stop offset="1" stop-color="#F89C35"/>
</linearGradient>
<linearGradient id="paint6_linear_585_2891" x1="22.6443" y1="65.0122" x2="22.6443" y2="66.176" gradientUnits="userSpaceOnUse">
<stop stop-color="#FBAAFF"/>
<stop offset="0.515625" stop-color="#9747FF"/>
<stop offset="1" stop-color="#F89C35"/>
</linearGradient>
<linearGradient id="paint7_linear_585_2891" x1="22.4051" y1="84.4553" x2="22.4051" y2="85.6191" gradientUnits="userSpaceOnUse">
<stop stop-color="#FBAAFF"/>
<stop offset="0.515625" stop-color="#9747FF"/>
<stop offset="1" stop-color="#F89C35"/>
</linearGradient>
<linearGradient id="paint8_linear_585_2891" x1="933.5" y1="111.98" x2="933.5" y2="203" gradientUnits="userSpaceOnUse">
<stop stop-color="#FBAAFF"/>
<stop offset="0.510417" stop-color="#9747FF"/>
<stop offset="1" stop-color="#F89C35"/>
</linearGradient>
<linearGradient id="paint9_linear_585_2891" x1="953.163" y1="165.902" x2="953.163" y2="168.49" gradientUnits="userSpaceOnUse">
<stop stop-color="#FBAAFF"/>
<stop offset="0.510417" stop-color="#9747FF"/>
<stop offset="1" stop-color="#F89C35"/>
</linearGradient>
<linearGradient id="paint10_linear_585_2891" x1="944.536" y1="190.059" x2="944.536" y2="192.647" gradientUnits="userSpaceOnUse">
<stop stop-color="#FBAAFF"/>
<stop offset="0.510417" stop-color="#9747FF"/>
<stop offset="1" stop-color="#F89C35"/>
</linearGradient>
<linearGradient id="paint11_linear_585_2891" x1="911.752" y1="166.909" x2="911.752" y2="169.497" gradientUnits="userSpaceOnUse">
<stop stop-color="#FBAAFF"/>
<stop offset="0.510417" stop-color="#9747FF"/>
<stop offset="1" stop-color="#F89C35"/>
</linearGradient>
<linearGradient id="paint12_linear_585_2891" x1="933.176" y1="146.203" x2="933.176" y2="148.791" gradientUnits="userSpaceOnUse">
<stop stop-color="#FBAAFF"/>
<stop offset="0.510417" stop-color="#9747FF"/>
<stop offset="1" stop-color="#F89C35"/>
</linearGradient>
<linearGradient id="paint13_linear_585_2891" x1="908.588" y1="136.281" x2="908.588" y2="138.869" gradientUnits="userSpaceOnUse">
<stop stop-color="#FBAAFF"/>
<stop offset="0.510417" stop-color="#9747FF"/>
<stop offset="1" stop-color="#F89C35"/>
</linearGradient>
<linearGradient id="paint14_linear_585_2891" x1="1253.5" y1="105" x2="1253.5" y2="150.05" gradientUnits="userSpaceOnUse">
<stop stop-color="#FBAAFF"/>
<stop offset="0.510417" stop-color="#9747FF"/>
<stop offset="1" stop-color="#F89C35"/>
</linearGradient>
<linearGradient id="paint15_linear_585_2891" x1="1263.23" y1="131.688" x2="1263.23" y2="132.97" gradientUnits="userSpaceOnUse">
<stop stop-color="#FBAAFF"/>
<stop offset="0.510417" stop-color="#9747FF"/>
<stop offset="1" stop-color="#F89C35"/>
</linearGradient>
<linearGradient id="paint16_linear_585_2891" x1="1258.96" y1="143.645" x2="1258.96" y2="144.926" gradientUnits="userSpaceOnUse">
<stop stop-color="#FBAAFF"/>
<stop offset="0.510417" stop-color="#9747FF"/>
<stop offset="1" stop-color="#F89C35"/>
</linearGradient>
<linearGradient id="paint17_linear_585_2891" x1="1242.74" y1="132.187" x2="1242.74" y2="133.468" gradientUnits="userSpaceOnUse">
<stop stop-color="#FBAAFF"/>
<stop offset="0.510417" stop-color="#9747FF"/>
<stop offset="1" stop-color="#F89C35"/>
</linearGradient>
<linearGradient id="paint18_linear_585_2891" x1="1253.34" y1="121.938" x2="1253.34" y2="123.22" gradientUnits="userSpaceOnUse">
<stop stop-color="#FBAAFF"/>
<stop offset="0.510417" stop-color="#9747FF"/>
<stop offset="1" stop-color="#F89C35"/>
</linearGradient>
<linearGradient id="paint19_linear_585_2891" x1="1241.17" y1="117.027" x2="1241.17" y2="118.308" gradientUnits="userSpaceOnUse">
<stop stop-color="#FBAAFF"/>
<stop offset="0.510417" stop-color="#9747FF"/>
<stop offset="1" stop-color="#F89C35"/>
</linearGradient>
<linearGradient id="paint20_linear_585_2891" x1="977.528" y1="7" x2="977.528" y2="55" gradientUnits="userSpaceOnUse">
<stop stop-color="#FBAAFF"/>
<stop offset="0.479167" stop-color="#9747FF"/>
<stop offset="1" stop-color="#F89C35"/>
</linearGradient>
<linearGradient id="paint21_linear_585_2891" x1="984.148" y1="31.9434" x2="984.148" y2="33.201" gradientUnits="userSpaceOnUse">
<stop stop-color="#FBAAFF"/>
<stop offset="0.479167" stop-color="#9747FF"/>
<stop offset="1" stop-color="#F89C35"/>
</linearGradient>
<linearGradient id="paint22_linear_585_2891" x1="974.996" y1="36.4148" x2="974.996" y2="37.6724" gradientUnits="userSpaceOnUse">
<stop stop-color="#FBAAFF"/>
<stop offset="0.479167" stop-color="#9747FF"/>
<stop offset="1" stop-color="#F89C35"/>
</linearGradient>
<linearGradient id="paint23_linear_585_2891" x1="972.131" y1="22.8604" x2="972.131" y2="24.118" gradientUnits="userSpaceOnUse">
<stop stop-color="#FBAAFF"/>
<stop offset="0.479167" stop-color="#9747FF"/>
<stop offset="1" stop-color="#F89C35"/>
</linearGradient>
<linearGradient id="paint24_linear_585_2891" x1="962.349" y1="27.821" x2="962.349" y2="29.0787" gradientUnits="userSpaceOnUse">
<stop stop-color="#FBAAFF"/>
<stop offset="0.479167" stop-color="#9747FF"/>
<stop offset="1" stop-color="#F89C35"/>
</linearGradient>
<linearGradient id="paint25_linear_585_2891" x1="214" y1="153" x2="214" y2="191.762" gradientUnits="userSpaceOnUse">
<stop stop-color="#FBAAFF"/>
<stop offset="0.479167" stop-color="#9747FF"/>
<stop offset="1" stop-color="#F89C35"/>
</linearGradient>
<linearGradient id="paint26_linear_585_2891" x1="219.346" y1="173.143" x2="219.346" y2="174.158" gradientUnits="userSpaceOnUse">
<stop stop-color="#FBAAFF"/>
<stop offset="0.479167" stop-color="#9747FF"/>
<stop offset="1" stop-color="#F89C35"/>
</linearGradient>
<linearGradient id="paint27_linear_585_2891" x1="211.955" y1="176.753" x2="211.955" y2="177.769" gradientUnits="userSpaceOnUse">
<stop stop-color="#FBAAFF"/>
<stop offset="0.479167" stop-color="#9747FF"/>
<stop offset="1" stop-color="#F89C35"/>
</linearGradient>
<linearGradient id="paint28_linear_585_2891" x1="209.641" y1="165.808" x2="209.641" y2="166.823" gradientUnits="userSpaceOnUse">
<stop stop-color="#FBAAFF"/>
<stop offset="0.479167" stop-color="#9747FF"/>
<stop offset="1" stop-color="#F89C35"/>
</linearGradient>
<linearGradient id="paint29_linear_585_2891" x1="201.742" y1="169.813" x2="201.742" y2="170.829" gradientUnits="userSpaceOnUse">
<stop stop-color="#FBAAFF"/>
<stop offset="0.479167" stop-color="#9747FF"/>
<stop offset="1" stop-color="#F89C35"/>
</linearGradient>
<linearGradient id="paint30_linear_585_2891" x1="1143.61" y1="15" x2="1143.61" y2="95.1198" gradientUnits="userSpaceOnUse">
<stop stop-color="#FBAAFF"/>
<stop offset="0.494792" stop-color="#9747FF"/>
<stop offset="1" stop-color="#F89C35"/>
</linearGradient>
<linearGradient id="paint31_linear_585_2891" x1="1138.93" y1="53.4714" x2="1138.93" y2="56.5629" gradientUnits="userSpaceOnUse">
<stop stop-color="#FBAAFF"/>
<stop offset="0.494792" stop-color="#9747FF"/>
<stop offset="1" stop-color="#F89C35"/>
</linearGradient>
<linearGradient id="paint32_linear_585_2891" x1="1132.57" y1="67.2109" x2="1132.57" y2="70.3024" gradientUnits="userSpaceOnUse">
<stop stop-color="#FBAAFF"/>
<stop offset="0.494792" stop-color="#9747FF"/>
<stop offset="1" stop-color="#F89C35"/>
</linearGradient>
<linearGradient id="paint33_linear_585_2891" x1="1110.76" y1="50.0366" x2="1110.76" y2="53.1281" gradientUnits="userSpaceOnUse">
<stop stop-color="#FBAAFF"/>
<stop offset="0.494792" stop-color="#9747FF"/>
<stop offset="1" stop-color="#F89C35"/>
</linearGradient>
<linearGradient id="paint34_linear_585_2891" x1="1121.58" y1="29.5984" x2="1121.58" y2="32.6898" gradientUnits="userSpaceOnUse">
<stop stop-color="#FBAAFF"/>
<stop offset="0.494792" stop-color="#9747FF"/>
<stop offset="1" stop-color="#F89C35"/>
</linearGradient>
<linearGradient id="paint35_linear_585_2891" x1="1124.39" y1="169" x2="1124.39" y2="195.5" gradientUnits="userSpaceOnUse">
<stop stop-color="#FBAAFF"/>
<stop offset="0.494792" stop-color="#9747FF"/>
<stop offset="1" stop-color="#F89C35"/>
</linearGradient>
<linearGradient id="paint36_linear_585_2891" x1="1122.84" y1="181.725" x2="1122.84" y2="182.747" gradientUnits="userSpaceOnUse">
<stop stop-color="#FBAAFF"/>
<stop offset="0.494792" stop-color="#9747FF"/>
<stop offset="1" stop-color="#F89C35"/>
</linearGradient>
<linearGradient id="paint37_linear_585_2891" x1="1120.74" y1="186.269" x2="1120.74" y2="187.292" gradientUnits="userSpaceOnUse">
<stop stop-color="#FBAAFF"/>
<stop offset="0.494792" stop-color="#9747FF"/>
<stop offset="1" stop-color="#F89C35"/>
</linearGradient>
<linearGradient id="paint38_linear_585_2891" x1="1113.52" y1="180.588" x2="1113.52" y2="181.611" gradientUnits="userSpaceOnUse">
<stop stop-color="#FBAAFF"/>
<stop offset="0.494792" stop-color="#9747FF"/>
<stop offset="1" stop-color="#F89C35"/>
</linearGradient>
<linearGradient id="paint39_linear_585_2891" x1="1117.1" y1="173.829" x2="1117.1" y2="174.851" gradientUnits="userSpaceOnUse">
<stop stop-color="#FBAAFF"/>
<stop offset="0.494792" stop-color="#9747FF"/>
<stop offset="1" stop-color="#F89C35"/>
</linearGradient>
<linearGradient id="paint40_linear_585_2891" x1="56.2098" y1="163" x2="56.2098" y2="212.5" gradientUnits="userSpaceOnUse">
<stop stop-color="#FBAAFF"/>
<stop offset="0.494792" stop-color="#9747FF"/>
<stop offset="1" stop-color="#F89C35"/>
</linearGradient>
<linearGradient id="paint41_linear_585_2891" x1="53.3183" y1="186.769" x2="53.3183" y2="188.679" gradientUnits="userSpaceOnUse">
<stop stop-color="#FBAAFF"/>
<stop offset="0.494792" stop-color="#9747FF"/>
<stop offset="1" stop-color="#F89C35"/>
</linearGradient>
<linearGradient id="paint42_linear_585_2891" x1="49.3923" y1="195.257" x2="49.3923" y2="197.167" gradientUnits="userSpaceOnUse">
<stop stop-color="#FBAAFF"/>
<stop offset="0.494792" stop-color="#9747FF"/>
<stop offset="1" stop-color="#F89C35"/>
</linearGradient>
<linearGradient id="paint43_linear_585_2891" x1="35.9164" y1="184.646" x2="35.9164" y2="186.556" gradientUnits="userSpaceOnUse">
<stop stop-color="#FBAAFF"/>
<stop offset="0.494792" stop-color="#9747FF"/>
<stop offset="1" stop-color="#F89C35"/>
</linearGradient>
<linearGradient id="paint44_linear_585_2891" x1="42.6013" y1="172.019" x2="42.6013" y2="173.929" gradientUnits="userSpaceOnUse">
<stop stop-color="#FBAAFF"/>
<stop offset="0.494792" stop-color="#9747FF"/>
<stop offset="1" stop-color="#F89C35"/>
</linearGradient>
<linearGradient id="paint45_linear_585_2891" x1="172.413" y1="1" x2="172.413" y2="107.199" gradientUnits="userSpaceOnUse">
<stop stop-color="#FBAAFF"/>
<stop offset="0.458333" stop-color="#9747FF"/>
<stop offset="1" stop-color="#F89C35"/>
</linearGradient>
<linearGradient id="paint46_linear_585_2891" x1="192.47" y1="75.8467" x2="192.47" y2="78.6131" gradientUnits="userSpaceOnUse">
<stop stop-color="#FBAAFF"/>
<stop offset="0.458333" stop-color="#9747FF"/>
<stop offset="1" stop-color="#F89C35"/>
</linearGradient>
<linearGradient id="paint47_linear_585_2891" x1="163.115" y1="83.6851" x2="163.115" y2="86.4515" gradientUnits="userSpaceOnUse">
<stop stop-color="#FBAAFF"/>
<stop offset="0.458333" stop-color="#9747FF"/>
<stop offset="1" stop-color="#F89C35"/>
</linearGradient>
<linearGradient id="paint48_linear_585_2891" x1="144.519" y1="59.4021" x2="144.519" y2="62.1685" gradientUnits="userSpaceOnUse">
<stop stop-color="#FBAAFF"/>
<stop offset="0.458333" stop-color="#9747FF"/>
<stop offset="1" stop-color="#F89C35"/>
</linearGradient>
<linearGradient id="paint49_linear_585_2891" x1="177.254" y1="49.8733" x2="177.254" y2="52.6397" gradientUnits="userSpaceOnUse">
<stop stop-color="#FBAAFF"/>
<stop offset="0.458333" stop-color="#9747FF"/>
<stop offset="1" stop-color="#F89C35"/>
</linearGradient>
<linearGradient id="paint50_linear_585_2891" x1="182.941" y1="27.1274" x2="182.941" y2="29.8938" gradientUnits="userSpaceOnUse">
<stop stop-color="#FBAAFF"/>
<stop offset="0.458333" stop-color="#9747FF"/>
<stop offset="1" stop-color="#F89C35"/>
</linearGradient>
<linearGradient id="paint51_linear_585_2891" x1="154.816" y1="31.8916" x2="154.816" y2="34.658" gradientUnits="userSpaceOnUse">
<stop stop-color="#FBAAFF"/>
<stop offset="0.458333" stop-color="#9747FF"/>
<stop offset="1" stop-color="#F89C35"/>
</linearGradient>
</defs>
</svg>
