<?xml version="1.0" encoding="UTF-8"?>
<svg id="b" data-name="Layer 2" xmlns="http://www.w3.org/2000/svg" width="80" height="80"
  viewBox="0 0 73.78474 73.78474">
  <defs>
    <style>
      .e {
        fill: #fff;
      }

      .f {
        fill: #ed2139;
      }

      .g {
        fill: #f7941f;
      }
    </style>
  </defs>
  <g id="c" data-name="Orbital">
    <g id="d" data-name="Obond">
      <g>
        <g>
          <path class="g"
            d="M36.10136,33.45664l-.11833,.47435c2.27763,.56768,9.29873,2.88302,10.43616-1.67432h.00035c.05112-.205,.06617-.39425,.08667-.58576-.09835,.02379-.19747,.04775-.27912,.06712-4.25987,1.01141-7.46059,1.46326-10.12573,1.7186Z" />
          <path class="g"
            d="M32.97217,46.00323l-.21832,.87535c2.73494,.67909,11.17069,3.38747,12.41754-1.62276h.00017c.26883-1.07818,.09246-1.98363-.35498-2.76011-1.15836,.31606-2.42139,.64103-3.82376,1.03874-3.44179,.97585-5.9802,1.70009-8.02066,2.46879Z" />
          <path class="g"
            d="M67.9393,16.95715c-.50073,1.08173-1.29676,2.56808-2.52873,4.14743-1.62432,2.08232-3.53633,3.72351-6.00667,5.27612-1.76462,1.10906-3.55596,2.00966-5.23746,2.73796,.31113,.94826,.40281,2.01061,.22333,3.21067l.00017-.00043,.0013,.00095c-.21685,1.46698-.68843,2.60943-1.33845,3.50614-.9371,1.29261-2.25644,2.05862-3.81303,2.41758,.81575,.4247,1.53514,.90406,2.14944,1.44372,2.11156,1.85475,2.91658,4.45994,1.55746,8.34096-2.17747,6.223-7.35074,6.74803-14.23077,5.44591l-1.66947,6.69155-4.03489-1.00535,1.64785-6.60168c-1.04592-.25992-2.11441-.53559-3.21534-.83443l-1.65347,6.63291-4.03005-1.00535,1.66964-6.70409c-.41017-.10483-.83564-.21451-1.25169-.32298-1.73348,1.72085-3.81623,4.44402-4.33236,8.14392-1.12774,8.08467,6.18693,13.97509,6.66742,14.34988,2.69195,.6252,5.49669,.95622,8.37884,.95622,20.37506,0,36.89237-16.51731,36.89237-36.89237,0-7.344-2.14641-14.1864-5.84544-19.93522Z" />
          <path class="g"
            d="M20.65808,36.1754c-6.49166,2.63797-8.78858,5.41625-9.84877,6.98071-.80528,1.18838-3.43392,5.42022-2.7057,10.74167,.37479,2.73874,1.48679,4.65559,2.67863,6.71015,1.99548,3.4398,4.33781,5.78368,5.98133,7.20387,.00337,.00216,.00657,.0045,.00986,.00666-1.0377-1.52502-3.48132-5.57384-3.25841-11.0797,.06911-1.70589,.27973-5.59183,3.03041-9.11822,2.0568-2.63676,4.60188-3.8779,5.95261-4.51858,1.54033-.73064,2.88025-1.09868,4.09233-1.35644l1.91209-7.66594c-2.33221,.29063-4.71346,.82353-7.84438,2.09581Z" />
          <path class="g"
            d="M34.96946,37.99676l-.55064,2.20731c1.72414-.35637,3.44966-.70529,5.17925-1.03242-1.82456-.58403-3.62957-.92543-4.62861-1.17488Z" />
          <path class="f"
            d="M28.58584,26.59719c5.92009-1.09375,10.418-1.09228,20.31987-2.94928,0,0,4.31852-.80987,9.2535-3.70681,2.4309-1.42693,3.6704-2.58867,4.41038-4.19388,.86843-1.8839,.74577-3.72126,.58186-4.76536-1.29978-1.31708-2.69895-2.53548-4.18341-3.64618,.21313,1.45816,.26451,3.53235-.74794,5.50966-1.73201,3.38297-5.65108,4.70957-11.70896,5.88497-4.95556,.96158-11.80999,1.89947-20.24436,1.94341l.17247-.69241c-.00199,.00052-.00407,.00104-.00605,.00156,3.7626-1.00907,7.03339-1.96235,9.70155-2.77455,8.971-2.73061,12.17726-4.16568,13.69095-7.25127,.29729-.60608,1.08078-2.26128,.6226-4.17242-.81947-3.418-4.90782-4.72557-5.51087-4.90168-2.58997-.57633-5.28148-.88296-8.04505-.88296C16.51731,0,0,16.51731,0,36.89237c0,3.84036,.59112,7.54164,1.68011,11.02287,.78141-3.52024,2.58668-8.99037,7.2082-13.41744,5.51191-5.28001,12.39445-6.55143,19.69753-7.9006Z" />
        </g>
        <path class="e"
          d="M53.05274,35.83605l.00005-.00005c.65007-.89671,1.1216-2.0392,1.33846-3.50615l-.00127-.00098-.0002,.00044c.17951-1.20006,.08782-2.26242-.22332-3.21069-3.3752,1.46181-6.29617,2.22248-7.6602,2.55229-.02053,.19152-.03558,.38073-.08669,.58572h-.00034c-1.13743,4.55738-8.15855,2.24203-10.43616,1.67434l.1183-.47433,1.89041-7.58091,.00025,.00005,.14305-.57352v.00005c2.74273-.33354,5.91857-.76606,10.04416-1.52198-.60224-.25723-1.22261-.50359-1.87679-.72892l1.12479-4.51166,.52775-2.11648-4.03473-1.00536-.98061,3.93397-.62806,2.51965c-1.02923-.25665-2.08585-.49839-3.13669-.73833-.0322-.00735-.06386-.01524-.09595-.02259l.31295-1.25471,.99698-3.9967,.31041-1.24476-4.03218-1.00536-.92798,3.71869-.72544,2.90724c-.87775-.1999-1.73987-.39739-2.5763-.60547l.0047-.02088-2.4336-.60773-3.13042-.78165-.4388,1.76202-.17245,.69241-.46198,1.85483s2.99339,.68618,2.93032,.72848c1.63382,.40773,1.92932,1.4893,1.88017,2.34656-.70427,2.8253-1.40849,5.65066-2.11285,8.47596l-1.91207,7.66594c.54862-.11668,1.07931-.21857,1.57604-.30756,2.09104-.37455,4.17185-.80385,6.2524-1.23388l.55063-2.20734c.99904,.24949,2.80408,.59087,4.62863,1.17492,2.13946,.68486,4.28971,1.71228,5.21852,3.32404,.44743,.7765,.6238,1.68194,.35495,2.76013h-.00015c-1.24686,5.0102-9.68264,2.30182-12.41758,1.62274l.21832-.87525c-1.89355,.71343-3.35986,1.46499-4.68396,2.49657-.44944,.3501-1.23603,.96743-2.10972,1.83484,.41606,.10845,.84153,.21813,1.25167,.32295l-1.66964,6.70409,4.03007,1.00536,1.65347-6.63289c1.10092,.29884,2.16941,.5745,3.21534,.83443l-1.64788,6.60167,4.03492,1.00536,1.66944-6.69155c6.88003,1.30209,12.05331,.77709,14.2308-5.44591,1.35909-3.88104,.55406-6.48621-1.55747-8.34095-.61429-.53966-1.3337-1.01903-2.14946-1.44372,1.55658-.35897,2.87583-1.12489,3.81297-2.41752Z" />
      </g>
    </g>
  </g>
</svg>