<svg width="80" height="80" viewBox="0 0 80 80" fill="none" xmlns="http://www.w3.org/2000/svg">
<path d="M39.1571 36.2503L39.0264 36.7644C41.5016 37.3831 49.1279 39.8927 50.3568 34.9432C50.4093 34.7348 50.4414 34.5218 50.4527 34.3071L50.1476 34.3856C46.5328 35.2661 42.8601 35.8893 39.1571 36.2503Z" fill="#F7941F"/>
<path d="M35.7645 49.8609L35.5205 50.8107C38.4926 51.5514 47.6528 54.488 49.0037 49.0679C49.1406 48.5691 49.1772 48.0482 49.1113 47.5351C49.0455 47.0221 48.8786 46.5272 48.6202 46.0791C47.3565 46.4189 46.0055 46.7675 44.4628 47.2032C40.7325 48.2488 37.9783 49.0331 35.7645 49.8609Z" fill="#F7941F"/>
<path d="M73.7243 18.3848C72.9822 19.9825 72.0611 21.4909 70.9789 22.8811C69.1625 25.1665 66.9516 27.1083 64.4508 28.6148C62.6351 29.7487 60.7353 30.742 58.7681 31.5862C59.1244 32.7124 59.208 33.907 59.0122 35.0718C58.8429 36.4376 58.3434 37.7416 57.5566 38.871C56.5532 40.2263 55.08 41.1585 53.4254 41.4852C54.2607 41.9137 55.0419 42.4402 55.7525 43.0536C58.0447 45.0665 58.925 47.8985 57.4433 52.1073C55.0814 58.8606 49.4685 59.427 41.9991 58.0153L40.2124 65.2478L35.8545 64.1499L37.5976 56.9871C36.4559 56.7082 35.2967 56.4033 34.1114 56.1157L32.3159 63.3133L27.958 62.2241L29.7535 54.9132L28.3938 54.5646C25.8832 56.9075 24.2165 60.0135 23.6525 63.4005C22.4236 72.1753 30.3636 78.5713 30.8865 78.9721C38.6414 80.7625 46.7538 80.2047 54.1905 77.3699C61.6272 74.5351 68.0518 69.5515 72.6459 63.0538C77.2401 56.5561 79.7959 48.8383 79.9879 40.8834C80.18 32.9286 77.9996 25.0965 73.7243 18.3848Z" fill="#F7941F"/>
<path d="M22.3962 39.1937C15.3451 42.0606 12.8089 45.0756 11.702 46.7748C9.35391 50.1954 8.31167 54.3449 8.76477 58.4688C9.21124 61.0722 10.2033 63.5518 11.6758 65.7448C13.3854 68.7042 15.5804 71.3553 18.169 73.5873C15.7412 70.06 14.5017 65.8507 14.6305 61.5709C14.6435 58.0042 15.798 54.5353 17.925 51.672C19.6519 49.5413 21.8673 47.8584 24.3834 46.7661C25.8143 46.0756 27.3248 45.5634 28.8807 45.2412L30.955 36.9194C28.0114 37.2822 25.1315 38.0474 22.3962 39.1937Z" fill="#F7941F"/>
<path d="M37.9286 41.1719L37.3359 43.5682C39.2011 43.1848 41.075 42.8014 42.9576 42.4528C40.9704 41.8167 39.0181 41.442 37.9286 41.1719Z" fill="#F7941F"/>
<path d="M31.0011 28.8418C37.4333 27.648 42.3315 27.648 53.0606 25.6351C56.5965 24.8277 59.9843 23.4723 63.1011 21.618C65.7158 20.0669 67.0929 18.8034 67.8947 17.0607C68.6104 15.4382 68.8288 13.6399 68.5223 11.8934C67.1105 10.4595 65.5926 9.13414 63.9814 7.92856C64.3398 9.95691 64.0565 12.0465 63.1708 13.9063C61.2882 17.5748 57.0698 19.0126 50.4633 20.2935C43.2171 21.6731 35.8586 22.379 28.4822 22.4023L28.674 21.6529C32.7616 20.5549 36.3089 19.518 39.2026 18.6379C48.9467 15.6752 52.4243 14.1154 54.0716 10.7954C54.8151 9.40884 55.0523 7.8067 54.7427 6.26422C53.8711 2.56084 49.4174 1.14048 48.7637 0.948775C41.91 -0.569182 34.7779 -0.261411 28.0805 1.8413C21.3832 3.94402 15.3554 7.76796 10.6001 12.9307C5.84482 18.0934 2.52871 24.4139 0.983441 31.2601C-0.561829 38.1062 -0.282091 45.238 1.79468 51.9422C2.91552 46.4212 5.64473 41.3551 9.63883 37.3813C15.6004 31.6476 23.0785 30.2708 31.0011 28.8418Z" fill="#F7941F"/>
<path d="M57.559 38.8306C58.3457 37.7013 58.8453 36.3972 59.0145 35.0314C59.2104 33.8666 59.1267 32.672 58.7705 31.5459C56.083 32.7027 53.3012 33.6269 50.4557 34.3081C50.4445 34.5228 50.4123 34.7358 50.3598 34.9443C49.1309 39.8937 41.5046 37.3841 39.0294 36.7654L39.1601 36.2513L41.217 28.0255L41.3739 27.3981C44.346 27.0408 47.7974 26.5267 52.2686 25.7512C51.6149 25.4723 50.9438 25.2022 50.2378 24.9582L51.458 20.061L52.0332 17.7606L47.6754 16.6713L46.612 20.9411L45.9322 23.6773C44.8079 23.3984 43.6661 23.137 42.5244 22.8756H42.4198L42.7597 21.5162L43.8405 17.1593L44.1542 15.7738L39.7964 14.6846L38.7853 18.7191L37.9835 21.8735C37.0248 21.6556 36.0922 21.4465 35.1857 21.22L32.571 20.5577L29.1806 19.6863L28.7012 21.6034L28.5095 22.3528L28.0127 24.3918C28.0127 24.3918 31.2637 25.1325 31.1939 25.1847C31.8012 25.2549 32.3564 25.5611 32.7397 26.0373C33.1229 26.5134 33.3034 27.1211 33.2421 27.7292C32.4519 30.7965 31.6762 33.8608 30.915 36.9223L28.8843 45.244C29.4769 45.122 30.0522 45.0087 30.6274 44.9129C32.8935 44.5033 35.1596 44.0415 37.417 43.571L38.0096 41.1747C39.0991 41.4448 41.0514 41.8195 43.0386 42.4556C45.357 43.1963 47.6928 44.3116 48.7038 46.0631C48.9622 46.5112 49.1291 47.0061 49.1949 47.5191C49.2607 48.0322 49.2242 48.5532 49.0873 49.052C47.7364 54.4894 38.5762 51.5528 35.6041 50.7947L35.8481 49.8449C34.0223 50.4816 32.3055 51.3956 30.7582 52.5549C29.955 53.1738 29.1895 53.8402 28.4659 54.5504L29.8256 54.899L28.0127 62.175L32.3706 63.2642L34.1137 56.084C35.3078 56.4064 36.4669 56.7114 37.6 56.9554L35.8046 64.1182L40.1624 65.2161L41.9753 57.9488C49.4447 59.3604 55.0489 58.8202 57.4195 52.0408C58.9012 47.832 58.0209 45 55.7287 42.9871C55.0181 42.3737 54.2369 41.8471 53.4016 41.4186C55.0618 41.1047 56.5447 40.1816 57.559 38.8306Z" fill="white"/>
</svg>
