<?xml version="1.0" encoding="UTF-8"?>
<svg id="b" data-name="Layer 2" xmlns="http://www.w3.org/2000/svg" width="80" height="80"
  viewBox="0 0 52.06514 52.06514">
  <defs>
    <style>
      .e {
        fill: none;
      }

      .f {
        fill: #ee1e38;
      }
    </style>
  </defs>
  <g id="c" data-name="$PBOND">
    <g id="d" data-name="Logo">
      <g>
        <path class="e"
          d="M15.41537,41.2646c.54772-3.92666,3.59948-6.30413,4.5458-7.04136,1.9411-1.5122,4.28234-2.17607,8.96481-3.50381,3.87046-1.09749,6.2721-1.41081,8.39024-3.62723,.81601-.85389,1.32535-1.71334,1.63241-2.31973-4.22178,1.49166-7.68236,2.26275-10.08082,2.69204-3.0076,.53831-5.98501,1.23694-8.99255,1.7756-1.12496,.20148-2.42095,.42526-3.99988,1.17419-.95308,.45207-2.749,1.32784-4.20033,3.18844-1.94102,2.48835-2.08961,5.23041-2.13836,6.43416-.15733,3.88512,1.56698,6.7421,2.29926,7.81823,2.49781,1.62827,5.29163,2.8403,8.2842,3.53528-.33903-.26446-5.50053-4.42099-4.70478-10.12581Z" />
        <path class="e"
          d="M7.60835,42.76711c-.84101-1.44974-1.62568-2.80238-1.89015-4.73493-.51388-3.75497,1.341-6.74114,1.90924-7.5797,.74808-1.10395,2.36886-3.06439,6.94966-4.92586,6.43633-2.6155,8.39054-.83955,18.04238-3.13116,1.25484-.29793,5.37314-1.31359,9.29803-3.78031,1.74319-1.09556,3.09233-2.25367,4.23852-3.72303,.86933-1.11444,1.43106-2.16325,1.78441-2.92657-.97911-1.52169-2.11309-2.93398-3.37853-4.21634,.11571,.73674,.20225,2.03323-.41058,3.3626-.52214,1.13264-1.39674,1.95241-3.11208,2.95933-3.48231,2.04418-6.5296,2.61567-6.52962,2.61567-6.9871,1.31037-10.16099,1.30934-14.33844,2.08108-5.15332,.95202-10.00987,1.84922-13.89931,5.57499-3.2611,3.12388-4.53497,6.98383-5.08636,9.46782,1.82235,5.82575,5.63444,10.7721,10.64345,14.03971-1.15972-1.00215-2.81256-2.65604-4.22062-5.0833Z" />
        <path class="e"
          d="M35.5981,4.08181c.32332,1.34856-.22955,2.51655-.43933,2.94421-1.06809,2.17734-3.33054,3.18993-9.66079,5.11678-2.30695,.70221-5.24298,1.55289-8.68707,2.44384,6.75469,.10603,12.17795-.62654,16.00903-1.36989,4.27466-.82941,7.04007-1.76546,8.26226-4.1526,.71439-1.39532,.67814-2.85889,.52777-3.88785-2.89382-2.16522-6.2529-3.74161-9.90054-4.55328,.42556,.12429,3.31044,1.04697,3.88867,3.45879Z" />
        <path class="f"
          d="M6.27187,24.34288c3.88943-3.72577,8.74599-4.62297,13.89931-5.57499,4.17745-.77174,7.35134-.77072,14.33844-2.08108,.00002,0,3.04731-.57149,6.52962-2.61567,1.71533-1.00692,2.58994-1.82669,3.11208-2.95933,.61282-1.32937,.52629-2.62586,.41058-3.3626-.91714-.9294-1.90445-1.78917-2.95193-2.57291,.15037,1.02896,.18662,2.49253-.52777,3.88785-1.22219,2.38714-3.9876,3.3232-8.26226,4.1526-3.83108,.74334-9.25434,1.47592-16.00903,1.36989,3.44409-.89095,6.38012-1.74163,8.68707-2.44384,6.33025-1.92685,8.5927-2.93944,9.66079-5.11678,.20979-.42766,.76265-1.59565,.43933-2.94421-.57822-2.41183-3.4631-3.3345-3.88867-3.45879-1.82753-.40666-3.72677-.62302-5.67686-.62302C11.65518,0,0,11.65518,0,26.03257c0,2.70988,.41709,5.32164,1.18551,7.77813,.5514-2.48399,1.82527-6.34395,5.08636-9.46782Z" />
        <path class="f"
          d="M47.94043,11.96554c-.35334,.76332-.91507,1.81212-1.78441,2.92657-1.14619,1.46936-2.49533,2.62748-4.23852,3.72303-3.92489,2.46672-8.04319,3.48238-9.29803,3.78031-9.65184,2.29162-11.60604,.51566-18.04238,3.13116-4.5808,1.86147-6.20157,3.82191-6.94966,4.92586-.56824,.83856-2.42312,3.82473-1.90924,7.5797,.26447,1.93255,1.04915,3.28519,1.89015,4.73493,1.40806,2.42727,3.0609,4.08115,4.22062,5.0833,.00235,.00153,.00463,.00318,.00698,.00471-.73228-1.07612-2.45659-3.9331-2.29926-7.81823,.04875-1.20375,.19734-3.94582,2.13836-6.43416,1.45133-1.8606,3.24725-2.73637,4.20033-3.18844,1.57893-.74893,2.87492-.97271,3.99988-1.17419,3.00753-.53865,5.98495-1.23729,8.99255-1.7756,2.39847-.42929,5.85904-1.20038,10.08082-2.69204-.30705,.60639-.81639,1.46585-1.63241,2.31973-2.11814,2.21642-4.51978,2.52974-8.39024,3.62723-4.68247,1.32773-7.0237,1.9916-8.96481,3.50381-.94632,.73723-3.99809,3.1147-4.5458,7.04136-.79575,5.70482,4.36575,9.86135,4.70478,10.12581,1.89953,.44115,3.87867,.67474,5.91243,.67474,14.37739,0,26.03257-11.65518,26.03257-26.03257,0-5.1822-1.51461-10.01046-4.12472-14.06703Z" />
      </g>
    </g>
  </g>
</svg>