<svg width="80" height="80" viewBox="0 0 80 80" fill="none" xmlns="http://www.w3.org/2000/svg">
<path d="M9.62102 37.395C15.596 31.6604 23.0454 30.2921 30.9711 28.8161C37.3914 27.6323 42.2605 27.6323 52.9969 25.6183C56.5283 24.8108 59.9123 23.457 63.0268 21.6056C65.0765 20.6271 66.753 19.0083 67.8037 16.9933C68.4822 15.3828 68.6848 13.6113 68.3874 11.889C66.9475 10.459 65.4076 9.13341 63.7795 7.92245C64.1315 9.9523 63.8471 12.0414 62.9654 13.9031C61.0915 17.5775 56.8215 19.0073 50.2782 20.2834C42.1826 21.8445 33.9456 22.5505 25.7027 22.3897C30.9864 21.0214 35.5022 19.7145 39.0349 18.6383C48.773 15.6711 52.2443 14.1183 53.8878 10.7667C54.6314 9.38453 54.8704 7.78615 54.5636 6.24665C53.6728 2.54144 49.2338 1.11164 48.5887 0.927144C41.7474 -0.572163 34.6329 -0.248602 27.9557 1.86551C21.2785 3.97962 15.2723 7.81029 10.5369 12.9749C5.80159 18.1396 2.50288 24.4574 0.970262 31.2974C-0.56236 38.1374 -0.275253 45.2602 1.80291 51.9545C2.91593 46.4352 5.63625 41.3692 9.62102 37.395Z" fill="white"/>
<path d="M73.6253 18.3613C72.8799 19.961 71.9577 21.472 70.8759 22.866C69.0721 25.1543 66.8648 27.0927 64.3634 28.5852C59.9464 31.2704 55.1294 33.2323 50.0942 34.3967C35.2567 37.9174 32.2616 35.1962 22.3084 39.2243C15.2737 42.0993 12.7854 45.1126 11.6334 46.8038C9.30072 50.2145 8.26544 54.3487 8.71508 58.4575C9.1517 61.0615 10.1417 63.5414 11.6181 65.7296C13.3242 68.6839 15.5155 71.3295 18.0999 73.5551C15.6984 70.0116 14.4829 65.7964 14.6286 61.517C14.6449 57.9556 15.7964 54.4923 17.9156 51.6313C19.6415 49.5019 21.8542 47.8197 24.3667 46.7269C26.3169 45.8329 28.3864 45.227 30.5105 44.9281C35.1185 44.0979 39.7264 43.0217 44.3343 42.1915C49.6036 41.2348 54.7866 39.8517 59.8323 38.0558C59.1746 39.3636 58.3256 40.5658 57.3133 41.6227C54.0724 45.0358 50.3707 45.5124 44.4265 47.2035C37.2381 49.2329 33.6747 50.2784 30.6027 52.5845C29.0667 53.7222 24.4588 57.3659 23.614 63.3465C22.4006 72.1253 30.3262 78.5056 30.8485 78.9207C38.6008 80.7611 46.726 80.2383 54.1792 77.4196C61.6324 74.6009 68.0729 69.6152 72.6725 63.1034C77.2722 56.5916 79.8208 48.8515 79.9906 40.8783C80.1604 32.9051 77.9436 25.0634 73.6253 18.3613Z" fill="white"/>
</svg>
