<?xml version="1.0" encoding="UTF-8"?><svg width="80" height="80" viewBox="0 0 80 80" fill="none"
    xmlns="http://www.w3.org/2000/svg">
    <defs>
        <style>
            .cls-1 {
                fill: #d7e030;
            }

            .cls-2 {
                fill: none;
            }

            .cls-3 {
                fill: #a3d7ba;
            }
        </style>
    </defs>
    <g id="Tripolar">
        <path class="cls-2"
            d="M23.69,63.4c.84-6.03,5.53-9.69,6.98-10.82,2.98-2.32,6.58-3.34,13.77-5.38,5.95-1.69,9.64-2.17,12.89-5.57,1.25-1.31,2.04-2.63,2.51-3.56-6.49,2.29-11.8,3.48-15.49,4.14-4.62,.83-9.2,1.9-13.82,2.73-1.73,.31-3.72,.65-6.15,1.8-1.46,.69-4.22,2.04-6.45,4.9-2.98,3.82-3.21,8.04-3.29,9.89-.24,5.97,2.41,10.36,3.53,12.01,3.84,2.5,8.13,4.36,12.73,5.43-.52-.41-8.45-6.79-7.23-15.56Z" />
        <path class="cls-2"
            d="M11.69,65.71c-1.29-2.23-2.5-4.31-2.9-7.28-.79-5.77,2.06-10.36,2.93-11.65,1.15-1.7,3.64-4.71,10.68-7.57,9.89-4.02,12.89-1.29,27.72-4.81,1.93-.46,8.26-2.02,14.29-5.81,2.68-1.68,4.75-3.46,6.51-5.72,1.34-1.71,2.2-3.32,2.74-4.5-1.5-2.34-3.25-4.51-5.19-6.48,.18,1.13,.31,3.12-.63,5.17-.8,1.74-2.15,3-4.78,4.55-5.35,3.14-10.03,4.02-10.03,4.02-10.74,2.01-15.61,2.01-22.03,3.2-7.92,1.46-15.38,2.84-21.36,8.57-5.01,4.8-6.97,10.73-7.82,14.55,2.8,8.95,8.66,16.55,16.35,21.57-1.78-1.54-4.32-4.08-6.49-7.81Z" />
        <path class="cls-2"
            d="M54.7,6.27c.5,2.07-.35,3.87-.68,4.52-1.64,3.35-5.12,4.9-14.84,7.86-3.54,1.08-8.06,2.39-13.35,3.76,10.38,.16,18.71-.96,24.6-2.1,6.57-1.27,10.82-2.71,12.7-6.38,1.1-2.14,1.04-4.39,.81-5.97-4.45-3.33-9.61-5.75-15.21-7,.65,.19,5.09,1.61,5.98,5.31Z" />
        <path class="cls-1"
            d="M9.64,37.4c5.98-5.72,13.44-7.1,21.36-8.57,6.42-1.19,11.3-1.18,22.03-3.2,0,0,4.68-.88,10.03-4.02,2.64-1.55,3.98-2.81,4.78-4.55,.94-2.04,.81-4.03,.63-5.17-1.41-1.43-2.93-2.75-4.54-3.95,.23,1.58,.29,3.83-.81,5.97-1.88,3.67-6.13,5.11-12.7,6.38-5.89,1.14-14.22,2.27-24.6,2.1,5.29-1.37,9.8-2.68,13.35-3.76,9.73-2.96,13.2-4.52,14.84-7.86,.32-.66,1.17-2.45,.68-4.52-.89-3.71-5.32-5.12-5.98-5.31-2.81-.62-5.73-.96-8.72-.96C17.91,0,0,17.91,0,40c0,4.16,.64,8.18,1.82,11.95,.85-3.82,2.8-9.75,7.82-14.55Z" />
        <path class="cls-3"
            d="M73.66,18.39c-.54,1.17-1.41,2.78-2.74,4.5-1.76,2.26-3.83,4.04-6.51,5.72-6.03,3.79-12.36,5.35-14.29,5.81-14.83,3.52-17.83,.79-27.72,4.81-7.04,2.86-9.53,5.87-10.68,7.57-.87,1.29-3.72,5.88-2.93,11.65,.41,2.97,1.61,5.05,2.9,7.28,2.16,3.73,4.7,6.27,6.49,7.81,0,0,0,0,.01,0-1.13-1.65-3.77-6.04-3.53-12.01,.07-1.85,.3-6.06,3.29-9.89,2.23-2.86,4.99-4.2,6.45-4.9,2.43-1.15,4.42-1.49,6.15-1.8,4.62-.83,9.2-1.9,13.82-2.73,3.69-.66,9-1.84,15.49-4.14-.47,.93-1.25,2.25-2.51,3.56-3.25,3.41-6.94,3.89-12.89,5.57-7.19,2.04-10.79,3.06-13.77,5.38-1.45,1.13-6.14,4.79-6.98,10.82-1.22,8.77,6.71,15.15,7.23,15.56,2.92,.68,5.96,1.04,9.08,1.04,1.26,0,8.96-.09,16.73-3.66v-18.43h-6.24c-1.57,.18-2.88-1.04-2.87-2.38,0-1.15,.97-2.23,2.29-2.38h19.36c1.32,.16,2.28,1.22,2.31,2.32,.03,1.33-1.3,2.62-2.94,2.43l-6.22,.02v15.11c11.49-8.14,17.57-22.34,17.58-33.04,0-6.04-1.77-11.79-6.34-21.61Z" />
    </g>
</svg>