<svg width="80" height="80" viewBox="0 0 80 80" fill="none" xmlns="http://www.w3.org/2000/svg">
<path d="M9.6369 37.3948C15.6158 31.6619 23.0855 30.2939 31.001 28.8338C37.4256 27.6503 42.2978 27.6503 53.0414 25.6369C53.0414 25.6369 57.7292 24.7608 63.0779 21.61C65.7215 20.0576 67.0587 18.7973 67.8579 17.0605C68.7955 15.0163 68.6725 13.0182 68.4881 11.8963C67.074 10.4669 65.5678 9.14505 63.954 7.9462C64.1845 9.5293 64.246 11.7733 63.1394 13.9251C61.2642 17.5985 57.0068 19.0279 50.4439 20.3036C44.5572 21.4409 36.2267 22.5783 25.8367 22.4092C31.124 21.0413 35.6427 19.7349 39.1931 18.659C48.9222 15.6926 52.3958 14.1402 54.0404 10.7896C54.3632 10.1287 55.2085 8.33045 54.7167 6.27089C53.8252 2.56676 49.3987 1.15274 48.7378 0.952931C45.9251 0.322768 43.0048 0 40.0077 0C17.9059 0 0 17.9212 0 40.0077C0 44.1729 0.645535 48.1844 1.82901 51.9654C2.67436 48.1537 4.6417 42.2209 9.65227 37.4102L9.6369 37.3948Z" fill="#3774BA"/>
<path d="M73.683 18.3672C73.145 19.5353 72.2689 21.1491 70.9471 22.8706C69.1796 25.1299 67.1046 26.9128 64.4303 28.5881C58.4053 32.3845 52.0729 33.9368 50.1363 34.3979C35.3044 37.9176 32.2919 35.1972 22.4091 39.2087C15.3697 42.0675 12.8798 45.08 11.7271 46.786C10.851 48.0771 8.00756 52.6573 8.79142 58.4364C9.19103 61.4027 10.4053 63.493 11.6963 65.7063C13.8635 69.4412 16.3995 71.9772 18.1824 73.5142C17.0604 71.8696 14.4014 67.4738 14.6473 61.5103C14.7242 59.6659 14.9547 55.4392 17.9365 51.6275C20.1651 48.7687 22.9317 47.4162 24.3918 46.7245C26.8203 45.5718 28.803 45.2337 30.5398 44.9263C35.1661 44.0963 39.7309 43.0204 44.3573 42.1904C48.046 41.5295 53.364 40.3461 59.8501 38.056C59.3736 38.9935 58.5897 40.3153 57.3448 41.6218C54.0864 45.0339 50.3976 45.5103 44.4495 47.201C37.2564 49.2452 33.6598 50.2596 30.6781 52.5804C29.218 53.7178 24.5302 57.3605 23.6848 63.4008C22.4552 72.1616 30.4014 78.5555 30.9086 78.9705C33.8289 79.6467 36.8721 80.0002 39.9922 80.0002C62.0941 80.0002 79.9999 62.079 79.9999 39.9925C79.9999 32.031 77.6791 24.6073 73.6676 18.3672H73.683Z" fill="#3774BA"/>
<path d="M56.6992 42.2363C56.6992 42.2363 56.7761 42.3747 56.8222 42.4361C57.6675 43.9116 58.0979 45.5101 58.3131 47.1854C58.436 48.1845 58.4821 49.1989 58.4514 50.1979C58.3438 53.4563 57.2525 56.3458 55.1315 58.8357C53.2103 61.0951 50.7972 62.6167 48.0153 63.6004C46.8779 64.0154 45.7098 64.292 44.4802 64.5226V70.8857C44.4802 71.6388 44.2035 72.2844 43.7117 72.8223C43.3121 73.2527 42.8049 73.4678 42.2362 73.4678C40.9144 73.4678 39.5772 73.4986 38.2554 73.4678C37.4408 73.4371 36.7338 73.0836 36.2266 72.4227C35.996 72.1307 35.8577 71.7771 35.8577 71.4083C35.8577 71.1009 35.8577 70.7935 35.8577 70.4861V64.538C35.3351 64.4457 34.8587 64.3689 34.3822 64.2613C32.0921 63.7848 29.9096 63.0317 27.8961 61.8175C26.7895 61.1412 25.7904 60.3266 24.8529 59.3891C24.7914 59.3276 24.7607 59.2507 24.7146 59.2046C23.0239 57.3295 21.948 55.1316 21.3486 52.6878C21.241 52.2575 21.1488 51.8271 21.0719 51.3967C20.9951 50.951 20.9951 50.4899 21.1795 50.0596C21.4715 49.3987 21.9787 49.0144 22.7011 48.9222C22.8548 48.9068 23.0239 48.9068 23.1776 48.9068H27.4965C28.6954 48.9068 29.4177 49.4909 29.7098 50.659C29.8788 51.3506 30.1247 52.0269 30.3399 52.7493C30.6781 53.5946 31.1392 54.317 31.7232 54.9779C32.7684 56.146 34.1055 56.8684 35.5964 57.2834C37.8097 57.8828 40.0537 58.0365 42.313 57.7137C43.85 57.4986 45.2948 56.976 46.5705 56.0538C48.1228 54.9318 49.168 53.4717 49.46 51.5658C49.7521 49.66 49.5984 47.8002 48.3073 46.2325C48.3073 46.2171 48.2919 46.1864 48.2765 46.171C49.3524 45.8482 50.4437 45.5408 51.5196 45.1873C53.4101 44.5725 55.1469 43.6811 56.6377 42.3439C56.6377 42.3285 56.6839 42.3132 56.7453 42.2824L56.6992 42.2363Z" fill="white"/>
<path d="M22.0093 30.7394C21.8248 29.602 21.7941 28.4647 21.8863 27.3273C22.0093 25.8518 22.3628 24.4531 22.9929 23.1006C23.992 20.9181 25.5136 19.1659 27.4809 17.7826C29.5405 16.3379 31.8152 15.4618 34.2744 14.9853C34.6894 14.9085 35.1044 14.847 35.5501 14.7548V8.63758C35.5501 7.9152 35.8268 7.28504 36.2878 6.76246C36.6567 6.34748 37.1332 6.10156 37.7172 6.10156C39.1005 6.10156 40.4684 6.10156 41.8517 6.10156C42.9276 6.10156 43.9574 6.9469 44.1572 7.94594C44.188 8.13038 44.188 8.31482 44.188 8.49926V15.0468C45.3253 15.1698 46.4166 15.3696 47.4925 15.7384C47.3849 15.8153 47.2619 15.8768 47.1236 15.9383C44.6952 16.9066 42.2052 17.6904 39.7 18.4589C35.3195 19.8115 30.893 21.0564 26.4511 22.2245C26.3589 22.2399 26.2667 22.286 26.1591 22.3167C26.5741 22.4858 28.8181 22.4551 34.4127 22.2553C34.3051 22.3321 34.1975 22.3936 34.0746 22.4551C32.4454 23.2543 31.3695 24.4993 30.9391 26.2822C30.7393 27.1275 30.7393 27.9882 30.7854 28.8489C29.5097 29.0948 28.234 29.3408 26.9583 29.5867C25.2984 29.9094 23.6538 30.2937 22.0093 30.7548V30.7394Z" fill="white"/>
<path d="M40.3161 42.9437C39.7474 42.8361 39.2094 42.7132 38.6561 42.6517C35.9049 42.2828 33.1845 41.8063 30.5408 40.8688C28.8194 40.254 27.1902 39.4548 25.7762 38.2713C25.6993 38.2098 25.6379 38.133 25.5303 38.0715C25.976 37.9178 26.4371 37.7641 26.9136 37.6411C29.0039 37.1185 31.1249 36.8112 33.2767 36.6575C35.2286 36.5191 37.1806 36.3962 39.1172 36.2117C40.562 36.0734 41.9914 35.8582 43.4361 35.6738C43.5898 35.6584 43.7435 35.643 43.9434 35.6123C45.1576 35.8736 46.3411 36.0888 47.5092 36.3808C49.3535 36.8419 51.1364 37.4721 52.7656 38.4557C53.3804 38.8246 53.9491 39.2857 54.5485 39.7314C54.2565 39.8544 53.9645 39.962 53.6571 40.0542C50.3372 40.9917 46.9712 41.7449 43.5745 42.3443C42.6215 42.5134 41.6686 42.7132 40.7157 42.8976C40.5927 42.9283 40.4698 42.9437 40.3161 42.9591V42.9437Z" fill="white"/>
<path d="M48.0615 26.4824C48 26.3441 47.9539 26.2057 47.9078 26.0828C46.8319 23.7004 44.9875 22.2864 42.4515 21.7485C42.2671 21.7024 42.0673 21.6409 41.8828 21.5794C43.5581 21.3181 45.2642 21.1337 46.9395 20.857C48.9683 20.5189 50.9818 20.0885 53.0106 19.7043C53.1335 19.6889 53.2565 19.6582 53.4102 19.6274C54.0404 20.3498 54.609 21.0876 55.0855 21.8868C55.5927 22.7629 55.9923 23.6851 56.3458 24.6534C56.4842 25.176 56.6071 25.6678 56.7301 26.175C56.8223 26.5439 56.8223 26.9127 56.7301 27.2816C56.561 28.0808 55.8694 28.6803 55.0394 28.7418C54.9318 28.7418 54.8242 28.7418 54.7013 28.7418C53.3026 28.7418 51.904 28.7264 50.5053 28.7418C49.4755 28.7571 48.6148 28.0809 48.3843 27.2355C48.3074 26.9742 48.1998 26.7437 48.0922 26.4824H48.0615Z" fill="white"/>
</svg>
