<?xml version="1.0" encoding="UTF-8"?>
<svg id="b" data-name="Layer 2" xmlns="http://www.w3.org/2000/svg" width="80" height="80"
  viewBox="0 0 52.06516 52.06516">
  <defs>
    <style>
      .e {
        fill: #fff;
      }

      .f {
        fill: #ec223a;
      }
    </style>
  </defs>
  <g id="c" data-name="Usp">
    <g id="d" data-name="Uspbond">
      <path class="f"
        d="M6.27188,24.34289c3.88943-3.72577,8.74599-4.62297,13.89931-5.57499,4.17745-.77175,7.35134-.77072,14.33845-2.08108,.00002,0,3.04732-.57149,6.52962-2.61567,1.71533-1.00692,2.58994-1.82669,3.11208-2.95933,.61282-1.32937,.52629-2.62586,.41058-3.3626-.91714-.9294-1.90445-1.78917-2.95193-2.57291,.15037,1.02896,.18662,2.49253-.52777,3.88785-1.22219,2.38714-3.9876,3.3232-8.26226,4.1526-3.83108,.74334-9.25435,1.47592-16.00904,1.36989,3.44409-.89095,6.38012-1.74163,8.68707-2.44384,6.33025-1.92685,8.5927-2.93944,9.66079-5.11678,.20979-.42766,.76265-1.59565,.43933-2.94421-.57822-2.41183-3.4631-3.3345-3.88867-3.45879-1.82753-.40666-3.72677-.62302-5.67686-.62302C11.65518,0,0,11.65518,0,26.03258c0,2.70988,.41709,5.32164,1.18551,7.77813,.5514-2.48399,1.82527-6.34395,5.08637-9.46782Z" />
      <path class="f"
        d="M47.94044,11.96555c-.35334,.76332-.91507,1.81212-1.78441,2.92657-1.14619,1.46936-2.49533,2.62748-4.23852,3.72303-3.92489,2.46672-8.04319,3.48238-9.29804,3.78031-9.65184,2.29162-11.60605,.51566-18.04238,3.13117-4.5808,1.86147-6.20158,3.82191-6.94966,4.92586-.56824,.83856-2.42312,3.82473-1.90924,7.5797,.26447,1.93255,1.04915,3.28519,1.89015,4.73493,1.40806,2.42727,3.0609,4.08115,4.22062,5.0833,.00235,.00153,.00463,.00318,.00698,.00471-.73228-1.07612-2.45659-3.93311-2.29926-7.81823,.04875-1.20375,.19734-3.94582,2.13836-6.43416,1.45133-1.8606,3.24726-2.73637,4.20033-3.18844,1.57893-.74893,2.87492-.97271,3.99988-1.17419,3.00754-.53865,5.98495-1.23729,8.99255-1.7756,2.39847-.42929,5.85904-1.20038,10.08083-2.69204-.30705,.60639-.81639,1.46585-1.63241,2.31973-2.11814,2.21642-4.51978,2.52974-8.39024,3.62723-4.68247,1.32774-7.0237,1.9916-8.96481,3.50381-.94633,.73723-3.99809,3.1147-4.5458,7.04137-.79575,5.70482,4.36575,9.86135,4.70478,10.12581,1.89953,.44115,3.87867,.67474,5.91243,.67474,14.3774,0,26.03258-11.65518,26.03258-26.03258,0-5.1822-1.51461-10.01046-4.12472-14.06703Z" />
      <path class="e"
        d="M36.89388,27.49475c.03318,.03792,.05214,.08532,.07584,.12797,.54508,.96218,.83421,2.0002,.96692,3.09035,.08057,.6541,.11376,1.30819,.09006,1.96228-.0711,2.12344-.78207,4.00039-2.15661,5.62142-1.24657,1.46934-2.82492,2.45996-4.62605,3.10457-.73941,.26543-1.49778,.45028-2.30355,.59722v4.14259c0,.4882-.18485,.90531-.50242,1.26079-.25595,.28439-.58774,.41711-.96218,.41711-.86265,.00474-1.73003,.0237-2.59268-.00474-.53086-.01895-.98588-.24647-1.32241-.67779-.15167-.19434-.23699-.41711-.24173-.66357-.00474-.19907-.00474-.39814-.00474-.60195v-3.86769c-.34127-.06162-.65409-.11375-.96218-.18012-1.4883-.30809-2.91498-.79629-4.22317-1.58784-.72045-.4408-1.36981-.96692-1.9765-1.57836-.04266-.04265-.06162-.09005-.0948-.12324-1.10437-1.21813-1.79639-2.65429-2.18505-4.24213-.0711-.27964-.12798-.5593-.18011-.84369-.05214-.29387-.05214-.58774,.0711-.87213,.18959-.43132,.52138-.67779,.98588-.74415,.10428-.01422,.20855-.01422,.31283-.01422h2.81071c.78207,0,1.24657,.38392,1.43616,1.14229,.11376,.45028,.26543,.88634,.40762,1.35559,.22277,.55456,.51664,1.0238,.89582,1.44564,.68253,.76311,1.54992,1.23235,2.52158,1.49778,1.43616,.39341,2.89602,.4882,4.3701,.28439,1.0001-.14219,1.93858-.48346,2.76805-1.07593,1.01432-.72519,1.69211-1.68263,1.8817-2.92446s.0948-2.44574-.74889-3.47428c-.00948-.01422-.01422-.02844-.01896-.04266,.70149-.21329,1.41247-.40762,2.10921-.63514,1.22761-.39815,2.36043-.9764,3.32734-1.85326,.00948-.01422,.03318-.02369,.0711-.04265Z" />
      <path class="e"
        d="M14.31817,20.01533c-.1185-.73941-.13746-1.47882-.07584-2.22297,.08058-.95744,.31283-1.87222,.71571-2.74909,.65409-1.42194,1.64471-2.56424,2.91972-3.4648,1.33663-.94322,2.82492-1.512,4.42224-1.82483,.26543-.05214,.5356-.0948,.82947-.14693v-3.98144c0-.46924,.17537-.87686,.47872-1.22287,.24173-.27491,.55456-.42658,.929-.42658,.89582,0,1.79165-.00948,2.68747,0,.69675,.00948,1.36981,.55456,1.50252,1.19917,.0237,.1185,.0237,.23699,.0237,.35549v4.25634c.73941,.08057,1.44564,.21329,2.14714,.45028-.06636,.0474-.14693,.0948-.23699,.13272-1.5831,.62565-3.20411,1.13755-4.82987,1.63523-2.85337,.87686-5.73043,1.68737-8.61697,2.44574-.05688,.01422-.1185,.03792-.18959,.06162,.27017,.10902,1.72529,.0948,5.36546-.03792-.06636,.05214-.14219,.0948-.22277,.13272-1.05698,.52138-1.76321,1.33189-2.03812,2.49314-.13271,.54982-.12798,1.10912-.09953,1.66841-.82947,.16115-1.65893,.31756-2.4884,.48346-1.07594,.2133-2.14713,.46451-3.22307,.76311Z" />
      <path class="e"
        d="M26.23405,27.95451c-.37445-.06636-.72045-.14693-1.07594-.19433-1.79165-.23699-3.56434-.54982-5.27541-1.16125-1.11859-.39815-2.17557-.92426-3.09509-1.69211-.0474-.04266-.0948-.08532-.15641-.13272,.28913-.09953,.58774-.20381,.89582-.28439,1.36033-.34126,2.73961-.54034,4.13785-.63514,1.26553-.09006,2.5358-.17063,3.79659-.28913,.93848-.09006,1.86749-.23225,2.80597-.35075,.10428-.01422,.20381-.0237,.33179-.03792,.78681,.16589,1.5594,.31283,2.31777,.49768,1.19917,.29861,2.36043,.71097,3.42214,1.35085,.40288,.24173,.76785,.54034,1.16125,.83421-.18959,.08057-.38392,.15167-.583,.20855-2.16135,.61144-4.35115,1.09963-6.56463,1.49304-.62091,.10902-1.23709,.23699-1.85801,.35549-.08057,.0237-.16115,.02844-.26069,.03792Z" />
      <path class="e"
        d="M31.27721,17.24254c-.04266-.0948-.06636-.17537-.09953-.25595-.70149-1.54992-1.89592-2.46944-3.55012-2.81545-.12323-.02844-.24647-.06636-.37445-.11376,1.09489-.16589,2.19927-.28913,3.28943-.47398,1.32241-.22277,2.63059-.50242,3.94826-.75363,.07584-.01422,.15642-.03318,.25595-.0474,.40762,.46924,.77733,.94796,1.08542,1.47408,.33179,.56878,.59248,1.16599,.81999,1.79639,.09006,.33653,.17063,.66357,.25121,.98588,.05688,.23699,.05688,.47872,.00474,.71571-.11376,.52138-.56404,.9053-1.10438,.94796-.0711,.00474-.14219,.00474-.21803,.00474-.91004,0-1.82483-.01422-2.73487,.00474-.67305,.01422-1.23235-.43132-1.37928-.98114-.04741-.17063-.12325-.3223-.19434-.4882Z" />
    </g>
  </g>
</svg>