<svg width="14" height="16" viewBox="0 0 14 16" fill="none" xmlns="http://www.w3.org/2000/svg">
<path d="M7.41474 8.70041L5.80436 10.3038C5.73874 10.3689 5.68665 10.4463 5.6511 10.5316C5.61556 10.617 5.59725 10.7085 5.59725 10.8009C5.59725 10.8933 5.61556 10.9849 5.6511 11.0702C5.68665 11.1555 5.73874 11.2329 5.80436 11.298C5.86945 11.3636 5.94689 11.4157 6.03221 11.4513C6.11753 11.4868 6.20905 11.5051 6.30148 11.5051C6.39391 11.5051 6.48542 11.4868 6.57075 11.4513C6.65607 11.4157 6.73351 11.3636 6.7986 11.298L9.59925 8.49737C9.663 8.43078 9.71296 8.35226 9.74629 8.26631C9.81632 8.09585 9.81632 7.90465 9.74629 7.73419C9.71296 7.64824 9.663 7.56972 9.59925 7.50313L6.7986 4.70247C6.73331 4.63719 6.65581 4.58541 6.57052 4.55008C6.48522 4.51475 6.3938 4.49656 6.30148 4.49656C6.20916 4.49656 6.11774 4.51475 6.03244 4.55008C5.94715 4.58541 5.86964 4.63719 5.80436 4.70247C5.73908 4.76776 5.68729 4.84526 5.65196 4.93055C5.61663 5.01585 5.59845 5.10727 5.59845 5.19959C5.59845 5.29191 5.61663 5.38333 5.65196 5.46863C5.68729 5.55392 5.73908 5.63143 5.80436 5.69671L7.41474 7.30008H0.700164C0.514469 7.30008 0.33638 7.37385 0.205073 7.50516C0.0737671 7.63646 0 7.81455 0 8.00025C0 8.18594 0.0737671 8.36403 0.205073 8.49534C0.33638 8.62665 0.514469 8.70041 0.700164 8.70041H7.41474ZM7.00164 0.998605C5.6931 0.992763 4.40911 1.35374 3.2953 2.04058C2.1815 2.72743 1.28246 3.71266 0.700164 4.88452C0.616602 5.05164 0.602852 5.24512 0.66194 5.42238C0.721027 5.59965 0.848113 5.74618 1.01524 5.82974C1.18236 5.9133 1.37584 5.92705 1.5531 5.86796C1.73037 5.80888 1.8769 5.68179 1.96046 5.51467C2.4031 4.62078 3.07641 3.86131 3.9108 3.31474C4.7452 2.76817 5.71042 2.45433 6.7067 2.40565C7.70299 2.35697 8.6942 2.57522 9.57791 3.03784C10.4616 3.50046 11.2058 4.19068 11.7334 5.03715C12.2611 5.88363 12.5532 6.85565 12.5794 7.85278C12.6057 8.84991 12.3652 9.83597 11.8828 10.7091C11.4005 11.5821 10.6937 12.3106 9.83558 12.8191C8.97746 13.3276 7.99911 13.5977 7.00164 13.6016C5.95761 13.6061 4.93347 13.3162 4.04673 12.765C3.16 12.2139 2.44662 11.424 1.98847 10.4858C1.9049 10.3187 1.75837 10.1916 1.58111 10.1325C1.40385 10.0734 1.21037 10.0872 1.04324 10.1708C0.876119 10.2543 0.749034 10.4009 0.689946 10.5781C0.630858 10.7554 0.644608 10.9489 0.728171 11.116C1.28328 12.2331 2.12676 13.1816 3.17137 13.8635C4.21598 14.5453 5.42379 14.9357 6.66985 14.9942C7.91591 15.0527 9.15499 14.7773 10.2589 14.1964C11.3628 13.6154 12.2915 12.7502 12.9489 11.69C13.6063 10.6298 13.9685 9.41328 13.998 8.16619C14.0276 6.9191 13.7234 5.68676 13.117 4.59663C12.5106 3.5065 11.624 2.59818 10.5489 1.96561C9.47371 1.33303 8.24908 0.999191 7.00164 0.998605Z" fill="#BE95C0"/>
</svg>
