<svg width="80" height="80" viewBox="0 0 80 80" fill="none" xmlns="http://www.w3.org/2000/svg">
<path d="M9.63799 37.3808C15.6094 31.6571 23.0759 30.2761 30.9901 28.819C37.4091 27.638 42.2853 27.638 53.0185 25.619C53.0185 25.619 57.7041 24.7428 63.0469 21.5999C65.685 20.0571 67.0279 18.7904 67.8279 17.0571C68.7707 15.019 68.6374 13.019 68.4564 11.8952C67.0469 10.4666 65.5326 9.14283 63.9231 7.94283C64.1517 9.52378 64.2088 11.7714 63.1136 13.9142C61.2374 17.5809 56.9899 19.019 50.4185 20.2952C44.5329 21.438 36.1996 22.5618 25.8283 22.3999C31.1235 21.0285 35.6282 19.7238 39.171 18.6476C48.8947 15.6857 52.3709 14.1333 54.0089 10.7904C54.3328 10.1333 55.1804 8.34283 54.6851 6.26665C53.7994 2.5619 49.3614 1.14285 48.7138 0.952378C45.9043 0.323809 42.99 0 39.9901 0C17.9046 0 0 17.9047 0 39.9904C0 44.1523 0.638088 48.1618 1.81903 51.9427C2.66664 48.1237 4.619 42.1999 9.62847 37.3999L9.63799 37.3808Z" fill="#EDBA1D"/>
<path d="M73.6476 18.3716C73.1048 19.543 72.2381 21.1525 70.9048 22.8668C69.1429 25.1239 67.0667 26.9049 64.3906 28.5906C58.3621 32.3811 52.0383 33.943 50.105 34.4001C35.2766 37.9239 32.2766 35.1906 22.391 39.2096C15.353 42.0668 12.8673 45.0763 11.7149 46.781C10.8388 48.0667 7.99116 52.6572 8.78163 58.4286C9.19115 61.4 10.3911 63.4762 11.6864 65.7048C13.8482 69.4381 16.3911 71.9714 18.172 73.5143H18.1815C17.0577 71.8667 14.4101 67.4762 14.6482 61.5143C14.7244 59.6667 14.953 55.4572 17.9339 51.6286C20.1625 48.7715 22.9243 47.4286 24.391 46.7334C26.8195 45.581 28.81 45.2382 30.5338 44.9334C35.1528 44.1048 39.7242 43.0287 44.3527 42.2096C48.0384 41.5525 53.3526 40.362 59.8382 38.0763C59.362 39.0096 58.5811 40.3239 57.3335 41.6382C54.0764 45.0477 50.3907 45.5239 44.4479 47.2096C37.2575 49.2477 33.6576 50.2667 30.6766 52.5905C29.2195 53.7239 24.5338 57.3715 23.6958 63.4096C22.4767 72.1714 30.4004 78.5619 30.9243 78.9619C33.8385 79.6381 36.8861 80 40.0099 80C62.0953 80 79.9999 62.0953 79.9999 40.0096C79.9999 32.0477 77.6761 24.6287 73.6666 18.4002L73.6476 18.3716Z" fill="#EDBA1D"/>
<path d="M28.2474 27.3435L23.3998 24.4863L18.5713 27.3435V31.8768C20.1332 31.2863 21.7427 30.8006 23.3998 30.3911V30.2006L28.2474 27.3435Z" fill="white"/>
<path d="M35.1716 27.3437L36.305 28.0199C38.7335 27.7151 41.2478 27.458 44.3144 27.0389L39.9906 24.4961L35.1621 27.3532L35.1716 27.3437Z" fill="white"/>
<path d="M31.7156 54.5816L29.668 53.3721C28.6966 54.1911 27.4014 55.4292 26.249 57.0768L31.7156 60.2863V54.5721V54.5816Z" fill="white"/>
<path d="M23.4189 47.1904L23.3998 39.9523L22.2379 39.2666C20.8379 39.838 19.6284 40.419 18.5713 40.9904V50.8666C20.2284 49.0094 22.057 47.8952 23.4093 47.1904H23.4189Z" fill="white"/>
<path d="M31.5248 44.715L26.8867 41.9722V45.7341C28.2391 45.315 29.4391 45.096 30.5343 44.9055C30.8676 44.8483 31.1914 44.7817 31.5248 44.715Z" fill="white"/>
<path d="M56.5905 30.2006V35.8863L61.4476 33.0292V27.3435L56.5905 24.4863L51.7715 27.3435L56.5905 30.2006Z" fill="white"/>
<path d="M35.1719 56.6284V62.3046L40.0004 65.1617L44.848 62.3046V56.6284L40.0004 59.476L35.1719 56.6284Z" fill="white"/>
<path d="M56.6201 39.9528L56.5915 49.7052L48.3154 54.5814V60.2861L61.4486 52.5814V37.0957L56.6201 39.9528Z" fill="white"/>
<path d="M53.1332 41.9717L48.3047 44.8288V50.5145L53.1332 47.6859V41.9717Z" fill="white"/>
<path d="M48.3042 25.3244L53.1327 22.4673L49.6661 20.4292C47.428 20.8482 44.8566 21.2578 41.9805 21.5911L48.3042 25.3244Z" fill="white"/>
<path d="M27.9639 21.8289C32.3352 20.667 36.1162 19.5622 39.1733 18.6384C40.9923 18.086 42.6018 17.5813 44.0113 17.1051L39.9923 14.7432L27.9639 21.8384V21.8289Z" fill="white"/>
<path d="M27.001 22.4002L26.8867 22.4669L31.7152 25.324L37.2485 22.0479C34.1152 22.2859 30.6962 22.4193 27.001 22.4002Z" fill="white"/>
<path d="M53.135 32.2194H53.1541L48.3065 29.3623L39.9923 34.2671L31.7353 29.3623L26.8877 32.2194V37.9337L35.2019 42.8099V52.5813L40.0304 55.4099L44.8494 52.5813V42.8099L53.1636 37.9337L53.135 32.2194Z" fill="white"/>
</svg>
