<svg width="16" height="18" viewBox="0 0 16 18" fill="none" xmlns="http://www.w3.org/2000/svg">
<path d="M15.2734 12.8704L13.6072 11.1639C13.2488 10.8232 12.7967 10.5975 12.309 10.5157C11.8213 10.4339 11.3203 10.4999 10.8703 10.7051L10.1459 9.98061C10.9996 8.83993 11.3894 7.41818 11.237 6.00159C11.0846 4.585 10.4012 3.27875 9.32436 2.34578C8.24754 1.41282 6.85726 0.922431 5.4334 0.973326C4.00954 1.02422 2.65783 1.61263 1.65036 2.62009C0.642899 3.62755 0.0544947 4.97927 0.00359944 6.40313C-0.0472958 7.82699 0.443097 9.21726 1.37606 10.2941C2.30902 11.3709 3.61528 12.0543 5.03187 12.2067C6.44846 12.3592 7.8702 11.9693 9.01089 11.1156L9.7273 11.832C9.49796 12.2825 9.41576 12.7936 9.4923 13.2932C9.56884 13.7929 9.80025 14.256 10.1539 14.6171L11.8604 16.3237C12.3132 16.7759 12.927 17.0299 13.5669 17.0299C14.2069 17.0299 14.8206 16.7759 15.2734 16.3237C15.5034 16.0988 15.6862 15.8302 15.811 15.5337C15.9357 15.2372 16 14.9187 16 14.597C16 14.2753 15.9357 13.9569 15.811 13.6604C15.6862 13.3639 15.5034 13.0953 15.2734 12.8704ZM8.44742 9.45739C7.88414 10.0192 7.16698 10.4016 6.38653 10.556C5.60608 10.7105 4.79735 10.6302 4.06251 10.3253C3.32768 10.0204 2.69969 9.50449 2.2579 8.84284C1.8161 8.18119 1.58031 7.40345 1.58031 6.60786C1.58031 5.81226 1.8161 5.03452 2.2579 4.37287C2.69969 3.71122 3.32768 3.19535 4.06251 2.89043C4.79735 2.5855 5.60608 2.50521 6.38653 2.65968C7.16698 2.81415 7.88414 3.19646 8.44742 3.75832C8.82223 4.13218 9.1196 4.57632 9.3225 5.06529C9.5254 5.55426 9.62985 6.07846 9.62985 6.60786C9.62985 7.13725 9.5254 7.66145 9.3225 8.15042C9.1196 8.63939 8.82223 9.08353 8.44742 9.45739ZM14.1384 15.1484C14.0636 15.2239 13.9746 15.2837 13.8765 15.3246C13.7784 15.3655 13.6732 15.3865 13.5669 15.3865C13.4607 15.3865 13.3555 15.3655 13.2574 15.3246C13.1593 15.2837 13.0702 15.2239 12.9954 15.1484L11.2889 13.4419C11.2135 13.3671 11.1536 13.2781 11.1127 13.18C11.0718 13.0819 11.0508 12.9767 11.0508 12.8704C11.0508 12.7641 11.0718 12.6589 11.1127 12.5608C11.1536 12.4627 11.2135 12.3737 11.2889 12.2989C11.3637 12.2234 11.4528 12.1635 11.5509 12.1227C11.6489 12.0818 11.7542 12.0608 11.8604 12.0608C11.9667 12.0608 12.0719 12.0818 12.17 12.1227C12.2681 12.1635 12.3571 12.2234 12.4319 12.2989L14.1384 14.0054C14.2139 14.0802 14.2738 14.1692 14.3146 14.2673C14.3555 14.3654 14.3765 14.4706 14.3765 14.5769C14.3765 14.6832 14.3555 14.7884 14.3146 14.8865C14.2738 14.9846 14.2139 15.0736 14.1384 15.1484Z" fill="#B9BABB"/>
</svg>
