<svg width="132" height="28" viewBox="0 0 132 28" fill="none" xmlns="http://www.w3.org/2000/svg">
<rect x="0.5" y="0.5" width="131" height="27" rx="11.5" fill="#2E2433"/>
<path d="M16.854 15.816V15.452C16.854 15.2933 16.9333 15.214 17.092 15.214H17.988C18.1467 15.214 18.226 15.2933 18.226 15.452V15.704C18.226 16.096 18.31 16.3807 18.478 16.558C18.6553 16.726 18.9447 16.81 19.346 16.81H20.312C20.7133 16.81 21.0027 16.7213 21.18 16.544C21.3573 16.3573 21.446 16.0587 21.446 15.648V15.326C21.446 15.0273 21.3293 14.794 21.096 14.626C20.872 14.4487 20.592 14.3367 20.256 14.29C19.92 14.234 19.5513 14.1593 19.15 14.066C18.7487 13.9727 18.38 13.8653 18.044 13.744C17.708 13.6227 17.4233 13.394 17.19 13.058C16.966 12.722 16.854 12.2927 16.854 11.77V11.182C16.854 10.5007 17.0453 9.96867 17.428 9.586C17.82 9.194 18.3567 8.998 19.038 8.998H20.522C21.2127 8.998 21.7493 9.194 22.132 9.586C22.524 9.96867 22.72 10.5007 22.72 11.182V11.49C22.72 11.6487 22.6407 11.728 22.482 11.728H21.586C21.4273 11.728 21.348 11.6487 21.348 11.49V11.308C21.348 10.9067 21.2593 10.622 21.082 10.454C20.914 10.2767 20.6293 10.188 20.228 10.188H19.346C18.9447 10.188 18.6553 10.2813 18.478 10.468C18.31 10.6453 18.226 10.9533 18.226 11.392V11.826C18.226 12.246 18.5293 12.5307 19.136 12.68C19.4067 12.7453 19.7007 12.8013 20.018 12.848C20.3447 12.8947 20.6713 12.9647 20.998 13.058C21.3247 13.1513 21.6233 13.2773 21.894 13.436C22.1647 13.5853 22.384 13.8187 22.552 14.136C22.72 14.444 22.804 14.822 22.804 15.27V15.816C22.804 16.4973 22.608 17.034 22.216 17.426C21.8333 17.8087 21.3013 18 20.62 18H19.052C18.3707 18 17.834 17.8087 17.442 17.426C17.05 17.034 16.854 16.4973 16.854 15.816ZM29.6059 18H26.5819C25.8913 18 25.3546 17.8087 24.9719 17.426C24.5986 17.0433 24.4119 16.5113 24.4119 15.83V13.03C24.4119 12.3393 24.5986 11.8073 24.9719 11.434C25.3546 11.0513 25.8913 10.86 26.5819 10.86H27.7299C28.4206 10.86 28.9573 11.0513 29.3399 11.434C29.7226 11.8073 29.9139 12.3393 29.9139 13.03V14.808C29.9139 14.976 29.8299 15.06 29.6619 15.06H25.9099C25.8073 15.06 25.7559 15.1067 25.7559 15.2V15.802C25.7559 16.4833 26.0966 16.824 26.7779 16.824H29.6059C29.7739 16.824 29.8579 16.908 29.8579 17.076V17.776C29.8579 17.9253 29.7739 18 29.6059 18ZM25.9099 14.108H28.4159C28.5093 14.108 28.5559 14.0613 28.5559 13.968V13.072C28.5559 12.7173 28.4766 12.4607 28.3179 12.302C28.1593 12.134 27.9026 12.05 27.5479 12.05H26.7779C26.4233 12.05 26.1666 12.134 26.0079 12.302C25.8493 12.4607 25.7699 12.7173 25.7699 13.072V13.968C25.7699 14.0613 25.8166 14.108 25.9099 14.108ZM34.0602 17.65H33.4302C32.7582 17.65 32.2402 17.4633 31.8762 17.09C31.5216 16.7073 31.3442 16.1707 31.3442 15.48V13.03C31.3442 12.3393 31.5356 11.8073 31.9182 11.434C32.3009 11.0513 32.8329 10.86 33.5142 10.86H36.6502C36.8182 10.86 36.9022 10.9393 36.9022 11.098V18.028C36.9022 18.7093 36.7062 19.2367 36.3142 19.61C35.9316 19.9927 35.3996 20.184 34.7182 20.184H32.0862C31.9276 20.184 31.8482 20.1093 31.8482 19.96V19.232C31.8482 19.0733 31.9276 18.994 32.0862 18.994H34.5082C35.1896 18.994 35.5302 18.6487 35.5302 17.958V16.894H35.4742C35.2409 17.398 34.7696 17.65 34.0602 17.65ZM35.5302 15.27V12.19C35.5302 12.0967 35.4789 12.05 35.3762 12.05H33.7102C33.0476 12.05 32.7162 12.3953 32.7162 13.086V15.41C32.7162 16.1007 33.0476 16.446 33.7102 16.446H34.3822C35.1476 16.446 35.5302 16.054 35.5302 15.27ZM39.7676 18H38.8856C38.727 18 38.6476 17.9207 38.6476 17.762V11.098C38.6476 10.9393 38.727 10.86 38.8856 10.86H39.7676C39.9263 10.86 40.0056 10.9393 40.0056 11.098V11.602H40.0616C40.2856 11.1073 40.757 10.86 41.4756 10.86H42.0916C42.773 10.86 43.2956 11.0467 43.6596 11.42C44.0236 11.7933 44.2056 12.33 44.2056 13.03V17.762C44.2056 17.9207 44.1216 18 43.9536 18H43.0716C42.913 18 42.8336 17.9207 42.8336 17.762V13.086C42.8336 12.3953 42.493 12.05 41.8116 12.05H41.1536C40.3883 12.05 40.0056 12.4467 40.0056 13.24V17.762C40.0056 17.9207 39.9263 18 39.7676 18ZM45.95 9.67V8.396C45.95 8.24667 46.0247 8.172 46.174 8.172H47.084C47.2334 8.172 47.308 8.24667 47.308 8.396V9.67C47.308 9.82867 47.2334 9.908 47.084 9.908H46.174C46.0247 9.908 45.95 9.82867 45.95 9.67ZM45.95 17.762V11.098C45.95 10.9393 46.0247 10.86 46.174 10.86H47.07C47.2287 10.86 47.308 10.9393 47.308 11.098V17.762C47.308 17.8553 47.2894 17.9207 47.252 17.958C47.224 17.986 47.168 18 47.084 18H46.188C46.0294 18 45.95 17.9207 45.95 17.762ZM52.4096 18H51.1776C50.487 18 49.9503 17.8087 49.5676 17.426C49.1943 17.0433 49.0076 16.5113 49.0076 15.83V13.03C49.0076 12.3393 49.1943 11.8073 49.5676 11.434C49.9503 11.0513 50.487 10.86 51.1776 10.86H52.4096C53.091 10.86 53.623 11.0513 54.0056 11.434C54.3976 11.8073 54.5936 12.3393 54.5936 13.03V15.83C54.5936 16.5113 54.3976 17.0433 54.0056 17.426C53.623 17.8087 53.091 18 52.4096 18ZM51.3736 16.81H52.2276C52.8996 16.81 53.2356 16.4693 53.2356 15.788V13.072C53.2356 12.3907 52.8996 12.05 52.2276 12.05H51.3736C51.019 12.05 50.7623 12.134 50.6036 12.302C50.445 12.4607 50.3656 12.7173 50.3656 13.072V15.788C50.3656 16.1427 50.445 16.404 50.6036 16.572C50.7623 16.7307 51.019 16.81 51.3736 16.81ZM57.3223 18H56.4403C56.2816 18 56.2023 17.9207 56.2023 17.762V11.098C56.2023 10.9393 56.2816 10.86 56.4403 10.86H57.3223C57.481 10.86 57.5603 10.9393 57.5603 11.098V11.63H57.6163C57.7096 11.3967 57.887 11.21 58.1483 11.07C58.419 10.93 58.7176 10.86 59.0443 10.86H59.5623C59.721 10.86 59.8003 10.9393 59.8003 11.098V11.826C59.8003 12.0033 59.721 12.078 59.5623 12.05H58.7223C57.9476 12.05 57.5603 12.4747 57.5603 13.324V17.762C57.5603 17.9207 57.481 18 57.3223 18ZM63.4678 18H62.9218C62.2311 18 61.6944 17.8087 61.3118 17.426C60.9384 17.0433 60.7518 16.5113 60.7518 15.83V13.03C60.7518 12.3393 60.9384 11.8073 61.3118 11.434C61.6944 11.0513 62.2311 10.86 62.9218 10.86H66.0578C66.2258 10.86 66.3098 10.9393 66.3098 11.098V17.762C66.3098 17.9207 66.2258 18 66.0578 18H65.1758C65.0171 18 64.9378 17.9207 64.9378 17.762V17.258H64.8818C64.6578 17.7527 64.1864 18 63.4678 18ZM64.9378 15.62V12.19C64.9378 12.0967 64.8864 12.05 64.7838 12.05H63.1178C62.4458 12.05 62.1098 12.3953 62.1098 13.086V15.774C62.1098 16.4647 62.4458 16.81 63.1178 16.81H63.7898C64.5551 16.81 64.9378 16.4133 64.9378 15.62ZM70.6598 17.65H70.0298C69.3578 17.65 68.8398 17.4633 68.4758 17.09C68.1212 16.7073 67.9438 16.1707 67.9438 15.48V13.03C67.9438 12.3393 68.1352 11.8073 68.5178 11.434C68.9005 11.0513 69.4325 10.86 70.1138 10.86H73.2498C73.4178 10.86 73.5018 10.9393 73.5018 11.098V18.028C73.5018 18.7093 73.3058 19.2367 72.9138 19.61C72.5312 19.9927 71.9992 20.184 71.3178 20.184H68.6858C68.5272 20.184 68.4478 20.1093 68.4478 19.96V19.232C68.4478 19.0733 68.5272 18.994 68.6858 18.994H71.1078C71.7892 18.994 72.1298 18.6487 72.1298 17.958V16.894H72.0738C71.8405 17.398 71.3692 17.65 70.6598 17.65ZM72.1298 15.27V12.19C72.1298 12.0967 72.0785 12.05 71.9758 12.05H70.3098C69.6472 12.05 69.3158 12.3953 69.3158 13.086V15.41C69.3158 16.1007 69.6472 16.446 70.3098 16.446H70.9818C71.7472 16.446 72.1298 16.054 72.1298 15.27ZM80.3012 18H77.2772C76.5866 18 76.0499 17.8087 75.6672 17.426C75.2939 17.0433 75.1072 16.5113 75.1072 15.83V13.03C75.1072 12.3393 75.2939 11.8073 75.6672 11.434C76.0499 11.0513 76.5866 10.86 77.2772 10.86H78.4252C79.1159 10.86 79.6526 11.0513 80.0352 11.434C80.4179 11.8073 80.6092 12.3393 80.6092 13.03V14.808C80.6092 14.976 80.5252 15.06 80.3572 15.06H76.6052C76.5026 15.06 76.4512 15.1067 76.4512 15.2V15.802C76.4512 16.4833 76.7919 16.824 77.4732 16.824H80.3012C80.4692 16.824 80.5532 16.908 80.5532 17.076V17.776C80.5532 17.9253 80.4692 18 80.3012 18ZM76.6052 14.108H79.1112C79.2046 14.108 79.2512 14.0613 79.2512 13.968V13.072C79.2512 12.7173 79.1719 12.4607 79.0132 12.302C78.8546 12.134 78.5979 12.05 78.2432 12.05H77.4732C77.1186 12.05 76.8619 12.134 76.7032 12.302C76.5446 12.4607 76.4652 12.7173 76.4652 13.072V13.968C76.4652 14.0613 76.5119 14.108 76.6052 14.108ZM86.7475 18H85.8655C85.7068 18 85.6275 17.9207 85.6275 17.762V9.236C85.6275 9.07733 85.7068 8.998 85.8655 8.998H89.1975C89.8788 8.998 90.4108 9.18933 90.7935 9.572C91.1761 9.94533 91.3675 10.4773 91.3675 11.168V12.624C91.3675 13.3053 91.1761 13.8373 90.7935 14.22C90.4108 14.6027 89.8788 14.794 89.1975 14.794H87.1535C87.0415 14.794 86.9855 14.8407 86.9855 14.934V17.762C86.9855 17.9207 86.9061 18 86.7475 18ZM87.1395 13.59H89.0015C89.6641 13.59 89.9955 13.2447 89.9955 12.554V11.224C89.9955 10.5333 89.6641 10.188 89.0015 10.188H87.1395C87.0368 10.188 86.9855 10.2347 86.9855 10.328V13.45C86.9855 13.5433 87.0368 13.59 87.1395 13.59ZM96.146 18H94.914C94.2233 18 93.6866 17.8087 93.304 17.426C92.9306 17.0433 92.744 16.5113 92.744 15.83V13.03C92.744 12.3393 92.9306 11.8073 93.304 11.434C93.6866 11.0513 94.2233 10.86 94.914 10.86H96.146C96.8273 10.86 97.3593 11.0513 97.742 11.434C98.134 11.8073 98.33 12.3393 98.33 13.03V15.83C98.33 16.5113 98.134 17.0433 97.742 17.426C97.3593 17.8087 96.8273 18 96.146 18ZM95.11 16.81H95.964C96.636 16.81 96.972 16.4693 96.972 15.788V13.072C96.972 12.3907 96.636 12.05 95.964 12.05H95.11C94.7553 12.05 94.4986 12.134 94.34 12.302C94.1813 12.4607 94.102 12.7173 94.102 13.072V15.788C94.102 16.1427 94.1813 16.404 94.34 16.572C94.4986 16.7307 94.7553 16.81 95.11 16.81ZM103.201 18H101.969C101.278 18 100.741 17.8087 100.359 17.426C99.9853 17.0433 99.7986 16.5113 99.7986 15.83V13.03C99.7986 12.3393 99.9853 11.8073 100.359 11.434C100.741 11.0513 101.278 10.86 101.969 10.86H103.201C103.882 10.86 104.414 11.0513 104.797 11.434C105.189 11.8073 105.385 12.3393 105.385 13.03V15.83C105.385 16.5113 105.189 17.0433 104.797 17.426C104.414 17.8087 103.882 18 103.201 18ZM102.165 16.81H103.019C103.691 16.81 104.027 16.4693 104.027 15.788V13.072C104.027 12.3907 103.691 12.05 103.019 12.05H102.165C101.81 12.05 101.553 12.134 101.395 12.302C101.236 12.4607 101.157 12.7173 101.157 13.072V15.788C101.157 16.1427 101.236 16.404 101.395 16.572C101.553 16.7307 101.81 16.81 102.165 16.81ZM108.183 18H107.301C107.143 18 107.063 17.9207 107.063 17.762V8.396C107.063 8.23733 107.143 8.158 107.301 8.158H108.183C108.342 8.158 108.421 8.23733 108.421 8.396V17.762C108.421 17.9207 108.342 18 108.183 18ZM112.809 18H110.233C110.074 18 109.995 17.9207 109.995 17.762V17.076C109.995 16.9267 110.074 16.852 110.233 16.852H112.585C113.192 16.852 113.495 16.642 113.495 16.222V16.054C113.495 15.6807 113.276 15.396 112.837 15.2L111.311 14.472C110.835 14.248 110.49 14.0007 110.275 13.73C110.06 13.4593 109.953 13.1047 109.953 12.666C109.953 11.462 110.62 10.86 111.955 10.86H114.279C114.428 10.86 114.503 10.9393 114.503 11.098V11.784C114.503 11.9427 114.428 12.022 114.279 12.022H112.235C111.955 12.022 111.74 12.0733 111.591 12.176C111.442 12.2693 111.367 12.3953 111.367 12.554V12.708C111.367 13.0067 111.605 13.268 112.081 13.492L113.621 14.276C114.106 14.4907 114.438 14.7473 114.615 15.046C114.802 15.3353 114.895 15.7133 114.895 16.18C114.895 17.3933 114.2 18 112.809 18Z" fill="#FDFDFD"/>
<rect x="0.5" y="0.5" width="131" height="27" rx="11.5" stroke="url(#paint0_linear_469_3243)"/>
<defs>
<linearGradient id="paint0_linear_469_3243" x1="112.5" y1="2.86364" x2="105.541" y2="40.0425" gradientUnits="userSpaceOnUse">
<stop stop-color="#FBAAFF"/>
<stop offset="0.5" stop-color="#9747FF"/>
<stop offset="1" stop-color="#F89C35"/>
</linearGradient>
</defs>
</svg>
