<svg width="20" height="20" viewBox="0 0 20 20" fill="none" xmlns="http://www.w3.org/2000/svg">
<path d="M6.0197 9.00101C5.8222 9.00101 5.62913 9.05957 5.46491 9.1693C5.3007 9.27903 5.1727 9.43498 5.09712 9.61745C5.02154 9.79992 5.00177 10.0007 5.0403 10.1944C5.07883 10.3881 5.17394 10.5661 5.31359 10.7057C5.45325 10.8454 5.63118 10.9405 5.82489 10.979C6.01859 11.0175 6.21938 10.9978 6.40185 10.9222C6.58432 10.8466 6.74027 10.7186 6.85 10.5544C6.95973 10.3902 7.01829 10.1971 7.01829 9.9996C7.01829 9.73475 6.91309 9.48076 6.72581 9.29349C6.53854 9.10621 6.28455 9.00101 6.0197 9.00101ZM10.0141 9.00101C9.81657 9.00101 9.6235 9.05957 9.45928 9.1693C9.29507 9.27903 9.16708 9.43498 9.09149 9.61745C9.01591 9.79992 8.99614 10.0007 9.03467 10.1944C9.0732 10.3881 9.16831 10.5661 9.30796 10.7057C9.44762 10.8454 9.62555 10.9405 9.81926 10.979C10.013 11.0175 10.2137 10.9978 10.3962 10.9222C10.5787 10.8466 10.7346 10.7186 10.8444 10.5544C10.9541 10.3902 11.0127 10.1971 11.0127 9.9996C11.0127 9.73475 10.9075 9.48076 10.7202 9.29349C10.5329 9.10621 10.2789 9.00101 10.0141 9.00101ZM14.0084 9.00101C13.8109 9.00101 13.6179 9.05957 13.4537 9.1693C13.2894 9.27903 13.1614 9.43498 13.0859 9.61745C13.0103 9.79992 12.9905 10.0007 13.029 10.1944C13.0676 10.3881 13.1627 10.5661 13.3023 10.7057C13.442 10.8454 13.6199 10.9405 13.8136 10.979C14.0073 11.0175 14.2081 10.9978 14.3906 10.9222C14.5731 10.8466 14.729 10.7186 14.8387 10.5544C14.9485 10.3902 15.007 10.1971 15.007 9.9996C15.007 9.73475 14.9018 9.48076 14.7146 9.29349C14.5273 9.10621 14.2733 9.00101 14.0084 9.00101ZM10.0141 0.0136719C8.7027 0.0136719 7.40417 0.271966 6.19262 0.773805C4.98108 1.27565 3.88024 2.0112 2.95296 2.93848C1.08023 4.81121 0.0281467 7.35117 0.0281467 9.9996C0.0194168 12.3055 0.817826 14.5417 2.28497 16.3207L0.287781 18.3179C0.149218 18.4583 0.0553545 18.6366 0.0180329 18.8303C-0.0192886 19.0241 0.00160464 19.2245 0.0780763 19.4063C0.161017 19.586 0.295474 19.737 0.464379 19.8401C0.633283 19.9432 0.829019 19.9938 1.02674 19.9855H10.0141C12.6625 19.9855 15.2025 18.9334 17.0752 17.0607C18.9479 15.188 20 12.648 20 9.9996C20 7.35117 18.9479 4.81121 17.0752 2.93848C15.2025 1.06576 12.6625 0.0136719 10.0141 0.0136719ZM10.0141 17.9883H3.43335L4.36204 17.0596C4.45639 16.9672 4.53146 16.8569 4.58288 16.7352C4.63431 16.6135 4.66107 16.4828 4.66162 16.3506C4.65786 16.0872 4.55019 15.836 4.36204 15.6516C3.05447 14.3455 2.2402 12.6264 2.05798 10.7873C1.87575 8.94813 2.33684 7.10269 3.36267 5.56537C4.38851 4.02805 5.91564 2.89397 7.68387 2.35634C9.4521 1.81872 11.352 1.9108 13.06 2.61692C14.7679 3.32303 16.1782 4.59948 17.0506 6.2288C17.923 7.85812 18.2034 9.73951 17.8442 11.5524C17.4849 13.3653 16.5082 14.9976 15.0805 16.1711C13.6527 17.3447 11.8622 17.9869 10.0141 17.9883Z" fill="#B9BABB"/>
</svg>
