<svg width="20" height="22" viewBox="0 0 20 22" fill="none" xmlns="http://www.w3.org/2000/svg">
<path d="M19.1578 1.09051C18.442 0.967206 17.7171 0.903738 16.9907 0.900761C14.5124 0.898729 12.0857 1.60939 10 2.94805C7.90892 1.62697 5.48264 0.933748 3.00928 0.950695C2.28289 0.953671 1.55801 1.01714 0.842151 1.14044C0.607668 1.18087 0.395324 1.30369 0.243359 1.48678C0.0913926 1.66987 0.00979153 1.9012 0.0132507 2.13912V14.1232C0.0111118 14.27 0.0413396 14.4154 0.101783 14.5491C0.162227 14.6828 0.251401 14.8016 0.36296 14.8969C0.474519 14.9923 0.605722 15.0619 0.747233 15.1008C0.888743 15.1396 1.03708 15.1469 1.1817 15.1219C2.61282 14.8741 4.07906 14.9152 5.49404 15.2428C6.90903 15.5704 8.24415 16.1778 9.42077 17.0294L9.54061 17.0993H9.65046C9.76122 17.1454 9.88002 17.1692 10 17.1692C10.12 17.1692 10.2388 17.1454 10.3495 17.0993H10.4594L10.5792 17.0294C11.7476 16.1588 13.0789 15.5317 14.4942 15.1852C15.9094 14.8386 17.3799 14.7798 18.8183 15.012C18.9629 15.037 19.1113 15.0298 19.2528 14.9909C19.3943 14.952 19.5255 14.8824 19.637 14.7871C19.7486 14.6917 19.8378 14.573 19.8982 14.4392C19.9587 14.3055 19.9889 14.1601 19.9867 14.0134V2.02926C19.9764 1.80172 19.8885 1.58456 19.7377 1.41382C19.587 1.24307 19.3824 1.129 19.1578 1.09051ZM9.00133 14.3629C7.15366 13.3909 5.09702 12.8836 3.00928 12.8849C2.67971 12.8849 2.35015 12.8849 2.0106 12.8849V2.89811C2.34322 2.87894 2.67666 2.87894 3.00928 2.89811C5.13983 2.89576 7.2239 3.52098 9.00133 4.69573V14.3629ZM17.9894 12.9248C17.6498 12.9248 17.3203 12.9248 16.9907 12.9248C14.903 12.9235 12.8463 13.4308 10.9987 14.4028V4.69573C12.7761 3.52098 14.8602 2.89576 16.9907 2.89811C17.3233 2.87894 17.6568 2.87894 17.9894 2.89811V12.9248ZM19.1578 17.0693C18.442 16.946 17.7171 16.8825 16.9907 16.8796C14.5124 16.8775 12.0857 17.5882 10 18.9268C7.91428 17.5882 5.48762 16.8775 3.00928 16.8796C2.28289 16.8825 1.55801 16.946 0.842151 17.0693C0.712151 17.0899 0.587511 17.1361 0.4754 17.205C0.363288 17.274 0.265917 17.3645 0.188884 17.4712C0.111852 17.5779 0.0566785 17.6988 0.0265368 17.827C-0.00360488 17.9551 -0.00812012 18.0879 0.0132507 18.2178C0.064002 18.4771 0.215473 18.7058 0.434482 18.8537C0.653492 19.0015 0.922184 19.0566 1.1817 19.0067C2.61282 18.759 4.07906 18.8001 5.49404 19.1277C6.90903 19.4552 8.24415 20.0627 9.42077 20.9142C9.58991 21.0346 9.79237 21.0993 10 21.0993C10.2076 21.0993 10.4101 21.0346 10.5792 20.9142C11.7558 20.0627 13.091 19.4552 14.506 19.1277C15.9209 18.8001 17.3872 18.759 18.8183 19.0067C19.0778 19.0566 19.3465 19.0015 19.5655 18.8537C19.7845 18.7058 19.936 18.4771 19.9867 18.2178C20.0081 18.0879 20.0036 17.9551 19.9735 17.827C19.9433 17.6988 19.8881 17.5779 19.8111 17.4712C19.7341 17.3645 19.6367 17.274 19.5246 17.205C19.4125 17.1361 19.2878 17.0899 19.1578 17.0693Z" fill="#B9BABB"/>
</svg>
