<svg width="20" height="18" viewBox="0 0 20 18" fill="none" xmlns="http://www.w3.org/2000/svg">
<path d="M5.5 12.3334C5.89782 12.3334 6.27936 12.2017 6.56066 11.9672C6.84196 11.7328 7 11.4149 7 11.0834C7.00488 11.0418 7.00488 10.9999 7 10.9584L9.79 8.63335H10.02H10.25L11.86 9.97502C11.86 9.97502 11.86 10.0167 11.86 10.0417C11.86 10.3732 12.018 10.6911 12.2993 10.9256C12.5806 11.16 12.9622 11.2917 13.36 11.2917C13.7578 11.2917 14.1394 11.16 14.4207 10.9256C14.702 10.6911 14.86 10.3732 14.86 10.0417V9.97502L18.5 6.91669C18.7967 6.91669 19.0867 6.84338 19.3334 6.70602C19.58 6.56867 19.7723 6.37345 19.8858 6.14504C19.9993 5.91663 20.0291 5.6653 19.9712 5.42282C19.9133 5.18035 19.7704 4.95762 19.5607 4.7828C19.3509 4.60799 19.0836 4.48894 18.7926 4.44071C18.5017 4.39247 18.2001 4.41723 17.926 4.51184C17.6519 4.60645 17.4176 4.76666 17.2528 4.97222C17.088 5.17779 17 5.41946 17 5.66669C16.9951 5.70825 16.9951 5.75012 17 5.79169L13.39 8.80002H13.23L11.5 7.33335C11.5 7.00183 11.342 6.68389 11.0607 6.44947C10.7794 6.21505 10.3978 6.08335 10 6.08335C9.60218 6.08335 9.22064 6.21505 8.93934 6.44947C8.65804 6.68389 8.5 7.00183 8.5 7.33335L5.5 9.83335C5.10218 9.83335 4.72064 9.96505 4.43934 10.1995C4.15804 10.4339 4 10.7518 4 11.0834C4 11.4149 4.15804 11.7328 4.43934 11.9672C4.72064 12.2017 5.10218 12.3334 5.5 12.3334ZM19 15.6667H2V1.50002C2 1.27901 1.89464 1.06704 1.70711 0.910765C1.51957 0.754484 1.26522 0.666687 1 0.666687C0.734784 0.666687 0.48043 0.754484 0.292893 0.910765C0.105357 1.06704 0 1.27901 0 1.50002V16.5C0 16.721 0.105357 16.933 0.292893 17.0893C0.48043 17.2456 0.734784 17.3334 1 17.3334H19C19.2652 17.3334 19.5196 17.2456 19.7071 17.0893C19.8946 16.933 20 16.721 20 16.5C20 16.279 19.8946 16.067 19.7071 15.9108C19.5196 15.7545 19.2652 15.6667 19 15.6667Z" fill="#B9BABB"/>
</svg>
