<svg width="18" height="20" viewBox="0 0 18 20" fill="none" xmlns="http://www.w3.org/2000/svg">
    <path
        d="M17.5714 6.94C17.5603 6.84813 17.5387 6.75763 17.5072 6.67V6.58C17.4556 6.47718 17.3869 6.38267 17.3036 6.3L10.875 0.3C10.7864 0.222216 10.6852 0.158081 10.575 0.11C10.543 0.10576 10.5106 0.10576 10.4786 0.11C10.3697 0.0517412 10.2495 0.0143442 10.125 0H3.64287C2.79039 0 1.97283 0.316071 1.37003 0.87868C0.767236 1.44129 0.428589 2.20435 0.428589 3V17C0.428589 17.7956 0.767236 18.5587 1.37003 19.1213C1.97283 19.6839 2.79039 20 3.64287 20H14.3572C15.2096 20 16.0272 19.6839 16.63 19.1213C17.2328 18.5587 17.5714 17.7956 17.5714 17V7C17.5714 7 17.5714 7 17.5714 6.94ZM11.1429 3.41L13.9179 6H12.2143C11.9301 6 11.6576 5.89464 11.4567 5.70711C11.2558 5.51957 11.1429 5.26522 11.1429 5V3.41ZM15.4286 17C15.4286 17.2652 15.3157 17.5196 15.1148 17.7071C14.9138 17.8946 14.6413 18 14.3572 18H3.64287C3.35871 18 3.08619 17.8946 2.88526 17.7071C2.68433 17.5196 2.57145 17.2652 2.57145 17V3C2.57145 2.73478 2.68433 2.48043 2.88526 2.29289C3.08619 2.10536 3.35871 2 3.64287 2H9.00002V5C9.00002 5.79565 9.33866 6.55871 9.94146 7.12132C10.5443 7.68393 11.3618 8 12.2143 8H15.4286V17ZM11.4536 10.29L7.92859 13.59L6.54645 12.29C6.34469 12.1017 6.07105 11.9959 5.78573 11.9959C5.50041 11.9959 5.22677 12.1017 5.02502 12.29C4.82326 12.4783 4.70992 12.7337 4.70992 13C4.70992 13.2663 4.82326 13.5217 5.02502 13.71L7.16787 15.71C7.26748 15.8037 7.38598 15.8781 7.51654 15.9289C7.64711 15.9797 7.78715 16.0058 7.92859 16.0058C8.07003 16.0058 8.21007 15.9797 8.34064 15.9289C8.4712 15.8781 8.5897 15.8037 8.6893 15.71L12.975 11.71C13.1768 11.5217 13.2901 11.2663 13.2901 11C13.2901 10.7337 13.1768 10.4783 12.975 10.29C12.7733 10.1017 12.4996 9.99591 12.2143 9.99591C11.929 9.99591 11.6553 10.1017 11.4536 10.29Z"
        fill="#F5E1FF" />
</svg>