<svg width="20" height="16" viewBox="0 0 20 16" fill="none" xmlns="http://www.w3.org/2000/svg">
<path d="M19.7118 5.28864L15.711 1.28792C15.6178 1.19466 15.5071 1.12069 15.3852 1.07022C15.2634 1.01975 15.1328 0.993774 15.0009 0.993774C14.7346 0.993774 14.4791 1.09958 14.2908 1.28792C14.1024 1.47626 13.9966 1.7317 13.9966 1.99805C13.9966 2.2644 14.1024 2.51984 14.2908 2.70818L16.5912 4.99859H4.99909C4.73383 4.99859 4.47943 5.10397 4.29186 5.29154C4.10429 5.47911 3.99891 5.73351 3.99891 5.99877C3.99891 6.26404 4.10429 6.51844 4.29186 6.70601C4.47943 6.89358 4.73383 6.99895 4.99909 6.99895H19.0016C19.1991 6.99797 19.3918 6.93856 19.5556 6.8282C19.7193 6.71785 19.8468 6.56149 19.9218 6.37884C19.9984 6.1967 20.0193 5.99595 19.9819 5.80192C19.9446 5.6079 19.8505 5.42929 19.7118 5.28864ZM15.0009 8.99932H0.998367C0.800906 9.0003 0.608155 9.05972 0.444405 9.17007C0.280655 9.28042 0.153234 9.43678 0.0782005 9.61943C0.00160719 9.80157 -0.0193193 10.0023 0.0180616 10.1963C0.0554425 10.3904 0.149456 10.569 0.288239 10.7096L4.28896 14.7104C4.38194 14.8041 4.49257 14.8785 4.61445 14.9293C4.73633 14.9801 4.86706 15.0062 4.99909 15.0062C5.13113 15.0062 5.26186 14.9801 5.38374 14.9293C5.50562 14.8785 5.61624 14.8041 5.70922 14.7104C5.80297 14.6174 5.87738 14.5068 5.92815 14.3849C5.97893 14.263 6.00507 14.1323 6.00507 14.0002C6.00507 13.8682 5.97893 13.7375 5.92815 13.6156C5.87738 13.4937 5.80297 13.3831 5.70922 13.2901L3.4088 10.9997H15.0009C15.2662 10.9997 15.5206 10.8943 15.7081 10.7067C15.8957 10.5192 16.0011 10.2648 16.0011 9.9995C16.0011 9.73423 15.8957 9.47983 15.7081 9.29226C15.5206 9.10469 15.2662 8.99932 15.0009 8.99932Z" fill="#B9BABB"/>
</svg>
