<svg width="18" height="14" viewBox="0 0 18 14" fill="none" xmlns="http://www.w3.org/2000/svg">
<path d="M0.5 7.00018C0.5 6.78066 0.600708 6.57868 0.783796 6.41177L6.86241 0.580354C7.05466 0.413442 7.24691 0.343205 7.45746 0.343205C7.9152 0.343205 8.26307 0.659313 8.26307 1.09845C8.26307 1.30043 8.18068 1.51123 8.03416 1.65179L5.99273 3.65411L2.8985 6.35034L5.12306 6.20978L16.6944 6.20978C17.1704 6.20978 17.5 6.54351 17.5 7.00018C17.5 7.45686 17.1704 7.78187 16.6944 7.78187L5.12306 7.78187L2.90765 7.65012L5.99273 10.3463L8.03416 12.3399C8.18986 12.4892 8.26307 12.6912 8.26307 12.9019C8.26307 13.3323 7.9152 13.6572 7.45746 13.6572C7.24691 13.6572 7.04551 13.5782 6.8441 13.3938L0.783796 7.5886C0.600708 7.41297 0.5 7.21098 0.5 7.00018Z" fill="#F5F5F5"/>
</svg>
