<svg width="16" height="12" viewBox="0 0 16 12" fill="none" xmlns="http://www.w3.org/2000/svg">
<path d="M15.7694 3.4359L12.5688 0.235316C12.4942 0.160712 12.4057 0.101532 12.3082 0.0611569C12.2107 0.0207813 12.1062 0 12.0007 0C11.7876 0 11.5833 0.0846457 11.4326 0.235316C11.282 0.385986 11.1973 0.590339 11.1973 0.803419C11.1973 1.0165 11.282 1.22085 11.4326 1.37152L13.273 3.20385H3.99927C3.78706 3.20385 3.58354 3.28815 3.43349 3.43821C3.28343 3.58827 3.19913 3.79179 3.19913 4.004C3.19913 4.21621 3.28343 4.41973 3.43349 4.56979C3.58354 4.71984 3.78706 4.80414 3.99927 4.80414H15.2013C15.3593 4.80336 15.5135 4.75583 15.6445 4.66754C15.7755 4.57926 15.8774 4.45418 15.9374 4.30805C15.9987 4.16234 16.0155 4.00174 15.9856 3.84652C15.9556 3.6913 15.8804 3.54842 15.7694 3.4359ZM12.0007 6.40443H0.798694C0.640725 6.40522 0.486524 6.45275 0.355524 6.54104C0.224524 6.62932 0.122587 6.7544 0.0625604 6.90052C0.00128575 7.04624 -0.0154554 7.20684 0.0144493 7.36206C0.044354 7.51728 0.119565 7.66016 0.230591 7.77268L3.43117 10.9733C3.50556 11.0483 3.59405 11.1078 3.69156 11.1484C3.78906 11.189 3.89365 11.2099 3.99927 11.2099C4.1049 11.2099 4.20949 11.189 4.30699 11.1484C4.4045 11.1078 4.49299 11.0483 4.56738 10.9733C4.64237 10.8989 4.7019 10.8104 4.74252 10.7129C4.78314 10.6154 4.80406 10.5108 4.80406 10.4052C4.80406 10.2995 4.78314 10.1949 4.74252 10.0974C4.7019 9.99994 4.64237 9.91144 4.56738 9.83706L2.72704 8.00472H12.0007C12.2129 8.00472 12.4165 7.92042 12.5665 7.77037C12.7166 7.62031 12.8009 7.41679 12.8009 7.20458C12.8009 6.99237 12.7166 6.78885 12.5665 6.63879C12.4165 6.48874 12.2129 6.40443 12.0007 6.40443Z" fill="#FDFDFD"/>
</svg>
