<svg width="20" height="15" viewBox="0 0 20 15" fill="none" xmlns="http://www.w3.org/2000/svg">
<path d="M17.5321 1.78267C15.0814 -0.051182 12.7335 0.000358408 12.7335 0.000358408L12.4935 0.274527C15.4069 1.14857 16.7609 2.43387 16.7609 2.43387C12.5925 0.13894 7.28323 0.155407 2.94764 2.43387C2.94764 2.43387 4.35291 1.07992 7.43785 0.205878L7.26654 0.000144257C7.26654 0.000144257 4.93568 -0.051182 2.46795 1.78246C2.46795 1.78246 0 6.22113 0 11.6882C0 11.6882 1.43971 14.1562 5.22717 14.2762C5.22717 14.2762 5.86127 13.5221 6.37539 12.8709C4.19893 12.2197 3.37621 10.8657 3.37621 10.8657C4.74363 11.7214 6.12624 12.2569 7.84931 12.5967C10.6526 13.1737 14.1396 12.5805 16.744 10.8657C16.744 10.8657 15.887 12.2539 13.6419 12.888C14.1561 13.5221 14.773 14.2591 14.773 14.2591C18.5605 14.1391 20 11.6711 20 11.6885C19.9998 6.22134 17.5321 1.78267 17.5321 1.78267ZM6.80375 10.0946C5.84395 10.0946 5.05566 9.25473 5.05566 8.20938C5.1258 5.70572 8.49924 5.71342 8.55184 8.20938C8.55184 9.25473 7.78045 10.0946 6.80375 10.0946ZM13.0589 10.0946C12.0991 10.0946 11.3109 9.25473 11.3109 8.20938C11.3878 5.71064 14.7191 5.70957 14.807 8.20938C14.807 9.25473 14.0359 10.0946 13.0589 10.0946Z" fill="white"/>
</svg>
