<svg width="23" height="16" viewBox="0 0 23 16" fill="none" xmlns="http://www.w3.org/2000/svg">
<path d="M19.649 1.99792C16.9025 -0.0573622 14.271 0.000401685 14.271 0.000401685L14.0021 0.307676C17.2673 1.28726 18.7847 2.72776 18.7847 2.72776C14.113 0.155717 8.16266 0.174172 3.30356 2.72776C3.30356 2.72776 4.87852 1.21032 8.33596 0.230737L8.14397 0.000161676C8.14397 0.000161676 5.53166 -0.0573622 2.76595 1.99768C2.76595 1.99768 0 6.97232 0 13.0996C0 13.0996 1.61355 15.8655 5.85835 16C5.85835 16 6.56901 15.1549 7.14521 14.425C4.70595 13.6952 3.78388 12.1778 3.78388 12.1778C5.31642 13.1367 6.86598 13.7369 8.79711 14.1178C11.9389 14.7644 15.8469 14.0995 18.7658 12.1778C18.7658 12.1778 17.8054 13.7336 15.2892 14.4442C15.8654 15.1549 16.5569 15.9808 16.5569 15.9808C20.8017 15.8464 22.415 13.0804 22.415 13.0998C22.4147 6.97256 19.649 1.99792 19.649 1.99792ZM7.62529 11.3135C6.54959 11.3135 5.66612 10.3722 5.66612 9.20065C5.74474 6.39468 9.52551 6.40331 9.58447 9.20065C9.58447 10.3722 8.71993 11.3135 7.62529 11.3135ZM14.6358 11.3135C13.5601 11.3135 12.6766 10.3722 12.6766 9.20065C12.7629 6.40019 16.4965 6.39899 16.595 9.20065C16.595 10.3722 15.7307 11.3135 14.6358 11.3135Z" fill="#5F5564"/>
</svg>
