<svg width="19" height="20" viewBox="0 0 19 20" fill="none" xmlns="http://www.w3.org/2000/svg">
<path d="M17.342 3.71636C17.2608 3.61373 17.174 3.51519 17.082 3.42116C17.1745 3.18637 17.2448 2.94417 17.292 2.69745C17.4313 1.79489 17.3103 0.873249 16.942 0.0311187C16.942 0.0311187 15.822 -0.302172 13.252 1.34524C12.1609 1.05836 11.0339 0.914196 9.90201 0.91672C8.76685 0.914825 7.63663 1.05897 6.54201 1.34524C3.97201 -0.321217 2.85201 0.0311187 2.85201 0.0311187C2.48809 0.864331 2.36717 1.77565 2.50201 2.66888C2.54946 2.92586 2.62314 3.17782 2.72201 3.42116C2.63201 3.51639 2.54201 3.62114 2.46201 3.71636C1.71579 4.6077 1.31968 5.7191 1.34201 6.85882C1.33964 7.12912 1.35299 7.39934 1.38201 7.66824C1.70201 11.8867 4.65201 12.8676 7.46201 13.1723C7.06429 13.5245 6.79461 13.9881 6.69201 14.4959C6.59906 14.8346 6.55532 15.1839 6.56201 15.5339V16.7814C5.44301 16.8766 4.29501 16.7214 3.93901 15.771C3.55686 14.8614 2.92308 14.0673 2.10501 13.4732C2.04522 13.4424 1.98834 13.4067 1.93501 13.3666C1.86317 13.1868 1.7359 13.0319 1.56992 12.9223C1.40393 12.8127 1.207 12.7534 1.00501 12.7524H1.00001C0.735656 12.7524 0.482057 12.852 0.294663 13.0296C0.10727 13.2071 0.00133004 13.4481 8.28013e-06 13.6999C-0.00299172 14.4731 0.810008 14.973 1.14301 15.1425C1.53206 15.5158 1.84502 15.9546 2.06601 16.4366C2.43001 17.4108 3.49501 18.8916 6.53201 18.6992L6.53401 18.7925L6.53801 19.0477C6.53801 19.3003 6.64337 19.5425 6.8309 19.7211C7.01844 19.8997 7.27279 20 7.53801 20H12.252C12.5172 20 12.7716 19.8997 12.9591 19.7211C13.1467 19.5425 13.252 19.3003 13.252 19.0477C13.252 19.0477 13.26 16.0386 13.26 15.5339C13.2667 15.1839 13.2229 14.8347 13.13 14.4959L13.128 14.4902L13.132 14.4959C13.123 14.4626 13.11 14.4359 13.1 14.4036C12.9886 13.9318 12.7308 13.5028 12.36 13.1723L12.372 13.1923L12.352 13.1733C15.162 12.8685 18.092 11.8687 18.412 7.66919C18.441 7.4003 18.4544 7.13007 18.452 6.85977C18.4698 5.72231 18.078 4.61334 17.342 3.71732V3.71636Z" fill="#5F5564"/>
</svg>
