<svg width="19" height="22" viewBox="0 0 19 22" fill="none" xmlns="http://www.w3.org/2000/svg">
<path d="M17.342 3.90268C17.2608 3.7949 17.174 3.69142 17.082 3.59268C17.1745 3.34612 17.2448 3.09177 17.292 2.83268C17.4313 1.88487 17.3103 0.917028 16.942 0.0326788C16.942 0.0326788 15.822 -0.317321 13.252 1.41268C12.1609 1.11142 11.0339 0.960029 9.90201 0.962679C8.76685 0.960688 7.63663 1.11206 6.54201 1.41268C3.97201 -0.337321 2.85201 0.0326788 2.85201 0.0326788C2.48809 0.907663 2.36717 1.86467 2.50201 2.80268C2.54946 3.07254 2.62314 3.33713 2.72201 3.59268C2.63201 3.69268 2.54201 3.80268 2.46201 3.90268C1.71579 4.8387 1.31968 6.00582 1.34201 7.20268C1.33964 7.48653 1.35299 7.7703 1.38201 8.05268C1.70201 12.4827 4.65201 13.5127 7.46201 13.8327C7.06429 14.2025 6.79461 14.6894 6.69201 15.2227C6.59906 15.5784 6.55532 15.9451 6.56201 16.3127V17.6227C5.44301 17.7227 4.29501 17.5597 3.93901 16.5617C3.55686 15.6064 2.92308 14.7726 2.10501 14.1487C2.04522 14.1163 1.98834 14.0788 1.93501 14.0367C1.86317 13.8479 1.7359 13.6852 1.56992 13.5701C1.40393 13.455 1.207 13.3928 1.00501 13.3917H1.00001C0.735656 13.3917 0.482057 13.4963 0.294663 13.6828C0.10727 13.8693 0.00133004 14.1223 8.28013e-06 14.3867C-0.00299172 15.1987 0.810008 15.7237 1.14301 15.9017C1.53206 16.2937 1.84502 16.7545 2.06601 17.2607C2.43001 18.2837 3.49501 19.8387 6.53201 19.6367L6.53401 19.7347L6.53801 20.0027C6.53801 20.2679 6.64337 20.5222 6.8309 20.7098C7.01844 20.8973 7.27279 21.0027 7.53801 21.0027H12.252C12.5172 21.0027 12.7716 20.8973 12.9591 20.7098C13.1467 20.5222 13.252 20.2679 13.252 20.0027C13.252 20.0027 13.26 16.8427 13.26 16.3127C13.2667 15.9451 13.2229 15.5784 13.13 15.2227L13.128 15.2167L13.132 15.2227C13.123 15.1877 13.11 15.1597 13.1 15.1257C12.9886 14.6302 12.7308 14.1797 12.36 13.8327L12.372 13.8537L12.352 13.8337C15.162 13.5137 18.092 12.4637 18.412 8.05368C18.441 7.7713 18.4544 7.48753 18.452 7.20368C18.4698 6.00919 18.078 4.84462 17.342 3.90368V3.90268Z" fill="#BE95C0"/>
</svg>
