<svg width="20" height="16" viewBox="0 0 20 16" fill="none" xmlns="http://www.w3.org/2000/svg">
<path d="M19.209 2.33338H20V0H12.5198L10.0339 9.16663H9.96594L7.50269 0H0V2.33332H0.76837C0.945999 2.36223 1.1108 2.44397 1.2413 2.5679C1.3718 2.69182 1.46195 2.85218 1.5 3.02808V12.8584C1.4596 13.028 1.36749 13.1808 1.23642 13.2958C1.10534 13.4107 0.941782 13.4821 0.76837 13.5H0V15.8334H6V13.5H4.5V3.16669H4.58752L8.0451 15.8334H10.7571L14.2599 3.16669H14.3334V13.5H12.8334V15.8334H20V13.5H19.209C19.0396 13.4779 18.8809 13.4047 18.7542 13.2901C18.6275 13.1754 18.5388 13.0248 18.5 12.8584V3.02814C18.5367 2.85543 18.6236 2.6974 18.7497 2.57382C18.8759 2.45024 19.0356 2.3666 19.209 2.33338Z" fill="#BE95C0"/>
</svg>
