<svg width="24" height="24" viewBox="0 0 24 24" fill="none" xmlns="http://www.w3.org/2000/svg">
<path d="M10.7727 3.04149C11.3262 2.11082 12.6738 2.11082 13.2273 3.04149C13.8503 4.08886 15.1531 4.51218 16.2728 4.03102C17.2676 3.60346 18.3578 4.39551 18.2586 5.47381C18.147 6.68733 18.9522 7.79559 20.1408 8.06442C21.197 8.3033 21.6134 9.58485 20.8993 10.3989C20.0957 11.3151 20.0957 12.6849 20.8993 13.6011C21.6134 14.4151 21.197 15.6967 20.1408 15.9356C18.9522 16.2044 18.147 17.3127 18.2586 18.5262C18.3578 19.6045 17.2676 20.3965 16.2728 19.969C15.1531 19.4878 13.8503 19.9111 13.2273 20.9585C12.6738 21.8892 11.3262 21.8892 10.7727 20.9585C10.1497 19.9111 8.84687 19.4878 7.72724 19.969C6.73236 20.3965 5.64221 19.6045 5.7414 18.5262C5.85303 17.3127 5.04783 16.2044 3.85921 15.9356C2.80303 15.6967 2.38663 14.4151 3.10069 13.6011C3.90429 12.6849 3.90429 11.3151 3.10069 10.3989C2.38663 9.58485 2.80303 8.3033 3.85921 8.06442C5.04783 7.79559 5.85303 6.68733 5.7414 5.47381C5.64221 4.39551 6.73236 3.60346 7.72724 4.03102C8.84687 4.51218 10.1497 4.08886 10.7727 3.04149Z" stroke="white"/>
<mask id="path-2-inside-1_52_1071" fill="white">
<path d="M11.8654 6.88013C11.8832 6.71952 12.1167 6.71952 12.1345 6.88013C12.1514 7.03247 12.3686 7.04386 12.4013 6.89412C12.4358 6.73625 12.668 6.76065 12.669 6.92225C12.6698 7.07552 12.8846 7.10954 12.9328 6.96404C12.9837 6.81064 13.212 6.85919 13.1961 7.01999C13.1809 7.17252 13.391 7.22881 13.4541 7.08914C13.5207 6.9419 13.7428 7.01405 13.7101 7.1723C13.6791 7.32241 13.8821 7.40035 13.9595 7.26805C14.0411 7.12857 14.2544 7.22354 14.2053 7.3775C14.1588 7.52355 14.3526 7.62228 14.4434 7.4988C14.5391 7.36861 14.7413 7.48536 14.6765 7.63335C14.6149 7.77373 14.7973 7.89218 14.9005 7.77887C15.0093 7.6594 15.1982 7.79664 15.1182 7.93704C15.0424 8.07022 15.2114 8.20709 15.3259 8.10518C15.4466 7.99775 15.6201 8.15398 15.5259 8.28525C15.4365 8.40977 15.5903 8.56356 15.7148 8.47417C15.8461 8.37994 16.0023 8.55346 15.8949 8.67416C15.7929 8.78865 15.9298 8.95767 16.063 8.8818C16.2034 8.8018 16.3406 8.99069 16.2212 9.09951C16.1079 9.20272 16.2263 9.38512 16.3667 9.32358C16.5147 9.2587 16.6314 9.46091 16.5012 9.55663C16.3778 9.64743 16.4765 9.84122 16.6225 9.79469C16.7765 9.74563 16.8715 9.95894 16.732 10.0405C16.5997 10.1179 16.6776 10.321 16.8277 10.29C16.986 10.2573 17.0581 10.4793 16.9109 10.5459C16.7712 10.609 16.8275 10.8191 16.98 10.804C17.1409 10.788 17.1894 11.0164 17.036 11.0672C16.8905 11.1154 16.9245 11.3302 17.0778 11.3311C17.2394 11.332 17.2638 11.5642 17.1059 11.5987C16.9562 11.6314 16.9676 11.8486 17.1199 11.8655C17.2805 11.8833 17.2805 12.1168 17.1199 12.1346C16.9676 12.1515 16.9562 12.3687 17.1059 12.4014C17.2638 12.4359 17.2394 12.6682 17.0778 12.6691C16.9245 12.67 16.8905 12.8848 17.036 12.933C17.1894 12.9838 17.1409 13.2122 16.98 13.1962C16.8275 13.181 16.7712 13.3911 16.9109 13.4543C17.0581 13.5208 16.986 13.7429 16.8277 13.7102C16.6776 13.6792 16.5997 13.8822 16.732 13.9596C16.8715 14.0412 16.7765 14.2545 16.6225 14.2055C16.4765 14.1589 16.3778 14.3527 16.5012 14.4435C16.6314 14.5393 16.5147 14.7415 16.3667 14.6766C16.2263 14.615 16.1079 14.7974 16.2212 14.9007C16.3406 15.0095 16.2034 15.1984 16.063 15.1184C15.9298 15.0425 15.7929 15.2115 15.8949 15.326C16.0023 15.4467 15.8461 15.6202 15.7148 15.526C15.5903 15.4366 15.4365 15.5904 15.5259 15.7149C15.6201 15.8462 15.4466 16.0024 15.3259 15.895C15.2114 15.7931 15.0424 15.9299 15.1182 16.0631C15.1982 16.2035 15.0093 16.3408 14.9005 16.2213C14.7973 16.108 14.6149 16.2264 14.6765 16.3668C14.7413 16.5148 14.5391 16.6315 14.4434 16.5014C14.3526 16.3779 14.1588 16.4766 14.2053 16.6227C14.2544 16.7766 14.0411 16.8716 13.9595 16.7321C13.8821 16.5998 13.6791 16.6778 13.7101 16.8279C13.7428 16.9861 13.5207 17.0583 13.4541 16.911C13.391 16.7714 13.1809 16.8276 13.1961 16.9802C13.212 17.141 12.9837 17.1895 12.9328 17.0361C12.8846 16.8906 12.6698 16.9246 12.669 17.0779C12.668 17.2395 12.4358 17.2639 12.4013 17.106C12.3686 16.9563 12.1514 16.9677 12.1345 17.12C12.1167 17.2806 11.8832 17.2806 11.8654 17.12C11.8485 16.9677 11.6313 16.9563 11.5986 17.106C11.5641 17.2639 11.3319 17.2395 11.331 17.0779C11.3301 16.9246 11.1153 16.8906 11.0671 17.0361C11.0163 17.1895 10.7879 17.141 10.8038 16.9802C10.819 16.8276 10.6089 16.7714 10.5458 16.911C10.4792 17.0583 10.2571 16.9861 10.2898 16.8279C10.3208 16.6778 10.1178 16.5998 10.0404 16.7321C9.95881 16.8716 9.74551 16.7766 9.79457 16.6227C9.8411 16.4766 9.64731 16.3779 9.55651 16.5014C9.46078 16.6315 9.25858 16.5148 9.32346 16.3668C9.385 16.2264 9.2026 16.108 9.09939 16.2213C8.99057 16.3408 8.80168 16.2035 8.88167 16.0631C8.95755 15.9299 8.78853 15.7931 8.67404 15.895C8.55333 16.0024 8.37982 15.8462 8.47405 15.7149C8.56343 15.5904 8.40965 15.4366 8.28513 15.526C8.15386 15.6202 7.99762 15.4467 8.10506 15.326C8.20697 15.2115 8.0701 15.0425 7.93692 15.1184C7.79652 15.1984 7.65928 15.0095 7.77875 14.9007C7.89206 14.7974 7.77361 14.615 7.63323 14.6766C7.48523 14.7415 7.36849 14.5393 7.49868 14.4435C7.62216 14.3527 7.52342 14.1589 7.37738 14.2055C7.22341 14.2545 7.12845 14.0412 7.26793 13.9596C7.40023 13.8822 7.32228 13.6792 7.17218 13.7102C7.01393 13.7429 6.94177 13.5208 7.08902 13.4543C7.22868 13.3911 7.17239 13.181 7.01987 13.1962C6.85907 13.2122 6.81052 12.9838 6.96392 12.933C7.10942 12.8848 7.0754 12.67 6.92212 12.6691C6.76053 12.6682 6.73613 12.4359 6.89399 12.4014C7.04374 12.3687 7.03235 12.1515 6.88001 12.1346C6.7194 12.1168 6.7194 11.8833 6.88001 11.8655C7.03235 11.8486 7.04374 11.6314 6.89399 11.5987C6.73613 11.5642 6.76053 11.332 6.92212 11.3311C7.0754 11.3302 7.10942 11.1154 6.96392 11.0672C6.81052 11.0164 6.85907 10.788 7.01987 10.804C7.17239 10.8191 7.22869 10.609 7.08902 10.5459C6.94177 10.4793 7.01393 10.2573 7.17218 10.29C7.32228 10.321 7.40023 10.1179 7.26793 10.0405C7.12845 9.95894 7.22341 9.74563 7.37738 9.79469C7.52342 9.84122 7.62216 9.64743 7.49868 9.55663C7.36849 9.46091 7.48523 9.2587 7.63323 9.32358C7.77361 9.38512 7.89206 9.20272 7.77875 9.09951C7.65928 8.99069 7.79652 8.8018 7.93692 8.8818C8.0701 8.95767 8.20697 8.78865 8.10506 8.67416C7.99762 8.55346 8.15386 8.37994 8.28513 8.47417C8.40965 8.56356 8.56343 8.40977 8.47405 8.28525C8.37982 8.15398 8.55333 7.99775 8.67404 8.10518C8.78853 8.20709 8.95755 8.07022 8.88167 7.93705C8.80168 7.79664 8.99057 7.6594 9.09939 7.77887C9.2026 7.89218 9.385 7.77373 9.32346 7.63335C9.25858 7.48536 9.46078 7.36861 9.55651 7.4988C9.64731 7.62228 9.8411 7.52355 9.79457 7.3775C9.74551 7.22354 9.95881 7.12857 10.0404 7.26805C10.1178 7.40035 10.3208 7.32241 10.2898 7.1723C10.2571 7.01405 10.4792 6.9419 10.5458 7.08914C10.6089 7.22881 10.819 7.17252 10.8038 7.01999C10.7879 6.85919 11.0163 6.81064 11.0671 6.96404C11.1153 7.10954 11.3301 7.07552 11.331 6.92225C11.3319 6.76065 11.5641 6.73625 11.5986 6.89412C11.6313 7.04386 11.8485 7.03247 11.8654 6.88013Z"/>
</mask>
<path d="M10.6217 7.10762C10.8961 8.36344 12.7176 8.26799 12.8593 6.99035L10.8715 6.76992C10.9794 5.79696 12.3665 5.72427 12.5755 6.68061L10.6217 7.10762ZM12.3309 6.92797C12.325 7.96002 10.842 8.11587 10.6217 7.10762L12.5755 6.68061C12.2862 5.35663 10.3387 5.56129 10.331 6.91653L12.3309 6.92797ZM10.1178 7.27849C10.522 8.49875 12.3236 8.21342 12.3309 6.92797L10.331 6.91653C10.3366 5.93761 11.7085 5.72033 12.0163 6.64959L10.1178 7.27849ZM11.799 6.92115C11.901 7.94815 10.4423 8.2582 10.1178 7.27849L12.0163 6.64959C11.5902 5.36308 9.6748 5.77023 9.80875 7.11883L11.799 6.92115ZM9.63457 7.5011C10.1641 8.67243 11.926 8.20032 11.799 6.92115L9.80875 7.11883C9.71199 6.14471 11.0537 5.78518 11.457 6.67719L9.63457 7.5011ZM11.2692 6.96999C11.478 7.9807 10.0597 8.44152 9.63457 7.5011L11.457 6.67719C10.8987 5.44228 9.03634 6.0474 9.31052 7.37461L11.2692 6.96999ZM9.17726 7.77299C9.82635 8.88254 11.5292 8.22888 11.2692 6.96999L9.31052 7.37461C9.11247 6.41593 10.4093 5.91815 10.9036 6.7631L9.17726 7.77299ZM10.7474 7.07393C11.0607 8.05728 9.69839 8.66382 9.17726 7.77299L10.9036 6.7631C10.2192 5.59332 8.43035 6.38979 8.84176 7.68108L10.7474 7.07393ZM8.75087 8.0912C9.51239 9.12683 11.1376 8.29874 10.7474 7.07393L8.84176 7.68108C8.54459 6.74836 9.78224 6.11773 10.3622 6.9064L8.75087 8.0912ZM10.2393 7.23185C10.6537 8.17707 9.36226 8.92267 8.75087 8.0912L10.3622 6.9064C9.5593 5.81455 7.86346 6.79365 8.4076 8.03486L10.2393 7.23185ZM8.36008 8.45224C9.22568 9.4026 10.7554 8.40915 10.2393 7.23185L8.4076 8.03486C8.01456 7.13831 9.17951 6.38177 9.83869 7.1055L8.36008 8.45224ZM9.75054 7.44201C10.2615 8.33874 9.05503 9.21524 8.36008 8.45224L9.83869 7.1055C8.92611 6.10356 7.3419 7.25455 8.0128 8.43208L9.75054 7.44201ZM8.00917 8.85214C8.96936 9.70681 10.3869 8.55892 9.75054 7.44201L8.0128 8.43208C7.5282 7.58153 8.60769 6.70737 9.33891 7.35822L8.00917 8.85214ZM9.28642 7.7021C9.88826 8.54052 8.78007 9.53833 8.00917 8.85214L9.33891 7.35822C8.3266 6.45717 6.87138 7.76744 7.66169 8.8684L9.28642 7.7021ZM7.70198 9.28654C8.74625 10.0362 10.036 8.74638 9.28642 7.7021L7.66169 8.8684C7.09083 8.07316 8.07304 7.09095 8.86828 7.66181L7.70198 9.28654ZM8.85202 8.00929C9.5382 8.78019 8.5404 9.88839 7.70198 9.28654L8.86828 7.66181C7.76732 6.8715 6.45705 8.32672 7.3581 9.33903L8.85202 8.00929ZM7.44188 9.75067C8.55879 10.387 9.70669 8.96949 8.85202 8.00929L7.3581 9.33903C6.70725 8.60781 7.58141 7.52832 8.43196 8.01292L7.44188 9.75067ZM8.45212 8.3602C9.21512 9.05516 8.33861 10.2616 7.44188 9.75067L8.43196 8.01292C7.25442 7.34202 6.10344 8.92623 7.10538 9.83881L8.45212 8.3602ZM7.23173 10.2394C8.40904 10.7556 9.40247 9.2258 8.45212 8.3602L7.10538 9.83881C6.38166 9.17964 7.13818 8.01468 8.03474 8.40772L7.23173 10.2394ZM8.09108 8.75099C8.92255 9.36239 8.17694 10.6538 7.23173 10.2394L8.03474 8.40772C6.79353 7.86359 5.81443 9.55942 6.90627 10.3623L8.09108 8.75099ZM7.07381 10.7475C8.29861 11.1377 9.12671 9.51251 8.09108 8.75099L6.90627 10.3623C6.11761 9.78236 6.74824 8.54471 7.68095 8.84188L7.07381 10.7475ZM7.77287 9.17738C8.66369 9.69851 8.05716 11.0608 7.07381 10.7475L7.68095 8.84188C6.38967 8.43047 5.5932 10.2194 6.76298 10.9037L7.77287 9.17738ZM6.96987 11.2693C8.22876 11.5294 8.88242 9.82647 7.77287 9.17738L6.76298 10.9037C5.91803 10.4094 6.41581 9.11259 7.37449 9.31064L6.96987 11.2693ZM7.50098 9.63469C8.44139 10.0599 7.98058 11.4781 6.96987 11.2693L7.37449 9.31064C6.04727 9.03646 5.44216 10.8988 6.67707 11.4571L7.50098 9.63469ZM6.92103 11.7991C8.2002 11.9261 8.67231 10.1643 7.50098 9.63469L6.67707 11.4571C5.78506 11.0538 6.14459 9.71211 7.11871 9.80887L6.92103 11.7991ZM7.27837 10.1179C8.25808 10.4425 7.94803 11.9011 6.92103 11.7991L7.11871 9.80887C5.7701 9.67492 5.36296 11.5903 6.64947 12.0165L7.27837 10.1179ZM6.92784 12.3311C8.2133 12.3237 8.49862 10.5221 7.27837 10.1179L6.64947 12.0165C5.72021 11.7087 5.93749 10.3367 6.9164 10.3311L6.92784 12.3311ZM7.1075 10.6218C8.11575 10.8421 7.9599 12.3252 6.92784 12.3311L6.9164 10.3311C5.56117 10.3389 5.35651 12.2863 6.68049 12.5757L7.1075 10.6218ZM6.99023 12.8594C8.26787 12.7178 8.36332 10.8962 7.1075 10.6218L6.68049 12.5757C5.72415 12.3667 5.79684 10.9795 6.7698 10.8716L6.99023 12.8594ZM6.99023 11.1407C8.016 11.2545 8.01599 12.7457 6.99023 12.8594L6.7698 10.8716C5.42281 11.021 5.4228 12.9792 6.7698 13.1285L6.99023 11.1407ZM7.1075 13.3784C8.36332 13.1039 8.26787 11.2824 6.99023 11.1407L6.7698 13.1285C5.79683 13.0206 5.72415 11.6335 6.68049 11.4245L7.1075 13.3784ZM6.92784 11.6691C7.9599 11.675 8.11575 13.158 7.1075 13.3784L6.68049 11.4245C5.35651 11.7138 5.56117 13.6613 6.9164 13.6691L6.92784 11.6691ZM7.27837 13.8822C8.49863 13.478 8.2133 11.6764 6.92784 11.6691L6.9164 13.6691C5.93749 13.6635 5.72021 12.2915 6.64947 11.9837L7.27837 13.8822ZM6.92103 12.2011C7.94803 12.0991 8.25808 13.5577 7.27837 13.8822L6.64947 11.9837C5.36296 12.4099 5.77011 14.3252 7.11871 14.1913L6.92103 12.2011ZM7.50098 14.3655C8.6723 13.8359 8.2002 12.074 6.92103 12.2011L7.11871 14.1913C6.14458 14.288 5.78507 12.9463 6.67707 12.5431L7.50098 14.3655ZM6.96987 12.7309C7.98058 12.5221 8.44139 13.9403 7.50098 14.3655L6.67707 12.5431C5.44216 13.1014 6.04727 14.9637 7.37449 14.6895L6.96987 12.7309ZM7.77287 14.8228C8.88242 14.1737 8.22876 12.4708 6.96987 12.7309L7.37449 14.6895C6.41581 14.8876 5.91803 13.5908 6.76298 13.0965L7.77287 14.8228ZM7.07381 13.2527C8.05714 12.9394 8.66372 14.3016 7.77287 14.8228L6.76298 13.0965C5.59317 13.7808 6.38969 15.5697 7.68095 15.1583L7.07381 13.2527ZM8.09108 15.2492C9.12672 14.4876 8.29861 12.8624 7.07381 13.2527L7.68095 15.1583C6.74824 15.4554 6.11761 14.2178 6.90628 13.6379L8.09108 15.2492ZM7.23173 13.7607C8.17695 13.3463 8.92254 14.6378 8.09108 15.2492L6.90628 13.6379C5.81444 14.4407 6.79351 16.1366 8.03474 15.5924L7.23173 13.7607ZM8.45212 15.64C9.40246 14.7744 8.40905 13.2446 7.23173 13.7607L8.03474 15.5924C7.13817 15.9855 6.38167 14.8205 7.10538 14.1613L8.45212 15.64ZM7.44188 14.2495C8.33863 13.7386 9.2151 14.945 8.45212 15.64L7.10538 14.1613C6.10346 15.0739 7.2544 16.6582 8.43196 15.9872L7.44188 14.2495ZM8.85202 15.9909C9.70669 15.0307 8.55879 13.6131 7.44188 14.2495L8.43196 15.9872C7.58141 16.4718 6.70725 15.3923 7.3581 14.6611L8.85202 15.9909ZM7.70198 14.7136C8.54037 14.1118 9.53822 15.2199 8.85202 15.9909L7.3581 14.6611C6.45702 15.6735 7.76734 17.1286 8.86828 16.3384L7.70198 14.7136ZM9.28642 16.2981C10.036 15.2538 8.74626 13.964 7.70198 14.7136L8.86828 16.3384C8.07304 16.9092 7.09083 15.927 7.66169 15.1318L9.28642 16.2981ZM8.00917 15.148C8.78009 14.4618 9.88825 15.4597 9.28642 16.2981L7.66169 15.1318C6.87139 16.2327 8.32657 17.543 9.33891 16.6419L8.00917 15.148ZM9.75054 16.5582C10.3869 15.4412 8.96936 14.2933 8.00917 15.148L9.33891 16.6419C8.60769 17.2928 7.5282 16.4186 8.0128 15.5681L9.75054 16.5582ZM8.36008 15.5479C9.05502 14.7849 10.2615 15.6614 9.75054 16.5582L8.0128 15.5681C7.34189 16.7456 8.92612 17.8966 9.83869 16.8947L8.36008 15.5479ZM10.2393 16.7683C10.7554 15.591 9.22568 14.5976 8.36008 15.5479L9.83869 16.8947C9.17951 17.6184 8.01456 16.8619 8.4076 15.9653L10.2393 16.7683ZM8.75087 15.909C9.36227 15.0775 10.6537 15.8231 10.2393 16.7683L8.4076 15.9653C7.86347 17.2065 9.5593 18.1856 10.3622 17.0938L8.75087 15.909ZM10.7474 16.9262C11.1376 15.7014 9.51239 14.8733 8.75087 15.909L10.3622 17.0938C9.78223 17.8824 8.54459 17.2518 8.84176 16.3191L10.7474 16.9262ZM9.17726 16.2272C9.69839 15.3364 11.0607 15.9429 10.7474 16.9262L8.84176 16.3191C8.43034 17.6104 10.2192 18.4068 10.9036 17.2371L9.17726 16.2272ZM11.2692 17.0302C11.5292 15.7713 9.82635 15.1176 9.17726 16.2272L10.9036 17.2371C10.4093 18.082 9.11247 17.5842 9.31052 16.6255L11.2692 17.0302ZM9.63457 16.4991C10.0597 15.5587 11.478 16.0195 11.2692 17.0302L9.31052 16.6255C9.03634 17.9528 10.8987 18.5579 11.457 17.323L9.63457 16.4991ZM11.799 17.079C11.926 15.7998 10.1641 15.3277 9.63457 16.4991L11.457 17.323C11.0537 18.215 9.71199 17.8555 9.80875 16.8813L11.799 17.079ZM10.1178 16.7217C10.4423 15.742 11.901 16.052 11.799 17.079L9.80875 16.8813C9.6748 18.2299 11.5902 18.6371 12.0163 17.3506L10.1178 16.7217ZM12.3309 17.0722C12.3236 15.7867 10.522 15.5014 10.1178 16.7217L12.0163 17.3506C11.7085 18.2798 10.3366 18.0626 10.331 17.0836L12.3309 17.0722ZM10.6217 16.8925C10.842 15.8843 12.325 16.0402 12.3309 17.0722L10.331 17.0836C10.3387 18.4389 12.2862 18.6435 12.5755 17.3195L10.6217 16.8925ZM12.8593 17.0098C12.7176 15.7322 10.8961 15.6367 10.6217 16.8925L12.5755 17.3195C12.3665 18.2759 10.9794 18.2032 10.8715 17.2302L12.8593 17.0098ZM11.1406 17.0098C11.2544 15.984 12.7456 15.984 12.8593 17.0098L10.8715 17.2302C11.0209 18.5772 12.9791 18.5772 13.1284 17.2302L11.1406 17.0098ZM13.3783 16.8925C13.1038 15.6367 11.2823 15.7322 11.1406 17.0098L13.1284 17.2302C13.0205 18.2032 11.6334 18.2759 11.4244 17.3195L13.3783 16.8925ZM11.669 17.0722C11.6749 16.0402 13.1579 15.8843 13.3783 16.8925L11.4244 17.3195C11.7137 18.6435 13.6612 18.4389 13.6689 17.0836L11.669 17.0722ZM13.8821 16.7217C13.4779 15.5014 11.6763 15.7867 11.669 17.0722L13.6689 17.0836C13.6633 18.0626 12.2914 18.2798 11.9836 17.3506L13.8821 16.7217ZM12.201 17.079C12.099 16.052 13.5576 15.742 13.8821 16.7217L11.9836 17.3506C12.4097 18.6371 14.3251 18.2299 14.1912 16.8813L12.201 17.079ZM14.3653 16.4991C13.8358 15.3277 12.0739 15.7998 12.201 17.079L14.1912 16.8813C14.2879 17.8554 12.9462 18.215 12.5429 17.323L14.3653 16.4991ZM12.7308 17.0302C12.522 16.0195 13.9402 15.5587 14.3653 16.4991L12.5429 17.323C13.1012 18.5579 14.9636 17.9528 14.6894 16.6255L12.7308 17.0302ZM14.8227 16.2272C14.1736 15.1176 12.4707 15.7713 12.7308 17.0302L14.6894 16.6255C14.8874 17.5842 13.5907 18.082 13.0964 17.2371L14.8227 16.2272ZM13.2525 16.9262C12.9392 15.9429 14.3015 15.3363 14.8227 16.2272L13.0964 17.2371C13.7807 18.4069 15.5696 17.6103 15.1582 16.3191L13.2525 16.9262ZM15.249 15.909C14.4875 14.8733 12.8623 15.7014 13.2525 16.9262L15.1582 16.3191C15.4553 17.2518 14.2177 17.8824 13.6378 17.0938L15.249 15.909ZM13.7606 16.7683C13.3462 15.8231 14.6377 15.0775 15.249 15.909L13.6378 17.0938C14.4406 18.1856 16.1365 17.2065 15.5923 15.9653L13.7606 16.7683ZM15.6398 15.5479C14.7742 14.5976 13.2445 15.591 13.7606 16.7683L15.5923 15.9653C15.9854 16.8619 14.8204 17.6184 14.1612 16.8947L15.6398 15.5479ZM14.2494 16.5582C13.7384 15.6614 14.9449 14.785 15.6398 15.5479L14.1612 16.8947C15.0738 17.8966 16.658 16.7457 15.9871 15.5681L14.2494 16.5582ZM15.9907 15.148C15.0306 14.2933 13.613 15.4413 14.2494 16.5582L15.9871 15.5681C16.4717 16.4186 15.3922 17.2928 14.661 16.6419L15.9907 15.148ZM14.7135 16.2981C14.1117 15.4597 15.2198 14.4618 15.9907 15.148L14.661 16.6419C15.6734 17.543 17.1285 16.2327 16.3382 15.1318L14.7135 16.2981ZM16.2979 14.7136C15.2537 13.964 13.9639 15.2538 14.7135 16.2981L16.3382 15.1318C16.9091 15.927 15.9269 16.9092 15.1316 16.3384L16.2979 14.7136ZM15.1479 15.9909C14.4617 15.2199 15.4596 14.1118 16.2979 14.7136L15.1316 16.3384C16.2326 17.1286 17.5429 15.6735 16.6418 14.6611L15.1479 15.9909ZM16.558 14.2495C15.4411 13.6131 14.2932 15.0307 15.1479 15.9909L16.6418 14.6611C17.2927 15.3924 16.4185 16.4718 15.568 15.9872L16.558 14.2495ZM15.5478 15.64C14.7848 14.945 15.6613 13.7386 16.558 14.2495L15.568 15.9872C16.7455 16.6582 17.8964 15.0739 16.8945 14.1613L15.5478 15.64ZM16.7682 13.7607C15.5909 13.2446 14.5975 14.7744 15.5478 15.64L16.8945 14.1613C17.6183 14.8205 16.8617 15.9855 15.9652 15.5924L16.7682 13.7607ZM15.9088 15.2492C15.0774 14.6378 15.823 13.3463 16.7682 13.7607L15.9652 15.5924C17.2064 16.1366 18.1855 14.4407 17.0936 13.6379L15.9088 15.2492ZM16.9261 13.2527C15.7013 12.8624 14.8732 14.4877 15.9088 15.2492L17.0936 13.6379C17.8823 14.2178 17.2517 15.4555 16.319 15.1583L16.9261 13.2527ZM16.227 14.8228C15.3362 14.3016 15.9428 12.9394 16.9261 13.2527L16.319 15.1583C17.6102 15.5697 18.4067 13.7808 17.2369 13.0965L16.227 14.8228ZM17.0301 12.7309C15.7712 12.4708 15.1175 14.1737 16.227 14.8228L17.2369 13.0965C18.0819 13.5908 17.5841 14.8876 16.6254 14.6895L17.0301 12.7309ZM16.4989 14.3655C15.5585 13.9403 16.0193 12.5221 17.0301 12.7309L16.6254 14.6895C17.9526 14.9637 18.5578 13.1014 17.3229 12.5431L16.4989 14.3655ZM17.0789 12.2011C15.7997 12.074 15.3276 13.8359 16.4989 14.3655L17.3229 12.5431C18.2149 12.9463 17.8553 14.288 16.8812 14.1913L17.0789 12.2011ZM16.7215 13.8822C15.7418 13.5577 16.0519 12.0991 17.0789 12.2011L16.8812 14.1913C18.2298 14.3252 18.637 12.4099 17.3505 11.9837L16.7215 13.8822ZM17.0721 11.6691C15.7866 11.6764 15.5013 13.478 16.7215 13.8822L17.3505 11.9837C18.2797 12.2915 18.0624 13.6635 17.0835 13.6691L17.0721 11.6691ZM16.8924 13.3784C15.8842 13.158 16.04 11.675 17.0721 11.6691L17.0835 13.6691C18.4387 13.6613 18.6434 11.7139 17.3194 11.4245L16.8924 13.3784ZM17.0097 11.1407C15.732 11.2824 15.6366 13.1039 16.8924 13.3784L17.3194 11.4245C18.2758 11.6335 18.2031 13.0206 17.2301 13.1285L17.0097 11.1407ZM17.0097 12.8594C15.9839 12.7457 15.9839 11.2545 17.0097 11.1407L17.2301 13.1285C18.5771 12.9792 18.5771 11.021 17.2301 10.8716L17.0097 12.8594ZM16.8924 10.6218C15.6366 10.8962 15.732 12.7178 17.0097 12.8594L17.2301 10.8716C18.2031 10.9795 18.2758 12.3667 17.3194 12.5757L16.8924 10.6218ZM17.0721 12.3311C16.04 12.3252 15.8842 10.8421 16.8924 10.6218L17.3194 12.5757C18.6434 12.2863 18.4387 10.3389 17.0835 10.3311L17.0721 12.3311ZM16.7215 10.1179C15.5013 10.5221 15.7866 12.3237 17.0721 12.3311L17.0835 10.3311C18.0624 10.3367 18.2797 11.7087 17.3505 12.0165L16.7215 10.1179ZM17.0789 11.7991C16.0519 11.9011 15.7418 10.4425 16.7215 10.1179L17.3505 12.0165C18.6369 11.5903 18.2298 9.67492 16.8812 9.80887L17.0789 11.7991ZM16.4989 9.63469C15.3276 10.1643 15.7997 11.9261 17.0789 11.7991L16.8812 9.80887C17.8553 9.71211 18.2149 11.0538 17.3229 11.4571L16.4989 9.63469ZM17.0301 11.2693C16.0193 11.4781 15.5585 10.0599 16.4989 9.63469L17.3229 11.4571C18.5578 10.8988 17.9526 9.03646 16.6254 9.31064L17.0301 11.2693ZM16.227 9.17738C15.1175 9.82647 15.7712 11.5294 17.0301 11.2693L16.6254 9.31064C17.5841 9.11259 18.0819 10.4094 17.2369 10.9037L16.227 9.17738ZM16.9261 10.7475C15.9428 11.0608 15.3362 9.69851 16.227 9.17738L17.2369 10.9037C18.4067 10.2194 17.6103 8.43047 16.319 8.84188L16.9261 10.7475ZM15.9088 8.75099C14.8732 9.51251 15.7013 11.1377 16.9261 10.7475L16.319 8.84188C17.2517 8.54471 17.8823 9.78236 17.0936 10.3623L15.9088 8.75099ZM16.7682 10.2394C15.823 10.6538 15.0774 9.3624 15.9088 8.75099L17.0936 10.3623C18.1855 9.55941 17.2064 7.86359 15.9652 8.40772L16.7682 10.2394ZM15.5478 8.3602C14.5974 9.2258 15.5909 10.7556 16.7682 10.2394L15.9652 8.40772C16.8617 8.01468 17.6183 9.17964 16.8945 9.83881L15.5478 8.3602ZM16.558 9.75067C15.6613 10.2616 14.7848 9.05515 15.5478 8.3602L16.8945 9.83881C17.8965 8.92624 16.7455 7.34202 15.568 8.01292L16.558 9.75067ZM15.1479 8.00929C14.2932 8.96948 15.4411 10.387 16.558 9.75067L15.568 8.01292C16.4185 7.52832 17.2927 8.60782 16.6418 9.33903L15.1479 8.00929ZM16.2979 9.28654C15.4595 9.88837 14.4617 8.78022 15.1479 8.00929L16.6418 9.33903C17.5429 8.32669 16.2326 6.87152 15.1316 7.66181L16.2979 9.28654ZM14.7135 7.7021C13.9639 8.74638 15.2537 10.0362 16.2979 9.28654L15.1316 7.66181C15.9269 7.09095 16.9091 8.07316 16.3382 8.8684L14.7135 7.7021ZM15.9907 8.85214C15.2198 9.53834 14.1117 8.54049 14.7135 7.7021L16.3382 8.8684C17.1285 7.76747 15.6733 6.45715 14.661 7.35822L15.9907 8.85214ZM14.2494 7.44201C13.613 8.55891 15.0306 9.70681 15.9907 8.85214L14.661 7.35822C15.3922 6.70737 16.4717 7.58153 15.9871 8.43208L14.2494 7.44201ZM15.6398 8.45224C14.9449 9.21522 13.7384 8.33876 14.2494 7.44201L15.9871 8.43208C16.658 7.25452 15.0738 6.10359 14.1612 7.1055L15.6398 8.45224ZM13.7606 7.23185C13.2445 8.40917 14.7742 9.40258 15.6398 8.45224L14.1612 7.1055C14.8204 6.38179 15.9854 7.1383 15.5923 8.03486L13.7606 7.23185ZM15.249 8.0912C14.6377 8.92267 13.3462 8.17707 13.7606 7.23185L15.5923 8.03486C16.1365 6.79364 14.4406 5.81456 13.6378 6.9064L15.249 8.0912ZM13.2525 7.07393C12.8623 8.29873 14.4875 9.12684 15.249 8.0912L13.6378 6.9064C14.2177 6.11773 15.4553 6.74836 15.1582 7.68108L13.2525 7.07393ZM14.8227 7.77299C14.3015 8.66384 12.9392 8.05726 13.2525 7.07393L15.1582 7.68108C15.5696 6.38981 13.7807 5.5933 13.0964 6.7631L14.8227 7.77299ZM12.7308 6.96999C12.4707 8.22888 14.1736 8.88255 14.8227 7.77299L13.0964 6.7631C13.5907 5.91815 14.8874 6.41594 14.6894 7.37461L12.7308 6.96999ZM14.3653 7.5011C13.9402 8.44151 12.522 7.9807 12.7308 6.96999L14.6894 7.37461C14.9636 6.04739 13.1012 5.44228 12.5429 6.67719L14.3653 7.5011ZM12.201 6.92115C12.0739 8.20032 13.8358 8.67243 14.3653 7.5011L12.5429 6.67719C12.9462 5.78519 14.2879 6.14471 14.1912 7.11883L12.201 6.92115ZM13.8821 7.27849C13.5576 8.2582 12.099 7.94815 12.201 6.92115L14.1912 7.11883C14.3251 5.77022 12.4097 5.36309 11.9836 6.64959L13.8821 7.27849ZM11.669 6.92797C11.6763 8.21342 13.4779 8.49875 13.8821 7.27849L11.9836 6.64959C12.2914 5.72034 13.6633 5.93761 13.6689 6.91653L11.669 6.92797ZM13.3783 7.10762C13.1579 8.11587 11.6749 7.96002 11.669 6.92797L13.6689 6.91653C13.6612 5.56129 11.7137 5.35663 11.4244 6.68061L13.3783 7.10762ZM11.1406 6.99035C11.2823 8.26799 13.1038 8.36345 13.3783 7.10762L11.4244 6.68061C11.6334 5.72427 13.0205 5.79696 13.1284 6.76992L11.1406 6.99035ZM13.1284 6.76992C12.9791 5.42293 11.0209 5.42293 10.8715 6.76992L12.8593 6.99035C12.7456 8.01612 11.2544 8.01612 11.1406 6.99035L13.1284 6.76992Z" fill="white" mask="url(#path-2-inside-1_52_1071)"/>
</svg>
