<?xml version="1.0" encoding="UTF-8"?>
<svg id="b" data-name="Layer 2" xmlns="http://www.w3.org/2000/svg" width="24" height="24" viewBox="0 0 24 24">
  <defs>
    <style>
      .d {
        fill: #fff;
      }
    </style>
  </defs>
  <g id="c" data-name="Layer 1">
    <path class="d" d="M11.99985,24c-.84446,0-1.60663-.41652-2.03847-1.11341-.60481-.98072-1.88351-1.37763-2.97482-.9288-.77479,.3196-1.64567,.22614-2.32977-.25037-.68349-.47652-1.04506-1.24379-.96818-2.05144,.10871-1.13418-.68109-2.17951-1.83787-2.43104-.82404-.17884-1.47209-.7465-1.73276-1.51839-.26066-.77073-.08348-1.59569,.47268-2.20489,.78199-.85611,.78259-2.14778,0-3.00447-.55677-.60978-.73334-1.43416-.47208-2.20605,.26066-.77131,.90872-1.33897,1.73216-1.51781,1.15677-.25153,1.94658-1.29628,1.83787-2.43046-.07688-.80765,.28469-1.57492,.96818-2.05144,.68289-.47709,1.55498-.5694,2.33037-.2498,1.09071,.4494,2.3682,.05077,2.97422-.92822v-.00058c.43184-.69689,1.19401-1.11283,2.03847-1.11283s1.60723,.41594,2.03847,1.11283c.60782,.98072,1.88952,1.3782,2.97422,.9288,.77599-.3196,1.64567-.22845,2.33037,.2498,.68349,.47652,1.04506,1.24321,.96818,2.05086-.10811,1.13475,.68229,2.17951,1.83787,2.43104,.82404,.17884,1.47149,.74593,1.73216,1.51781,.26187,.77131,.08529,1.59627-.47208,2.20605-.78199,.85669-.78199,2.14836,0,3.00447,.55616,.6092,.73274,1.43416,.47208,2.20489-.26066,.77189-.90812,1.33955-1.73216,1.51839-1.15677,.25153-1.94598,1.29686-1.83787,2.43104,.07688,.80765-.28469,1.57492-.96818,2.05144-.6847,.47767-1.55438,.56882-2.33037,.24922-1.08951-.44652-2.3676-.05077-2.97422,.92996-.43124,.69689-1.19401,1.11341-2.03847,1.11341Zm-4.08535-3.40714c1.23966,0,2.43908,.61497,3.10395,1.68915,.41562,.67151,1.54717,.67151,1.96279,0,.92013-1.48608,2.86491-2.09182,4.51659-1.40993,.36998,.1523,.7916,.10846,1.12194-.11999,.32913-.2296,.50331-.59882,.46607-.98764-.16457-1.72376,1.03545-3.31023,2.79163-3.69098,.3964-.08653,.70872-.35998,.83485-.7315,.12493-.37152,.03964-.76727-.22823-1.06033-1.18801-1.30148-1.18801-3.26292,0-4.56324,.26787-.29364,.35316-.69054,.22703-1.06206-.12493-.37152-.43724-.64439-.83365-.73035-1.75618-.3819-2.9562-1.96894-2.79163-3.69155,.03724-.38825-.13694-.75746-.46607-.98707-.33034-.23018-.75196-.27345-1.12194-.11999-1.65408,.68247-3.59645,.07557-4.51659-1.40993-.41562-.67151-1.54717-.67151-1.96279,0-.92073,1.48781-2.86311,2.09298-4.51719,1.40993-.37538-.15461-.7928-.10961-1.12194,.11999-.32853,.2296-.50271,.59824-.46547,.98707,.16517,1.72261-1.03485,3.30965-2.79163,3.69155-.3964,.08596-.70812,.35883-.83425,.73035-.12553,.37152-.04024,.76842,.22763,1.06206,1.18741,1.30032,1.18741,3.26177,0,4.56324-.26787,.29306-.35316,.68881-.22763,1.06033s.43784,.64497,.83425,.7315c1.75678,.38075,2.9568,1.96721,2.79163,3.69098-.03724,.38883,.13694,.75804,.46547,.98764,.32913,.22845,.74836,.27229,1.12134,.11999,.45887-.18922,.93935-.27922,1.41384-.27922Z"/>
    <path class="d" d="M18.14278,12.47998c-.02003,0-.04007-.01001-.06004-.01996-.02003-.01001-.04007-.04004-.06004-.06-.03005-.08002-.01002-.18005,.08001-.22003,0-.01001,.01002-.01001,.02003-.01001s.02003-.01001,.03005-.01001c.05002,0,.09003-.02997,.11006-.06,.06004-.06995,.05002-.19995-.05002-.25-.02003,0-.04007-.00995-.06004-.00995-.02003,0-.03005-.01001-.05008-.02002-.02999-.01001-.05002-.03003-.06999-.06-.04007-.07001-.03005-.16998,.05002-.22003,.01002,0,.01002-.00995,.01997-.00995,.01002-.01001,.02003-.01001,.04007-.01001,.05002-.01001,.08001-.04004,.10004-.07001,.05002-.09003,.02003-.21002-.08007-.23999-.01997-.01001-.04001-.01001-.06004-.01001-.01997,0-.04001-.01001-.05002-.01001-.02999-.01001-.06004-.03003-.07005-.06-.06004-.06-.05002-.16998,.02003-.22003q.01002-.00995,.02003-.01996c.01002,0,.01997-.01001,.02999-.01001,.05002-.02002,.08007-.04999,.1001-.08002,.04001-.08997,0-.20996-.11012-.22998-.00996-.01001-.01997-.01001-.04001-.01001h-.07005c-.02999-.01001-.06004-.02002-.08007-.04999-.06004-.06-.06004-.16003,0-.22998q.01002,0,.02003-.01001c.01002-.01001,.02003-.01001,.03005-.02002,.05002-.02002,.08001-.04999,.09003-.09003,.03005-.08997-.02003-.19995-.13009-.21997h-.06004c-.01002,.01001-.01997,.01001-.02999,.01001h-.02003c-.04001-.01001-.06004-.02002-.09009-.04004-.06004-.04999-.08001-.15997-.01997-.22998,.01002,0,.01002-.01001,.01997-.01001,.01002-.01001,.02003-.01996,.03005-.01996,.04001-.03003,.07005-.07001,.07005-.10004,.02999-.09998-.04007-.20996-.15013-.20996-.01997,0-.04001,0-.05002,.00995-.02003,.01001-.04001,.01001-.06004,.01001-.03005,0-.06004-.01001-.08007-.02997-.07005-.04999-.10004-.15002-.05002-.22003,0-.01001,.01002-.01996,.01002-.01996,.01002-.01001,.02003-.02002,.02999-.03003,.04007-.02997,.06004-.06,.07005-.09998,.01002-.10004-.06004-.19-.16008-.19h-.01002c-.02003,0-.04001,0-.06004,.01001-.02003,.00995-.04001,.01996-.06004,.01996h-.01002c-.02999,0-.05002-.01001-.07005-.01996-.08001-.04004-.12008-.14001-.07005-.22003q0-.01001,.01002-.02002c.01002-.00995,.01002-.01996,.02003-.02997,.04001-.03003,.06004-.07001,.06004-.10999,0-.09003-.07005-.17004-.16014-.17004h-.02999c-.02003,.01001-.04001,.01001-.06004,.02002-.01002,.01001-.03005,.02002-.05002,.02002-.01002,0-.02003,.01001-.03005,.01001-.01997,0-.04001-.01001-.06004-.02002-.08007-.03003-.13009-.12-.09003-.21002,0,0,.00996-.01001,.00996-.01996,0-.01001,.01002-.02002,.02003-.03003,.02003-.02002,.04001-.06,.04001-.09998v-.02002c0-.08002-.08001-.15002-.16008-.15002-.01002,0-.02999,0-.04001,.01001-.02003,0-.04007,.01001-.06004,.02002-.01002,.01001-.03005,.02002-.05008,.02997h-.08001c-.09009-.02997-.14011-.10999-.12008-.19995,0-.01001,.00996-.02002,.00996-.02002,0-.01001,.01002-.02002,.02003-.03003,.03005-.04999,.03005-.08997,.03005-.13-.02003-.06995-.09009-.12994-.17016-.12994-.00996,0-.02999,0-.05002,.00995-.01997,0-.04001,.01001-.05002,.03003-.02003,.01001-.03005,.02002-.05002,.02997-.02003,.01001-.04007,.01001-.06004,.01001h-.03005c-.08001-.01996-.15007-.09998-.13009-.19v-.01996c.01002-.01001,.01002-.02002,.02003-.03003,.01002-.02997,.02003-.06,.02003-.08002,0-.01996,0-.02997-.01002-.04999-.02003-.07001-.08007-.12-.16014-.12-.01997,0-.04001,.01001-.06999,.02002-.01002,.01001-.03005,.01996-.04007,.03998-.02003,.01001-.02999,.02002-.05002,.03003-.02003,.01996-.05002,.01996-.07005,.01996h-.01002c-.09003-.01001-.16008-.07996-.16008-.16998,0-.01001,0-.02002,.01002-.02002,0-.00995,0-.02997,.00996-.03998,.01002-.02002,.02003-.03998,.02003-.06,0-.03003-.01002-.04999-.02003-.06-.01997-.07001-.09003-.10999-.16008-.10999-.02003,0-.05002,.01001-.08007,.02997-.01997,.01001-.02999,.02002-.04001,.04004-.02003,.01996-.03005,.02997-.04001,.03998-.03005,.02002-.06004,.02997-.09009,.02997-.08007,0-.1701-.06995-.1701-.15997v-.02002c0-.01001,.01002-.01996,.01002-.03998,.01997-.03998,.00996-.09003-.01002-.12-.03005-.06-.09009-.09003-.15013-.09003-.02999,0-.07005,.01001-.10004,.04004-.01002,.01001-.02003,.01996-.03005,.03998s-.02999,.03003-.04001,.04999c-.02003,.02002-.05002,.03003-.08007,.03003h-.02003c-.08001,0-.16008-.04999-.1701-.13v-.02002c0-.02002,0-.02997,.01002-.03998v-.04004c0-.02997-.01002-.06-.02999-.08997-.03005-.03998-.08007-.07001-.14011-.07001-.04007,0-.08007,.02002-.11006,.04999-.01002,.01001-.02003,.03003-.03005,.04999-.01002,.02002-.02003,.03003-.03005,.04004-.01997,.02997-.05002,.03998-.08001,.04999h-.04007c-.06999,0-.14005-.03998-.16008-.12v-.06c0-.04999-.01002-.09003-.04001-.12-.03005-.03003-.08007-.04999-.13009-.04999-.04007,0-.09009,.00995-.12008,.06-.01002,.00995-.02003,.02997-.03005,.04999-.01002,.01996-.01002,.02997-.02003,.04999-.01997,.02002-.05002,.03998-.08001,.04999-.01002,.01001-.03005,.01001-.05008,.01001-.06999,0-.13003-.03998-.16008-.10999v-.02002c0-.01001-.01002-.02002-.01002-.02997,0-.05005-.01997-.09003-.04001-.12-.03005-.03003-.08007-.04004-.12008-.04004-.05002,0-.11006,.02002-.14011,.07001-.01002,.01001-.01002,.03003-.02003,.04999,0,.02002-.01002,.04004-.01997,.06-.03005,.04999-.08007,.07001-.14011,.07001s-.13009-.03998-.15013-.10999c0-.01001-.01002-.02002-.01002-.03003-.00996-.09998-.08001-.14996-.16008-.14996s-.15013,.04999-.16008,.14996c0,.01001-.01002,.02002-.01002,.03003-.02003,.07001-.09009,.10999-.15013,.10999s-.11006-.02002-.14011-.07001c-.00996-.01001-.00996-.01996-.00996-.01996-.01002-.01001-.01002-.02002-.01002-.04004-.01002-.01996-.01002-.03998-.02003-.04999-.03005-.04999-.09009-.07001-.14011-.07001-.04001,0-.09003,.01001-.12008,.04004-.01002,.01996-.02999,.03998-.02999,.06-.01002,.01996-.01002,.03998-.01002,.06,0,.01996-.01002,.03998-.01002,.04999-.03005,.07001-.09009,.10999-.16008,.10999-.02003,0-.04007,0-.05008-.01001-.02999-.01001-.05002-.02997-.07005-.04999q-.00996-.01001-.01997-.02002c0-.01001-.01002-.01996-.01002-.02997-.02003-.04999-.05002-.08002-.08007-.10004-.01997-.00995-.05002-.00995-.07005-.00995-.07005,0-.15007,.03998-.16008,.12-.01002,.00995-.01002,.02997-.01002,.04999v.06c-.01002,.02997-.02003,.06-.05002,.08002-.03005,.02997-.07005,.03998-.11006,.03998-.04007,0-.08007-.01001-.12008-.03998q0-.01001-.01002-.02002c-.01002-.01001-.01002-.02002-.02003-.03003-.02003-.04999-.05002-.07996-.09009-.08997-.01997-.01001-.02999-.01001-.05002-.01001-.08001,0-.16008,.04999-.1701,.14001v.06c.01002,.01996,.01002,.03998,.01002,.04999-.01002,.03998-.02003,.06-.04007,.09003-.02999,.02997-.08001,.04999-.13003,.04999-.03005,0-.07005-.01001-.1001-.03003,0-.01001-.01002-.01001-.01002-.01996-.01002-.01001-.01997-.02002-.01997-.03003h-.01002c-.02003-.03998-.06004-.06-.09009-.07001-.01997-.01001-.02999-.01001-.04001-.01001-.08007,0-.1701,.06-.1701,.16003,0,.01001,0,.02997,.00996,.04999,.01002,.02002,.01002,.03998,.01002,.06,0,.03003-.01002,.06-.02999,.08002-.03005,.04999-.08007,.07996-.14011,.07996-.03005,0-.06004-.00995-.09009-.02997l-.00996-.01001c-.01002-.01001-.02003-.02002-.03005-.02997-.02999-.04004-.06004-.06-.10004-.07001h-.02003c-.09009,0-.18012,.07996-.1701,.16998,0,.02002,0,.03998,.01002,.06,.00996,.02002,.01997,.03998,.01997,.06,0,.03003-.01002,.06-.01997,.08002-.03005,.06-.09009,.08997-.15013,.08997-.02003,0-.05002,0-.07005-.01996q-.01002,0-.02003-.01001c-.00996-.01001-.01997-.01001-.02999-.02002-.03005-.03998-.07005-.06-.11006-.06-.09009,0-.17016,.07001-.17016,.16003v.02997c.01002,.02002,.01002,.03998,.02003,.06,.01002,.01001,.02003,.03003,.02003,.04999,.01002,.03003,0,.06-.01002,.09003-.02003,.06-.08007,.09998-.15013,.09998-.01997,0-.04001,0-.06004-.01001,0,0-.01002-.00995-.01997-.00995-.01002-.01001-.02003-.01001-.03005-.02002-.03005-.03003-.07005-.03998-.10004-.03998h-.02003c-.09009,0-.1701,.09998-.14011,.19995,0,.02002,.01002,.04004,.02003,.06,.01002,.01001,.02003,.03003,.02999,.05005,.01002,.02997,.01002,.06,0,.07996-.01997,.07001-.09003,.12-.16008,.12h-.04001c-.01002,0-.02003-.00995-.02003-.00995-.01002,0-.02003-.01001-.03005-.02002-.04001-.02002-.07005-.03003-.10004-.03003h-.03005c-.09003,.02002-.16008,.13-.12008,.22003,0,.01996,.01002,.03998,.03005,.04999,.01002,.02002,.02003,.03003,.02999,.04999,.01002,.03003,.01002,.06,.01002,.09003-.01997,.07001-.08001,.14001-.16008,.14001-.01002,0-.02003-.01001-.03005-.01001h-.01997c-.01002-.01001-.02003-.01001-.03005-.02002-.02999-.01001-.06004-.02002-.09003-.02002-.01002,0-.02003,0-.04007,.01001-.09003,.02002-.15007,.14001-.10004,.22998,.01002,.01001,.01997,.03003,.04001,.04004,.01002,.02002,.02003,.02997,.03005,.04999,.01997,.03003,.01997,.06,.01997,.09003-.01002,.07996-.07005,.14996-.16008,.14996h-.01002c-.01002,0-.02003,0-.02003-.01001-.00996,0-.02999,0-.04001-.00995-.02003-.01001-.05002-.01001-.07005-.01001s-.04001,0-.05002,.01001c-.09009,.03998-.14011,.14996-.08007,.23999,.01002,.01996,.02003,.02997,.04007,.03998,.01997,.02002,.02999,.03003,.04001,.03998,.02003,.03003,.02999,.06,.02999,.09003,0,.08002-.06999,.16998-.16008,.16998h-.02003c-.01002,0-.01997-.01001-.04001-.01001-.01002-.00995-.03005-.00995-.05002-.00995-.03005,0-.05002,.00995-.07005,.01996-.09009,.04004-.12008,.17004-.05002,.25,.01002,.01001,.01997,.02002,.04001,.03003v.01001c.02003,.00995,.03005,.01996,.05002,.02997,.02003,.02002,.03005,.04999,.03005,.08002,.01002,.08997-.04007,.16998-.13009,.19h-.03005c-.01002,0-.01997,0-.02999-.01001h-.04007c-.02999,0-.06004,.01001-.09003,.02997-.08007,.05005-.1001,.18005-.02003,.25,.01002,.01001,.03005,.02002,.05002,.03003,.02003,.01001,.03005,.02002,.04007,.03003,.02999,.02997,.04001,.04999,.05002,.07996,.02003,.08002-.03005,.17999-.12008,.20001h-.07005c-.05002,0-.08007,.02002-.11006,.03998-.07005,.06-.08007,.19,.01002,.25,.00996,.01001,.02999,.02002,.05002,.03003,.01997,.01001,.02999,.01001,.05002,.02002,.02003,.01996,.04001,.04999,.05002,.07996,.03005,.08002-.01002,.17999-.10004,.21002h-.02003c-.01002,0-.02003,.01001-.02999,.01001-.05008,0-.09009,.01996-.12008,.03998-.07005,.07001-.0601,.20001,.02999,.26001,.01002,.01001,.03005,.01001,.05002,.02002,.02003,0,.04007,.01001,.06004,.01996,.02003,.01001,.04007,.04004,.06004,.06,.03005,.08002,.01002,.18005-.08001,.22003,0,.01001-.01002,.01001-.02003,.01001s-.02003,.01001-.03005,.01001c-.05002,0-.09003,.02997-.11006,.06-.06004,.06995-.04001,.19995,.05002,.25,.02003,0,.04007,.00995,.06004,.00995,.02003,0,.03005,.01001,.05008,.02002,.02999,.01001,.05002,.03003,.06999,.06,.04007,.07001,.03005,.16998-.05002,.22003-.01002,0-.01002,.00995-.01997,.00995-.01002,.01001-.02003,.01001-.04007,.01001-.05002,.01001-.08001,.04004-.10004,.07001-.05002,.09003-.02003,.21002,.08007,.23999,.01997,.01001,.04001,.01001,.06004,.01001,.01997,0,.04001,.01001,.05002,.01001,.02999,.01001,.06004,.03003,.08007,.06,.05002,.06,.04001,.16998-.03005,.22003q-.01002,.00995-.02003,.01996c-.01002,0-.01997,.01001-.02999,.01001-.05002,.02002-.08007,.04999-.1001,.08002-.04001,.08997,0,.20996,.11012,.22998,.00996,.01001,.01997,.01001,.04001,.01001h.07005c.02999,.01001,.06004,.02002,.08007,.04999,.06004,.06,.06004,.16003,0,.22998q-.01002,0-.02003,.01001c-.01002,.01001-.02003,.01001-.03005,.02002-.05002,.02002-.08001,.04999-.09003,.09003-.03005,.08997,.02003,.19995,.13009,.21997h.06004c.01002-.01001,.01997-.01001,.02999-.01001h.02003c.04001,.01001,.06004,.02002,.09009,.04004,.06004,.04999,.08001,.15997,.01997,.22998-.01002,0-.01002,.01001-.01997,.01001-.01002,.01001-.02003,.01996-.03005,.02997-.04001,.02002-.06004,.06-.07005,.09003-.02999,.09998,.04007,.20996,.15013,.20996,.01997,0,.04001,0,.05002-.00995,.02003-.01001,.04001-.01001,.06004-.01001,.03005,0,.06004,.01001,.08007,.02997,.07005,.04999,.10004,.15002,.05002,.22003,0,.01001-.01002,.01996-.01002,.01996-.01002,.01001-.02003,.02002-.02999,.03003-.04007,.02997-.06004,.06-.07005,.09998-.01002,.10004,.06004,.19,.16008,.19h.01002c.02003,0,.04001,0,.06004-.01001,.02003-.00995,.04001-.01996,.06004-.01996h.01002c.02999,0,.05002,.01001,.07005,.01996,.08001,.04004,.12008,.14001,.07005,.22003q0,.01001-.01002,.02002c-.01002,.00995-.01002,.01996-.02003,.02997-.04001,.03003-.06004,.07001-.06004,.10999,0,.09003,.07005,.17004,.16014,.17004h.02999c.02003,0,.04001-.01001,.06004-.02002,.01002-.01001,.03005-.02002,.05002-.02002h.03005c.01997,0,.04001,0,.06004,.01001,.08007,.03003,.13009,.12,.09003,.21002,0,0-.00996,.01001-.00996,.01996-.01002,.01001-.01002,.02002-.02003,.03003-.02003,.02002-.04001,.06-.04001,.09998v.02002c0,.08002,.08001,.15002,.16008,.15002,.01002,0,.02999,0,.04001-.01001,.02003,0,.04007-.01001,.06004-.02002,.01002-.01001,.03005-.02002,.05008-.02997h.08001c.09009,.02997,.14011,.10999,.12008,.19995,0,.01001-.00996,.02002-.00996,.02002,0,.01001-.01002,.02002-.02003,.03003-.03005,.04999-.03005,.08997-.03005,.13,.02003,.06995,.09009,.12994,.17016,.12994,.00996,0,.02999,0,.05002-.00995,.01997,0,.04001-.01001,.05002-.03003,.02003-.01001,.03005-.02002,.05002-.02997,.02003-.01001,.04007-.01001,.06004-.01001h.03005c.08001,.01996,.15007,.09998,.13009,.19v.01996c-.01002,.01001-.01002,.02002-.02003,.03003-.01002,.02997-.02003,.06-.02003,.08002,0,.01996,0,.02997,.01002,.04999,.02003,.07001,.08007,.12,.16014,.12,.01997,0,.04001-.01001,.06999-.02002,.01002-.01001,.03005-.01996,.04007-.03998,.02003-.01001,.02999-.02002,.05002-.03003,.02003-.01996,.05002-.01996,.07005-.01996h.01002c.09003,.01001,.16008,.07996,.16008,.16998,0,.01001,0,.02002-.01002,.02002,0,.00995,0,.02997-.00996,.03998-.01002,.02002-.02003,.03998-.02003,.06,0,.03003,.01002,.04999,.02003,.06,.01997,.07001,.09003,.10999,.16008,.10999,.02999,0,.05002-.01001,.08007-.02997,.01997-.01001,.02999-.02002,.04001-.04004,.02003-.01996,.03005-.02997,.04001-.03998,.03005-.02002,.06004-.02997,.09009-.02997,.08007,0,.1701,.06995,.1701,.15997v.02002c0,.01001-.01002,.01996-.01002,.03998-.01997,.03998-.00996,.09003,.01002,.12,.03005,.04999,.09009,.09003,.15013,.09003,.02999,0,.07005-.01001,.10004-.04004,.01002-.01001,.02003-.01996,.04007-.03998,.00996-.02002,.01997-.03003,.02999-.04999,.02003-.02002,.05002-.03003,.08007-.03003h.02003c.08001,0,.16008,.04999,.1701,.13v.02002c0,.02002,0,.02997-.01002,.03998v.04004c0,.02997,.01002,.06,.02999,.08997,.03005,.03998,.08007,.07001,.14011,.07001,.04007,0,.08007-.02002,.11006-.04999,.01002-.01001,.02003-.03003,.03005-.04999,.01002-.02002,.02003-.03003,.03005-.04004,.02999-.02997,.05002-.03998,.08001-.04999h.04007c.06999,0,.14005,.03998,.16008,.12v.06c0,.04999,.01002,.09003,.04001,.12,.03005,.03003,.08007,.04999,.13009,.04999,.04007,0,.09009-.00995,.12008-.06,.01002-.00995,.02003-.02997,.03005-.04999,.01002-.01996,.01002-.02997,.02003-.04999,.01997-.02002,.05002-.03998,.08001-.04999,.01002-.01001,.03005-.01001,.05008-.01001,.06999,0,.13003,.03998,.16008,.10999v.02002c0,.01001,.01002,.02002,.01002,.02997,0,.05005,.01997,.09003,.04001,.12,.03005,.03003,.08007,.04004,.12008,.04004,.05002,0,.11006-.02002,.14011-.07001,.01002-.01001,.01002-.03003,.02003-.04999,0-.02002,.01002-.04004,.01997-.06,.01002-.02002,.04007-.04004,.06004-.06,.03005-.01001,.05008-.01001,.08007-.01001,.06004,0,.11006,.02997,.14011,.08997,.01002,0,.01002,.01001,.01002,.02002s.01002,.02002,.01002,.03003c0,.04999,.02999,.08997,.06004,.10999,.02999,.02997,.06004,.03998,.10004,.03998,.06004,0,.12008-.02997,.15013-.08997,0-.02002,.00996-.04004,.00996-.06,0-.02002,.01002-.03003,.02003-.05005,.01002-.02997,.03005-.04999,.06004-.06995,.02003-.01001,.05002-.02002,.08007-.02002,.06004,0,.11006,.02002,.14011,.07001,0,.01001,.00996,.01001,.00996,.01996,.01002,.01001,.01002,.02002,.01002,.04004,.01002,.04999,.04007,.07996,.07005,.09998,.03005,.02002,.06004,.02002,.09009,.02002,.06004,0,.13009-.03003,.15007-.10004,.01002-.01996,.01002-.03998,.01002-.06,0-.01996,.01002-.03998,.01002-.04999,.01002-.02997,.03005-.06,.06004-.07001,.02003-.02997,.06004-.03998,.10004-.03998,.05008,0,.09009,.02002,.12014,.06q.00996,.01001,.01997,.02002c0,.01001,.01002,.01996,.01002,.02997,.02003,.04999,.05002,.08002,.08007,.10004,.01997,.00995,.05002,.00995,.07005,.00995,.07005,0,.15007-.03998,.16008-.12,.01002-.00995,.01002-.02997,.01002-.04999v-.06c.01002-.02997,.02003-.06,.05002-.08002,.03005-.02997,.07005-.03998,.11006-.03998,.04007,0,.08007,.01001,.12008,.03998q0,.01001,.01002,.02002c.01002,.01001,.01002,.02002,.02003,.03003,.02003,.04999,.05002,.07996,.09009,.08997,.01997,.01001,.02999,.01001,.05002,.01001,.08001,0,.16008-.04999,.1701-.14001v-.06c-.01002-.01996-.01002-.03998-.01002-.04999,.01002-.03998,.02003-.06,.04007-.09003,.02999-.02997,.08001-.04999,.13003-.04999,.03005,0,.07005,.01001,.1001,.03003,0,.01001,.01002,.01001,.01002,.01996,.01002,.01001,.01997,.02002,.02999,.03003,.02003,.03998,.06004,.07001,.09009,.07001,.01997,.01001,.02999,.01001,.04001,.01001,.08007,0,.1701-.06,.1701-.16003,0-.01001,0-.02997-.00996-.04999-.01002-.02002-.01002-.03998-.01002-.06,0-.03003,.01002-.06,.02999-.08002,.03005-.04999,.08007-.07996,.14011-.07996,.03005,0,.06004,.00995,.08007,.02997,.01002,0,.01997,.01001,.01997,.01001,.01002,.01001,.02003,.02002,.03005,.02997,.02999,.04004,.06004,.06,.10004,.07001h.02003c.09009,0,.18012-.07996,.1701-.16998,0-.02002,0-.03998-.01002-.06-.00996-.02002-.01997-.03998-.01997-.06,0-.03003,.01002-.06,.01997-.08002,.03005-.06,.09009-.08997,.15013-.08997,.02003,0,.05002,0,.07005,.01996q.01002,0,.02003,.01001c.00996,.01001,.01997,.01001,.02999,.02002,.03005,.03998,.07005,.06,.11006,.06,.09009,0,.17016-.07001,.17016-.16003v-.02997c0-.02002-.01002-.03998-.02003-.06-.01002-.01001-.02003-.03003-.02003-.04999-.01002-.03003,0-.06,.01002-.09003,.02003-.06,.08007-.09998,.15013-.09998,.01997,0,.04001,0,.06004,.01001,0,0,.01002,.00995,.01997,.00995,.01002,0,.02003,.01001,.03005,.02002,.03005,.03003,.07005,.03998,.10004,.03998h.02003c.09009,0,.1701-.09998,.14011-.19995,0-.02002-.01002-.04004-.02003-.06-.01002-.01001-.02003-.03003-.02999-.05005-.01002-.02997-.01002-.06,0-.07996,.01997-.07001,.09003-.12,.16008-.12h.04001c.01002,0,.02003,.00995,.02003,.00995,.01002,0,.02003,.01001,.03005,.02002,.04001,.02002,.07005,.03003,.10004,.03003h.03005c.09003-.02002,.16008-.13,.12008-.22003,0-.01996-.01002-.03998-.03005-.04999-.01002-.02002-.02003-.03003-.02999-.04999-.01002-.03003-.01002-.06-.01002-.09003,.01002-.07001,.08001-.13,.16008-.13h.05002c.01002,.01001,.02003,.01001,.03005,.02002,.02999,.01001,.06004,.02002,.09003,.02002,.01002,0,.02003,0,.04007-.01001,.09003-.02002,.15007-.13,.10004-.22998-.01002-.01001-.01997-.03003-.04001-.04004-.01002-.02002-.02003-.02997-.03005-.04999-.01997-.03003-.01997-.06-.01997-.08002,.01002-.08997,.07005-.15997,.16008-.15997h.01002c.01002,0,.02003,0,.02003,.01001,.00996,0,.02999,0,.04001,.00995,.02003,.01001,.05002,.01001,.07005,.01001s.04001,0,.05002-.01001c.09009-.03998,.14011-.14996,.08007-.23999-.01002-.01996-.02003-.02997-.04007-.03998-.01997-.02002-.02999-.03003-.04001-.03998-.02003-.03003-.02999-.06-.02999-.09003,0-.08002,.06999-.16998,.16008-.16998h.02003c.01002,0,.01997,.01001,.04001,.01001,.01002,.00995,.03005,.00995,.05002,.00995,.03005,0,.05002-.00995,.07005-.01996,.09009-.04004,.12008-.17004,.05002-.25-.01002-.01001-.01997-.02002-.04001-.03003-.02003-.01996-.03005-.02997-.05002-.03998-.02003-.02002-.03005-.04999-.03005-.08002-.01002-.08997,.04007-.17999,.13009-.19h.02003c.02003,0,.02999,0,.04001,.01001h.04007c.02999,0,.06004-.01001,.09003-.02997,.08007-.05005,.1001-.18005,.02003-.25-.01002-.01001-.03005-.02002-.05002-.03003-.02003-.01001-.03005-.02002-.04007-.03003-.02999-.01996-.04001-.04999-.05002-.07996-.02003-.08002,.03005-.17999,.12008-.20001h.07005c.05002,0,.08007-.02002,.11006-.03998,.07005-.06,.08007-.19-.01002-.25-.00996-.01001-.02999-.02002-.05002-.03003-.01997-.01001-.02999-.01001-.05002-.02002-.02003-.01996-.04001-.04999-.05002-.07996-.03005-.08002,.01002-.17999,.10004-.21002h.02003c.01002,0,.02003-.01001,.02999-.01001,.05008,0,.09009-.01996,.12008-.03998,.07005-.07001,.0601-.20001-.02999-.26001-.01002-.01001-.03005-.01001-.05002-.02002Zm-1.32091,.03003c-.06004,.15997-.08007,.33002-.08007,.5-.07005,.14996-.12008,.32001-.13009,.48999-.09003,.14001-.15007,.29999-.18012,.46997-.11006,.14001-.19013,.29004-.23014,.45001-.12008,.13-.21016,.27002-.28022,.42999-.13009,.11005-.24015,.24005-.32023,.39001-.14005,.10004-.26013,.22003-.36023,.35999-.15007,.08002-.28016,.19-.39028,.32001-.16008,.07001-.30019,.16003-.43029,.28003-.16008,.03998-.31021,.12-.45032,.22998-.1701,.03003-.33018,.09003-.47029,.17999-.1701,.01001-.34026,.06-.49032,.13h-.03005c-.16008,0-.32023,.02002-.47029,.08002-.06004-.01001-.12008-.01001-.18012-.01001-.11012,0-.22018,.01001-.33024,.03003-.11006-.02002-.22012-.03003-.33024-.03003-.06004,0-.12008,0-.18012,.01001-.15007-.06-.31021-.08002-.47029-.08002h-.03005c-.15007-.07001-.32023-.12-.49032-.13-.14011-.08997-.30019-.14996-.47029-.17999-.14011-.10999-.29024-.19-.45032-.22998-.13009-.12-.2702-.21002-.43029-.28003-.11012-.13-.24021-.23999-.39028-.32001-.1001-.13995-.22018-.25995-.36023-.35999-.08007-.14996-.19013-.27997-.32023-.39001-.07005-.15997-.16014-.29999-.28022-.42999-.04001-.15997-.12008-.31-.23014-.45001-.03005-.16998-.09009-.32996-.18012-.46997-.01002-.16998-.06004-.34003-.13009-.48999,0-.16998-.02003-.34003-.08007-.5,.02003-.16998,.01002-.34003-.02003-.51001,.03005-.16998,.04007-.34003,.02003-.51001,.06004-.15997,.08007-.33002,.08007-.5,.07005-.14996,.12008-.32001,.13009-.48999,.09003-.14001,.15007-.29999,.18012-.46997,.11006-.14001,.19013-.29004,.23014-.45001,.12008-.13,.21016-.27002,.28022-.42999,.13009-.11005,.24015-.24005,.32023-.39001,.14005-.10004,.26013-.22003,.36023-.35999,.15007-.08002,.28016-.19,.39028-.32001,.16008-.07001,.30019-.16003,.43029-.28003,.16008-.03998,.31021-.12,.45032-.22998,.1701-.03003,.33018-.09003,.47029-.17999,.1701-.01001,.34026-.06,.49032-.13h.03005c.16008,0,.32023-.02002,.47029-.08002,.06004,.01001,.12008,.01001,.18012,.01001,.11012,0,.22018-.01001,.33024-.03003,.11006,.02002,.22012,.03003,.33024,.03003,.06004,0,.12008,0,.18012-.01001,.15007,.06,.31021,.08002,.47029,.08002h.03005c.15007,.07001,.32023,.12,.49032,.13,.14011,.08997,.30019,.14996,.47029,.17999,.14011,.10999,.29024,.19,.45032,.22998,.13009,.12,.2702,.21002,.43029,.28003,.11012,.13,.24021,.23999,.39028,.32001,.1001,.13995,.22018,.25995,.36023,.35999,.08007,.14996,.19013,.27997,.32023,.39001,.07005,.15997,.16014,.29999,.28022,.42999,.04001,.15997,.12008,.31,.23014,.45001,.03005,.16998,.09009,.32996,.18012,.46997,.01002,.16998,.06004,.34003,.13009,.48999,0,.16998,.02003,.34003,.08007,.5-.02003,.16998-.01002,.34003,.02003,.51001-.03005,.16998-.04007,.34003-.02003,.51001Z"/>
  </g>
</svg>