<svg width="20" height="19" viewBox="0 0 20 19" fill="none" xmlns="http://www.w3.org/2000/svg">
<path d="M15.1723 18.2685C14.7632 18.2685 14.3658 18.1319 14.0431 17.8803L10.3793 15.042L7.92283 17.754C7.8147 17.8732 7.67688 17.9615 7.52344 18.01C7.36999 18.0585 7.20643 18.0654 7.04945 18.03C6.89247 17.9946 6.7477 17.9181 6.62993 17.8085C6.51216 17.6988 6.42561 17.5598 6.37912 17.4058L4.54267 11.3309L1.24614 10.1854C0.890193 10.0615 0.580387 9.83221 0.357914 9.52797C0.135441 9.22374 0.0108396 8.85899 0.000675444 8.48223C-0.00948868 8.10547 0.0952658 7.73453 0.301012 7.41874C0.506759 7.10296 0.80375 6.85727 1.1525 6.71435L17.4442 0.136766C17.755 0.0103547 18.0943 -0.0294409 18.426 0.0216119C18.7576 0.0726647 19.0693 0.212657 19.3277 0.426699C19.5861 0.64074 19.7817 0.920828 19.8937 1.23717C20.0056 1.55351 20.0297 1.89428 19.9634 2.22323L16.9969 16.783C16.9091 17.2023 16.6798 17.5787 16.3474 17.849C16.015 18.1193 15.5998 18.2671 15.1714 18.2676L15.1723 18.2685Z" fill="white"/>
</svg>
