<svg width="20" height="17" viewBox="0 0 20 17" fill="none" xmlns="http://www.w3.org/2000/svg">
<path d="M20 1.92358C19.2477 2.25171 18.452 2.46978 17.6375 2.57108C18.4958 2.06187 19.1376 1.25554 19.4412 0.304834C18.6375 0.781505 17.7582 1.11718 16.8412 1.29733C16.2791 0.697058 15.5493 0.279733 14.7469 0.0995772C13.9444 -0.0805784 13.1063 -0.0152363 12.3415 0.287114C11.5766 0.589465 10.9204 1.11485 10.458 1.795C9.99566 2.47516 9.74853 3.27865 9.74875 4.10108C9.74875 4.42608 9.77625 4.73858 9.84375 5.03608C8.2126 4.95611 6.6167 4.53277 5.16038 3.79373C3.70406 3.05469 2.42012 2.0166 1.3925 0.747334C0.866024 1.64966 0.703261 2.71872 0.937354 3.73684C1.17145 4.75496 1.78479 5.64557 2.6525 6.22733C2.00345 6.20993 1.36809 6.03673 0.8 5.72233V5.76733C0.801087 6.71412 1.12833 7.63163 1.72665 8.36541C2.32496 9.09919 3.15781 9.60443 4.085 9.79608C3.73423 9.88853 3.37273 9.93392 3.01 9.93108C2.74949 9.93572 2.48923 9.91225 2.23375 9.86108C2.49868 10.6749 3.00936 11.3865 3.69549 11.898C4.38162 12.4095 5.20945 12.6958 6.065 12.7173C4.61367 13.8524 2.82372 14.4681 0.98125 14.4661C0.645 14.4661 0.3225 14.4511 0 14.4098C1.87485 15.618 4.05959 16.2571 6.29 16.2498C13.835 16.2498 17.96 9.99983 17.96 4.58233C17.96 4.40108 17.9538 4.22608 17.945 4.05233C18.7537 3.47357 19.4501 2.75219 20 1.92358Z" fill="white"/>
</svg>
