<?xml version="1.0" encoding="UTF-8"?><svg id="Layer_2" xmlns="http://www.w3.org/2000/svg" width="24" height="24" viewBox="0 0 24 24">
    <defs>
        <style>
            .cls-1 {
                fill: #fdfdfd;
            }
        </style>
    </defs>
    <g id="Layer_1-2">
        <path class="cls-1"
            d="M14.11,12L23.56,2.57c.28-.28,.44-.67,.44-1.06s-.16-.78-.44-1.06c-.28-.28-.67-.44-1.06-.44s-.78,.16-1.06,.44L12,9.89,2.57,.44C2.29,.16,1.91,0,1.51,0S.73,.16,.44,.44C.16,.72,0,1.11,0,1.51s.16,.78,.44,1.06L9.89,12,.44,21.43c-.14,.14-.25,.31-.33,.49s-.12,.38-.12,.58,.04,.39,.12,.58c.08,.18,.19,.35,.33,.49,.14,.14,.31,.25,.49,.33,.18,.08,.38,.12,.58,.12s.39-.04,.58-.12c.18-.08,.35-.19,.49-.33L12,14.11l9.43,9.44c.14,.14,.31,.25,.49,.33,.18,.08,.38,.12,.58,.12s.39-.04,.58-.12c.18-.08,.35-.19,.49-.33,.14-.14,.25-.31,.33-.49,.08-.18,.12-.38,.12-.58s-.04-.39-.12-.58c-.08-.18-.19-.35-.33-.49L14.11,12Z" />
    </g>
</svg>