<svg width="12" height="12" viewBox="0 0 12 12" fill="none" xmlns="http://www.w3.org/2000/svg">
<path d="M7.05673 5.99945L11.7783 1.28537C11.9194 1.14424 11.9987 0.952837 11.9987 0.753256C11.9987 0.553674 11.9194 0.362267 11.7783 0.221141C11.6372 0.0800159 11.4458 0.000732422 11.2462 0.000732422C11.0466 0.000732422 10.8552 0.0800159 10.7141 0.221141L6 4.94272L1.28592 0.221141C1.14479 0.0800159 0.953384 0.000732599 0.753802 0.000732601C0.554221 0.000732602 0.362814 0.0800159 0.221688 0.221141C0.0805626 0.362267 0.0012792 0.553674 0.0012792 0.753256C0.0012792 0.952837 0.0805626 1.14424 0.221688 1.28537L4.94327 5.99945L0.221688 10.7135C0.151443 10.7832 0.0956875 10.8661 0.0576386 10.9574C0.0195897 11.0488 0 11.1467 0 11.2457C0 11.3446 0.0195897 11.4425 0.0576386 11.5339C0.0956875 11.6252 0.151443 11.7081 0.221688 11.7778C0.29136 11.848 0.37425 11.9038 0.465579 11.9418C0.556907 11.9799 0.654865 11.9995 0.753802 11.9995C0.85274 11.9995 0.950698 11.9799 1.04203 11.9418C1.13335 11.9038 1.21625 11.848 1.28592 11.7778L6 7.05619L10.7141 11.7778C10.7838 11.848 10.8666 11.9038 10.958 11.9418C11.0493 11.9799 11.1473 11.9995 11.2462 11.9995C11.3451 11.9995 11.4431 11.9799 11.5344 11.9418C11.6257 11.9038 11.7086 11.848 11.7783 11.7778C11.8486 11.7081 11.9043 11.6252 11.9424 11.5339C11.9804 11.4425 12 11.3446 12 11.2457C12 11.1467 11.9804 11.0488 11.9424 10.9574C11.9043 10.8661 11.8486 10.7832 11.7783 10.7135L7.05673 5.99945Z" fill="white"/>
</svg>
