<svg width="8" height="7" viewBox="0 0 8 7" fill="none" xmlns="http://www.w3.org/2000/svg">
<path d="M8 3.49974C8 3.39068 7.95261 3.29033 7.86645 3.2074L5.00592 0.310213C4.91545 0.227287 4.82499 0.192392 4.7259 0.192392C4.5105 0.192392 4.34679 0.349442 4.34679 0.567615C4.34679 0.667966 4.38556 0.772696 4.45451 0.842531L5.41518 1.83733L6.8713 3.17689L5.82444 3.10705H0.379117C0.155106 3.10705 0 3.27286 0 3.49974C0 3.72663 0.155106 3.8881 0.379117 3.8881H5.82444L6.86699 3.82265L5.41518 5.16217L4.45451 6.15263C4.38124 6.22681 4.34679 6.32717 4.34679 6.43188C4.34679 6.64569 4.5105 6.80713 4.7259 6.80713C4.82499 6.80713 4.91976 6.76786 5.01454 6.67623L7.86645 3.79209C7.95261 3.70483 8 3.60448 8 3.49974Z" fill="#BE95C0"/>
</svg>
